<svg xmlns="http://www.w3.org/2000/svg" version="1.2" width="848.659" height="547.322" viewBox="0 0 22454.112 14481.223" preserveAspectRatio="xMidYMid" fill-rule="evenodd" stroke-width="28.222" stroke-linejoin="round"><path class="BoundingBox" fill="none" d="M268 7407.111h21986v6874H268z"/><path d="M11261 14267.111H281v-6847h21959v6847H11261z" fill="#cff" fill-opacity=".251" stroke="#fff" stroke-opacity=".251"/><path d="M11261 14267.111H281v-6847h21959v6847H11261z" fill="none" stroke="#000" stroke-width="26" stroke-linejoin="miter"/><path class="BoundingBox" fill="none" d="M3983 201.111h16089v7050H3983z"/><path d="M3997 214.111h16061v6452l-570 570H3997v-7022zm0 0zm16061 7022z" fill="#ff9" fill-opacity=".259" stroke="#fff" stroke-opacity=".259"/><path d="M19488 7236.111l114-456 456-114-570 570zm-15491-7022zm16061 7022z" fill="#d4d47f" fill-opacity=".259" stroke="#fff" stroke-opacity=".259"/><path d="M19488 7236.111l114-456 456-114-570 570H3997v-7022h16061v6452M3997 214.111zM20058 7236.111z" fill="none" stroke="#000" stroke-width="26"/><path class="BoundingBox" fill="none" d="M10249 537.111h3357v3097h-3357z"/><path d="M10262 550.111h3330v2686l-384 384h-2946v-3070zm0 0zm3330 3070z" fill="gray"/><path d="M13208 3620.111l77-307 307-77-384 384zm-2946-3070zm3330 3070z" fill="gray"/><path d="M13208 3620.111l77-307 307-77-384 384h-2946v-3070h3330v2686M10262 550.111zM13592 3620.111z" fill="none" stroke="gray" stroke-width="26"/><path d="M10262 550.111h3330v2686l-384 384h-2946v-3070zm0 0zm3330 3070z" fill="#ff9"/><path d="M13208 3620.111l77-307 307-77-384 384zm-2946-3070zm3330 3070z" fill="#d4d47f"/><path d="M13208 3620.111l77-307 307-77-384 384h-2946v-3070h3330v2686M10262 550.111zM13592 3620.111z" fill="none" stroke="#000" stroke-width="26"/><path class="BoundingBox" fill="none" d="M10519 1250.111h2727v2116h-2727z"/><path d="M10532 1611.111v-18l2-18 2-18 4-18 4-18 5-18 6-17 7-17 8-16 9-16 9-16 10-15 12-14 11-14 13-13 13-13 14-11 14-12 15-10 16-9 16-9 16-8 17-7 17-6 18-5 18-4 18-4 18-2 18-2h2039l18 2 18 2 18 4 18 4 18 5 17 6 17 7 16 8 16 9 16 9 15 10 14 12 14 11 13 13 13 13 11 14 12 14 10 15 9 16 9 16 8 16 7 17 6 17 5 18 4 18 4 18 2 18 2 18v18l1 1392v18l-2 18-2 18-4 18-4 18-5 18-6 17-7 17-8 16-9 16-9 16-10 15-12 14-11 14-13 13-13 13-14 11-14 12-15 10-16 9-16 9-16 8-17 7-17 6-18 5-18 4-18 4-18 2-18 2h-18l-2004 1h-18l-18-2-18-2-18-4-18-4-18-5-17-6-17-7-16-8-16-9-16-9-15-10-14-12-14-11-13-13-13-13-11-14-12-14-10-15-9-16-9-16-8-16-7-17-6-17-5-18-4-18-4-18-2-18-2-18v-1411zm0-348zm2700 2089z" fill="gray"/><path d="M10532 1611.111v-18l2-18 2-18 4-18 4-18 5-18 6-17 7-17 8-16 9-16 9-16 10-15 12-14 11-14 13-13 13-13 14-11 14-12 15-10 16-9 16-9 16-8 17-7 17-6 18-5 18-4 18-4 18-2 18-2h2039l18 2 18 2 18 4 18 4 18 5 17 6 17 7 16 8 16 9 16 9 15 10 14 12 14 11 13 13 13 13 11 14 12 14 10 15 9 16 9 16 8 16 7 17 6 17 5 18 4 18 4 18 2 18 2 18v18l1 1392v18l-2 18-2 18-4 18-4 18-5 18-6 17-7 17-8 16-9 16-9 16-10 15-12 14-11 14-13 13-13 13-14 11-14 12-15 10-16 9-16 9-16 8-17 7-17 6-18 5-18 4-18 4-18 2-18 2h-18l-2004 1h-18l-18-2-18-2-18-4-18-4-18-5-17-6-17-7-16-8-16-9-16-9-15-10-14-12-14-11-13-13-13-13-11-14-12-14-10-15-9-16-9-16-8-16-7-17-6-17-5-18-4-18-4-18-2-18-2-18v-1411z" fill="none" stroke="gray" stroke-width="26"/><text class="TextShape" transform="translate(-1480 -2282.889)"><tspan class="TextParagraph" font-size="318" font-weight="700" font-family="Arial,sans-serif"><tspan class="TextPosition" x="12299" y="4337"><tspan fill="gray">Determine the</tspan></tspan></tspan><tspan class="TextParagraph" font-size="318" font-weight="700" font-family="Arial,sans-serif"><tspan class="TextPosition" x="12183" y="4718"><tspan fill="gray">intended use of</tspan></tspan></tspan><tspan class="TextParagraph" font-size="318" font-weight="700" font-family="Arial,sans-serif"><tspan class="TextPosition" x="12121" y="5099"><tspan fill="gray">the architecture</tspan></tspan></tspan></text><path d="M10532 1611.111v-18l2-18 2-18 4-18 4-18 5-18 6-17 7-17 8-16 9-16 9-16 10-15 12-14 11-14 13-13 13-13 14-11 14-12 15-10 16-9 16-9 16-8 17-7 17-6 18-5 18-4 18-4 18-2 18-2h2039l18 2 18 2 18 4 18 4 18 5 17 6 17 7 16 8 16 9 16 9 15 10 14 12 14 11 13 13 13 13 11 14 12 14 10 15 9 16 9 16 8 16 7 17 6 17 5 18 4 18 4 18 2 18 2 18v18l1 1392v18l-2 18-2 18-4 18-4 18-5 18-6 17-7 17-8 16-9 16-9 16-10 15-12 14-11 14-13 13-13 13-14 11-14 12-15 10-16 9-16 9-16 8-17 7-17 6-18 5-18 4-18 4-18 2-18 2h-18l-2004 1h-18l-18-2-18-2-18-4-18-4-18-5-17-6-17-7-16-8-16-9-16-9-15-10-14-12-14-11-13-13-13-13-11-14-12-14-10-15-9-16-9-16-8-16-7-17-6-17-5-18-4-18-4-18-2-18-2-18v-1411zm0-348zm2700 2089z" fill="#ff9"/><path d="M10532 1611.111v-18l2-18 2-18 4-18 4-18 5-18 6-17 7-17 8-16 9-16 9-16 10-15 12-14 11-14 13-13 13-13 14-11 14-12 15-10 16-9 16-9 16-8 17-7 17-6 18-5 18-4 18-4 18-2 18-2h2039l18 2 18 2 18 4 18 4 18 5 17 6 17 7 16 8 16 9 16 9 15 10 14 12 14 11 13 13 13 13 11 14 12 14 10 15 9 16 9 16 8 16 7 17 6 17 5 18 4 18 4 18 2 18 2 18v18l1 1392v18l-2 18-2 18-4 18-4 18-5 18-6 17-7 17-8 16-9 16-9 16-10 15-12 14-11 14-13 13-13 13-14 11-14 12-15 10-16 9-16 9-16 8-17 7-17 6-18 5-18 4-18 4-18 2-18 2h-18l-2004 1h-18l-18-2-18-2-18-4-18-4-18-5-17-6-17-7-16-8-16-9-16-9-15-10-14-12-14-11-13-13-13-13-11-14-12-14-10-15-9-16-9-16-8-16-7-17-6-17-5-18-4-18-4-18-2-18-2-18v-1411z" fill="none" stroke="#000" stroke-width="26"/><text class="TextShape" transform="translate(-1480 -2282.889)"><tspan class="TextParagraph" font-size="318" font-weight="700" font-family="Arial,sans-serif"><tspan class="TextPosition" x="12299" y="4337"><tspan>Determine the</tspan></tspan></tspan><tspan class="TextParagraph" font-size="318" font-weight="700" font-family="Arial,sans-serif"><tspan class="TextPosition" x="12183" y="4718"><tspan>intended use of</tspan></tspan></tspan><tspan class="TextParagraph" font-size="318" font-weight="700" font-family="Arial,sans-serif"><tspan class="TextPosition" x="12121" y="5099"><tspan>the architecture</tspan></tspan></tspan></text><path class="BoundingBox" fill="none" d="M11598 798.111h748v787h-748z"/><path d="M11612 1191.111v-20l2-20 2-19 4-20 4-19 5-19 7-19 7-18 8-18 9-18 10-17 10-16 12-16 12-15 13-14 13-14 15-13 15-12 15-11 16-11 17-9 17-9 17-7 18-7 18-6 18-4 19-4 18-3 19-1 19-1 19 1 18 1 19 3 19 3 18 5 18 6 17 6 18 8 17 8 16 10 16 10 16 11 15 12 14 13 14 14 12 14 13 15 11 16 11 17 10 16 9 18 8 18 7 18 6 19 6 19 4 19 3 20 3 19 1 20 1 20v20l-2 20-2 19-4 20-4 19-6 19-6 19-7 18-8 18-9 18-10 17-11 16-11 16-12 15-13 14-14 14-14 13-15 12-15 11-16 11-17 9-17 9-17 7-18 7-18 6-18 5-19 3-18 3-19 1-19 1-19-1-19-1-18-3-19-3-18-5-18-6-18-6-17-8-17-8-17-10-16-10-15-11-15-12-15-13-13-14-13-14-12-15-12-16-11-17-9-16-9-18-9-18-7-18-6-19-6-19-4-19-3-20-3-19-1-20-1-20h1zm0-380zm720 760z" fill="red"/><path d="M11612 1191.111v-20l2-20 2-19 4-20 4-19 5-19 7-19 7-18 8-18 9-18 10-17 10-16 12-16 12-15 13-14 13-14 15-13 15-12 15-11 16-11 17-9 17-9 17-7 18-7 18-6 18-4 19-4 18-3 19-1 19-1 19 1 18 1 19 3 19 3 18 5 18 6 17 6 18 8 17 8 16 10 16 10 16 11 15 12 14 13 14 14 12 14 13 15 11 16 11 17 10 16 9 18 8 18 7 18 6 19 6 19 4 19 3 20 3 19 1 20 1 20v20l-2 20-2 19-4 20-4 19-6 19-6 19-7 18-8 18-9 18-10 17-11 16-11 16-12 15-13 14-14 14-14 13-15 12-15 11-16 11-17 9-17 9-17 7-18 7-18 6-18 5-19 3-18 3-19 1-19 1-19-1-19-1-18-3-19-3-18-5-18-6-18-6-17-8-17-8-17-10-16-10-15-11-15-12-15-13-13-14-13-14-12-15-12-16-11-17-9-16-9-18-9-18-7-18-6-19-6-19-4-19-3-20-3-19-1-20-1-20h1z" fill="none" stroke="#000" stroke-width="26"/><text class="TextShape" transform="translate(-1480 -2282.889)"><tspan class="TextParagraph" font-size="635" font-weight="400" font-family="Arial,sans-serif"><tspan class="TextPosition" x="13276" y="3728"><tspan>1</tspan></tspan></tspan></text><path class="BoundingBox" fill="none" d="M12021 3603.111h212v406h-212z"/><path d="M12126 3621.111v191" fill="none" stroke="#000" stroke-width="35"/><path d="M12127 4008.111l-106-210h210l-104 210z"/><path class="BoundingBox" fill="none" d="M4467 4585.111h2727v2116H4467z"/><path d="M4480 4946.111v-18l2-18 2-18 4-18 4-18 5-18 6-17 7-17 8-16 9-16 9-16 10-15 12-14 11-14 13-13 13-13 14-11 14-12 15-10 16-9 16-9 16-8 17-7 17-6 18-5 18-4 18-4 18-2 18-2h2039l18 2 18 2 18 4 18 4 18 5 17 6 17 7 16 8 16 9 16 9 15 10 14 12 14 11 13 13 13 13 11 14 12 14 10 15 9 16 9 16 8 16 7 17 6 17 5 18 4 18 4 18 2 18 2 18v18l1 1392v18l-2 18-2 18-4 18-4 18-5 18-6 17-7 17-8 16-9 16-9 16-10 15-12 14-11 14-13 13-13 13-14 11-14 12-15 10-16 9-16 9-16 8-17 7-17 6-18 5-18 4-18 4-18 2-18 2h-18l-2004 1h-18l-18-2-18-2-18-4-18-4-18-5-17-6-17-7-16-8-16-9-16-9-15-10-14-12-14-11-13-13-13-13-11-14-12-14-10-15-9-16-9-16-8-16-7-17-6-17-5-18-4-18-4-18-2-18-2-18v-1411zm0-348zm2700 2089z" fill="gray"/><path d="M4480 4946.111v-18l2-18 2-18 4-18 4-18 5-18 6-17 7-17 8-16 9-16 9-16 10-15 12-14 11-14 13-13 13-13 14-11 14-12 15-10 16-9 16-9 16-8 17-7 17-6 18-5 18-4 18-4 18-2 18-2h2039l18 2 18 2 18 4 18 4 18 5 17 6 17 7 16 8 16 9 16 9 15 10 14 12 14 11 13 13 13 13 11 14 12 14 10 15 9 16 9 16 8 16 7 17 6 17 5 18 4 18 4 18 2 18 2 18v18l1 1392v18l-2 18-2 18-4 18-4 18-5 18-6 17-7 17-8 16-9 16-9 16-10 15-12 14-11 14-13 13-13 13-14 11-14 12-15 10-16 9-16 9-16 8-17 7-17 6-18 5-18 4-18 4-18 2-18 2h-18l-2004 1h-18l-18-2-18-2-18-4-18-4-18-5-17-6-17-7-16-8-16-9-16-9-15-10-14-12-14-11-13-13-13-13-11-14-12-14-10-15-9-16-9-16-8-16-7-17-6-17-5-18-4-18-4-18-2-18-2-18v-1411z" fill="none" stroke="gray" stroke-width="26"/><text class="TextShape" transform="translate(-1480 -2282.889)"><tspan font-weight="700" font-size="353" class="TextParagraph" font-family="Arial,sans-serif"><tspan y="7644" x="6450" class="TextPosition"><tspan fill="gray">Determine</tspan></tspan></tspan><tspan font-weight="700" font-size="353" class="TextParagraph" font-family="Arial,sans-serif"><tspan y="8067" x="6586" class="TextPosition"><tspan fill="gray">scope of</tspan></tspan></tspan><tspan font-weight="700" font-size="353" class="TextParagraph" font-family="Arial,sans-serif"><tspan y="8490" x="6304" class="TextPosition"><tspan fill="gray">architecture</tspan></tspan></tspan></text><path d="M4480 4946.111v-18l2-18 2-18 4-18 4-18 5-18 6-17 7-17 8-16 9-16 9-16 10-15 12-14 11-14 13-13 13-13 14-11 14-12 15-10 16-9 16-9 16-8 17-7 17-6 18-5 18-4 18-4 18-2 18-2h2039l18 2 18 2 18 4 18 4 18 5 17 6 17 7 16 8 16 9 16 9 15 10 14 12 14 11 13 13 13 13 11 14 12 14 10 15 9 16 9 16 8 16 7 17 6 17 5 18 4 18 4 18 2 18 2 18v18l1 1392v18l-2 18-2 18-4 18-4 18-5 18-6 17-7 17-8 16-9 16-9 16-10 15-12 14-11 14-13 13-13 13-14 11-14 12-15 10-16 9-16 9-16 8-17 7-17 6-18 5-18 4-18 4-18 2-18 2h-18l-2004 1h-18l-18-2-18-2-18-4-18-4-18-5-17-6-17-7-16-8-16-9-16-9-15-10-14-12-14-11-13-13-13-13-11-14-12-14-10-15-9-16-9-16-8-16-7-17-6-17-5-18-4-18-4-18-2-18-2-18v-1411zm0-348zm2700 2089z" fill="#ff9"/><path d="M4480 4946.111v-18l2-18 2-18 4-18 4-18 5-18 6-17 7-17 8-16 9-16 9-16 10-15 12-14 11-14 13-13 13-13 14-11 14-12 15-10 16-9 16-9 16-8 17-7 17-6 18-5 18-4 18-4 18-2 18-2h2039l18 2 18 2 18 4 18 4 18 5 17 6 17 7 16 8 16 9 16 9 15 10 14 12 14 11 13 13 13 13 11 14 12 14 10 15 9 16 9 16 8 16 7 17 6 17 5 18 4 18 4 18 2 18 2 18v18l1 1392v18l-2 18-2 18-4 18-4 18-5 18-6 17-7 17-8 16-9 16-9 16-10 15-12 14-11 14-13 13-13 13-14 11-14 12-15 10-16 9-16 9-16 8-17 7-17 6-18 5-18 4-18 4-18 2-18 2h-18l-2004 1h-18l-18-2-18-2-18-4-18-4-18-5-17-6-17-7-16-8-16-9-16-9-15-10-14-12-14-11-13-13-13-13-11-14-12-14-10-15-9-16-9-16-8-16-7-17-6-17-5-18-4-18-4-18-2-18-2-18v-1411z" fill="none" stroke="#000" stroke-width="26"/><text class="TextShape" transform="translate(-1480 -2282.889)"><tspan font-weight="700" font-size="353" class="TextParagraph" font-family="Arial,sans-serif"><tspan y="7644" x="6450" class="TextPosition"><tspan>Determine</tspan></tspan></tspan><tspan font-weight="700" font-size="353" class="TextParagraph" font-family="Arial,sans-serif"><tspan y="8067" x="6586" class="TextPosition"><tspan>scope of</tspan></tspan></tspan><tspan font-weight="700" font-size="353" class="TextParagraph" font-family="Arial,sans-serif"><tspan y="8490" x="6304" class="TextPosition"><tspan>architecture</tspan></tspan></tspan></text><path class="BoundingBox" fill="none" d="M5456 4002.111h748v788h-748z"/><path d="M5470 4396.111v-20l2-20 2-19 4-20 4-19 5-19 7-19 7-18 8-18 9-18 10-17 10-16 12-16 12-15 13-14 13-14 15-13 15-12 15-11 16-11 17-9 17-9 17-7 18-7 18-6 18-4 19-4 18-3 19-1 19-1 19 1 18 1 19 3 19 3 18 5 18 6 17 6 18 8 17 8 16 10 16 10 16 11 15 12 14 13 14 14 12 14 13 15 11 16 11 17 10 16 9 18 8 18 7 18 6 19 6 19 4 19 3 20 3 19 1 20 1 20v20l-2 20-2 19-4 20-4 19-6 19-6 19-7 18-8 18-9 18-10 17-11 16-11 16-12 15-13 14-14 14-14 13-15 12-15 11-16 11-17 9-17 9-17 7-18 7-18 6-18 5-19 3-18 3-19 1-19 1-19-1-19-1-18-3-19-3-18-5-18-6-18-6-17-8-17-8-17-10-16-10-15-11-15-12-15-13-13-14-13-14-12-15-12-16-11-17-9-16-9-18-9-18-7-18-6-19-6-19-4-19-3-20-3-19-1-20-1-20h1zm0-380zm720 760z" fill="red"/><path d="M5470 4396.111v-20l2-20 2-19 4-20 4-19 5-19 7-19 7-18 8-18 9-18 10-17 10-16 12-16 12-15 13-14 13-14 15-13 15-12 15-11 16-11 17-9 17-9 17-7 18-7 18-6 18-4 19-4 18-3 19-1 19-1 19 1 18 1 19 3 19 3 18 5 18 6 17 6 18 8 17 8 16 10 16 10 16 11 15 12 14 13 14 14 12 14 13 15 11 16 11 17 10 16 9 18 8 18 7 18 6 19 6 19 4 19 3 20 3 19 1 20 1 20v20l-2 20-2 19-4 20-4 19-6 19-6 19-7 18-8 18-9 18-10 17-11 16-11 16-12 15-13 14-14 14-14 13-15 12-15 11-16 11-17 9-17 9-17 7-18 7-18 6-18 5-19 3-18 3-19 1-19 1-19-1-19-1-18-3-19-3-18-5-18-6-18-6-17-8-17-8-17-10-16-10-15-11-15-12-15-13-13-14-13-14-12-15-12-16-11-17-9-16-9-18-9-18-7-18-6-19-6-19-4-19-3-20-3-19-1-20-1-20h1z" fill="none" stroke="#000" stroke-width="26"/><text class="TextShape" transform="translate(-1480 -2282.889)"><tspan font-weight="400" font-size="635" class="TextParagraph" font-family="Arial,sans-serif"><tspan y="6933" x="7134" class="TextPosition"><tspan>2</tspan></tspan></tspan></text><path class="BoundingBox" fill="none" d="M7598 4605.111h2727v2116H7598z"/><path d="M7611 4966.111v-18l2-18 2-18 4-18 4-18 5-18 6-17 7-17 8-16 9-16 9-16 10-15 12-14 11-14 13-13 13-13 14-11 14-12 15-10 16-9 16-9 16-8 17-7 17-6 18-5 18-4 18-4 18-2 18-2h2039l18 2 18 2 18 4 18 4 18 5 17 6 17 7 16 8 16 9 16 9 15 10 14 12 14 11 13 13 13 13 11 14 12 14 10 15 9 16 9 16 8 16 7 17 6 17 5 18 4 18 4 18 2 18 2 18v18l1 1392v18l-2 18-2 18-4 18-4 18-5 18-6 17-7 17-8 16-9 16-9 16-10 15-12 14-11 14-13 13-13 13-14 11-14 12-15 10-16 9-16 9-16 8-17 7-17 6-18 5-18 4-18 4-18 2-18 2h-18l-2004 1h-18l-18-2-18-2-18-4-18-4-18-5-17-6-17-7-16-8-16-9-16-9-15-10-14-12-14-11-13-13-13-13-11-14-12-14-10-15-9-16-9-16-8-16-7-17-6-17-5-18-4-18-4-18-2-18-2-18v-1411zm0-348zm2700 2089z" fill="gray"/><path d="M7611 4966.111v-18l2-18 2-18 4-18 4-18 5-18 6-17 7-17 8-16 9-16 9-16 10-15 12-14 11-14 13-13 13-13 14-11 14-12 15-10 16-9 16-9 16-8 17-7 17-6 18-5 18-4 18-4 18-2 18-2h2039l18 2 18 2 18 4 18 4 18 5 17 6 17 7 16 8 16 9 16 9 15 10 14 12 14 11 13 13 13 13 11 14 12 14 10 15 9 16 9 16 8 16 7 17 6 17 5 18 4 18 4 18 2 18 2 18v18l1 1392v18l-2 18-2 18-4 18-4 18-5 18-6 17-7 17-8 16-9 16-9 16-10 15-12 14-11 14-13 13-13 13-14 11-14 12-15 10-16 9-16 9-16 8-17 7-17 6-18 5-18 4-18 4-18 2-18 2h-18l-2004 1h-18l-18-2-18-2-18-4-18-4-18-5-17-6-17-7-16-8-16-9-16-9-15-10-14-12-14-11-13-13-13-13-11-14-12-14-10-15-9-16-9-16-8-16-7-17-6-17-5-18-4-18-4-18-2-18-2-18v-1411z" fill="none" stroke="gray" stroke-width="26"/><text class="TextShape" transform="translate(-1480 -2282.889)"><tspan class="TextParagraph" font-size="318" font-weight="700" font-family="Arial,sans-serif"><tspan class="TextPosition" x="9289" y="7311"><tspan fill="gray">Determine data</tspan></tspan></tspan><tspan class="TextParagraph" font-size="318" font-weight="700" font-family="Arial,sans-serif"><tspan class="TextPosition" x="9609" y="7692"><tspan fill="gray">required to</tspan></tspan></tspan><tspan class="TextParagraph" font-size="318" font-weight="700" font-family="Arial,sans-serif"><tspan class="TextPosition" x="9848" y="8073"><tspan fill="gray">support</tspan></tspan></tspan><tspan class="TextParagraph" font-size="318" font-weight="700" font-family="Arial,sans-serif"><tspan class="TextPosition" x="9528" y="8454"><tspan fill="gray">architecture</tspan></tspan></tspan><tspan class="TextParagraph" font-size="318" font-weight="700" font-family="Arial,sans-serif"><tspan class="TextPosition" x="9456" y="8835"><tspan fill="gray">development</tspan></tspan></tspan></text><path d="M7611 4966.111v-18l2-18 2-18 4-18 4-18 5-18 6-17 7-17 8-16 9-16 9-16 10-15 12-14 11-14 13-13 13-13 14-11 14-12 15-10 16-9 16-9 16-8 17-7 17-6 18-5 18-4 18-4 18-2 18-2h2039l18 2 18 2 18 4 18 4 18 5 17 6 17 7 16 8 16 9 16 9 15 10 14 12 14 11 13 13 13 13 11 14 12 14 10 15 9 16 9 16 8 16 7 17 6 17 5 18 4 18 4 18 2 18 2 18v18l1 1392v18l-2 18-2 18-4 18-4 18-5 18-6 17-7 17-8 16-9 16-9 16-10 15-12 14-11 14-13 13-13 13-14 11-14 12-15 10-16 9-16 9-16 8-17 7-17 6-18 5-18 4-18 4-18 2-18 2h-18l-2004 1h-18l-18-2-18-2-18-4-18-4-18-5-17-6-17-7-16-8-16-9-16-9-15-10-14-12-14-11-13-13-13-13-11-14-12-14-10-15-9-16-9-16-8-16-7-17-6-17-5-18-4-18-4-18-2-18-2-18v-1411zm0-348zm2700 2089z" fill="#ff9"/><path d="M7611 4966.111v-18l2-18 2-18 4-18 4-18 5-18 6-17 7-17 8-16 9-16 9-16 10-15 12-14 11-14 13-13 13-13 14-11 14-12 15-10 16-9 16-9 16-8 17-7 17-6 18-5 18-4 18-4 18-2 18-2h2039l18 2 18 2 18 4 18 4 18 5 17 6 17 7 16 8 16 9 16 9 15 10 14 12 14 11 13 13 13 13 11 14 12 14 10 15 9 16 9 16 8 16 7 17 6 17 5 18 4 18 4 18 2 18 2 18v18l1 1392v18l-2 18-2 18-4 18-4 18-5 18-6 17-7 17-8 16-9 16-9 16-10 15-12 14-11 14-13 13-13 13-14 11-14 12-15 10-16 9-16 9-16 8-17 7-17 6-18 5-18 4-18 4-18 2-18 2h-18l-2004 1h-18l-18-2-18-2-18-4-18-4-18-5-17-6-17-7-16-8-16-9-16-9-15-10-14-12-14-11-13-13-13-13-11-14-12-14-10-15-9-16-9-16-8-16-7-17-6-17-5-18-4-18-4-18-2-18-2-18v-1411z" fill="none" stroke="#000" stroke-width="26"/><text class="TextShape" transform="translate(-1480 -2282.889)"><tspan class="TextParagraph" font-size="318" font-weight="700" font-family="Arial,sans-serif"><tspan class="TextPosition" x="9289" y="7311"><tspan>Determine data</tspan></tspan></tspan><tspan class="TextParagraph" font-size="318" font-weight="700" font-family="Arial,sans-serif"><tspan class="TextPosition" x="9609" y="7692"><tspan>required to</tspan></tspan></tspan><tspan class="TextParagraph" font-size="318" font-weight="700" font-family="Arial,sans-serif"><tspan class="TextPosition" x="9848" y="8073"><tspan>support</tspan></tspan></tspan><tspan class="TextParagraph" font-size="318" font-weight="700" font-family="Arial,sans-serif"><tspan class="TextPosition" x="9528" y="8454"><tspan>architecture</tspan></tspan></tspan><tspan class="TextParagraph" font-size="318" font-weight="700" font-family="Arial,sans-serif"><tspan class="TextPosition" x="9456" y="8835"><tspan>development</tspan></tspan></tspan></text><path class="BoundingBox" fill="none" d="M8598 4002.111h748v788h-748z"/><path d="M8612 4396.111v-20l2-20 2-19 4-20 4-19 5-19 7-19 7-18 8-18 9-18 10-17 10-16 12-16 12-15 13-14 13-14 15-13 15-12 15-11 16-11 17-9 17-9 17-7 18-7 18-6 18-4 19-4 18-3 19-1 19-1 19 1 18 1 19 3 19 3 18 5 18 6 17 6 18 8 17 8 16 10 16 10 16 11 15 12 14 13 14 14 12 14 13 15 11 16 11 17 10 16 9 18 8 18 7 18 6 19 6 19 4 19 3 20 3 19 1 20 1 20v20l-2 20-2 19-4 20-4 19-6 19-6 19-7 18-8 18-9 18-10 17-11 16-11 16-12 15-13 14-14 14-14 13-15 12-15 11-16 11-17 9-17 9-17 7-18 7-18 6-18 5-19 3-18 3-19 1-19 1-19-1-19-1-18-3-19-3-18-5-18-6-18-6-17-8-17-8-17-10-16-10-15-11-15-12-15-13-13-14-13-14-12-15-12-16-11-17-9-16-9-18-9-18-7-18-6-19-6-19-4-19-3-20-3-19-1-20-1-20h1zm0-380zm720 760z" fill="red"/><path d="M8612 4396.111v-20l2-20 2-19 4-20 4-19 5-19 7-19 7-18 8-18 9-18 10-17 10-16 12-16 12-15 13-14 13-14 15-13 15-12 15-11 16-11 17-9 17-9 17-7 18-7 18-6 18-4 19-4 18-3 19-1 19-1 19 1 18 1 19 3 19 3 18 5 18 6 17 6 18 8 17 8 16 10 16 10 16 11 15 12 14 13 14 14 12 14 13 15 11 16 11 17 10 16 9 18 8 18 7 18 6 19 6 19 4 19 3 20 3 19 1 20 1 20v20l-2 20-2 19-4 20-4 19-6 19-6 19-7 18-8 18-9 18-10 17-11 16-11 16-12 15-13 14-14 14-14 13-15 12-15 11-16 11-17 9-17 9-17 7-18 7-18 6-18 5-19 3-18 3-19 1-19 1-19-1-19-1-18-3-19-3-18-5-18-6-18-6-17-8-17-8-17-10-16-10-15-11-15-12-15-13-13-14-13-14-12-15-12-16-11-17-9-16-9-18-9-18-7-18-6-19-6-19-4-19-3-20-3-19-1-20-1-20h1z" fill="none" stroke="#000" stroke-width="26"/><text class="TextShape" transform="translate(-1480 -2282.889)"><tspan class="TextParagraph" font-size="635" font-weight="400" font-family="Arial,sans-serif"><tspan class="TextPosition" x="10276" y="6933"><tspan>3</tspan></tspan></tspan></text><path class="BoundingBox" fill="none" d="M10796 4577.111h2728v2116h-2728z"/><path d="M10810 4938.111v-18l2-18 2-18 4-18 4-18 5-18 6-17 7-17 8-16 9-16 9-16 10-15 12-14 11-14 13-13 13-13 14-11 14-12 15-10 16-9 16-9 16-8 17-7 17-6 18-5 18-4 18-4 18-2 18-2h2039l18 2 18 2 18 4 18 4 18 5 17 6 17 7 16 8 16 9 16 9 15 10 14 12 14 11 13 13 13 13 11 14 12 14 10 15 9 16 9 16 8 16 7 17 6 17 5 18 4 18 4 18 2 18 2 18v18l1 1392v18l-2 18-2 18-4 18-4 18-5 18-6 17-7 17-8 16-9 16-9 16-10 15-12 14-11 14-13 13-13 13-14 11-14 12-15 10-16 9-16 9-16 8-17 7-17 6-18 5-18 4-18 4-18 2-18 2h-18l-2004 1h-18l-18-2-18-2-18-4-18-4-18-5-17-6-17-7-16-8-16-9-16-9-15-10-14-12-14-11-13-13-13-13-11-14-12-14-10-15-9-16-9-16-8-16-7-17-6-17-5-18-4-18-4-18-2-18-2-18v-1411zm0-348zm2700 2089z" fill="gray"/><path d="M10810 4938.111v-18l2-18 2-18 4-18 4-18 5-18 6-17 7-17 8-16 9-16 9-16 10-15 12-14 11-14 13-13 13-13 14-11 14-12 15-10 16-9 16-9 16-8 17-7 17-6 18-5 18-4 18-4 18-2 18-2h2039l18 2 18 2 18 4 18 4 18 5 17 6 17 7 16 8 16 9 16 9 15 10 14 12 14 11 13 13 13 13 11 14 12 14 10 15 9 16 9 16 8 16 7 17 6 17 5 18 4 18 4 18 2 18 2 18v18l1 1392v18l-2 18-2 18-4 18-4 18-5 18-6 17-7 17-8 16-9 16-9 16-10 15-12 14-11 14-13 13-13 13-14 11-14 12-15 10-16 9-16 9-16 8-17 7-17 6-18 5-18 4-18 4-18 2-18 2h-18l-2004 1h-18l-18-2-18-2-18-4-18-4-18-5-17-6-17-7-16-8-16-9-16-9-15-10-14-12-14-11-13-13-13-13-11-14-12-14-10-15-9-16-9-16-8-16-7-17-6-17-5-18-4-18-4-18-2-18-2-18v-1411z" fill="none" stroke="gray" stroke-width="26"/><text class="TextShape" transform="translate(-1480 -2282.889)"><tspan font-weight="700" font-size="318" class="TextParagraph" font-family="Arial,sans-serif"><tspan y="7473" x="12318" class="TextPosition"><tspan fill="gray">Collect, organize,</tspan></tspan></tspan><tspan font-weight="700" font-size="318" class="TextParagraph" font-family="Arial,sans-serif"><tspan y="7854" x="12594" class="TextPosition"><tspan fill="gray">correlate, and</tspan></tspan></tspan><tspan font-weight="700" font-size="318" class="TextParagraph" font-family="Arial,sans-serif"><tspan y="8235" x="12293" class="TextPosition"><tspan fill="gray">store architecture</tspan></tspan></tspan><tspan font-weight="700" font-size="318" class="TextParagraph" font-family="Arial,sans-serif"><tspan y="8616" x="13311" class="TextPosition"><tspan fill="gray">data</tspan></tspan></tspan></text><path d="M10810 4938.111v-18l2-18 2-18 4-18 4-18 5-18 6-17 7-17 8-16 9-16 9-16 10-15 12-14 11-14 13-13 13-13 14-11 14-12 15-10 16-9 16-9 16-8 17-7 17-6 18-5 18-4 18-4 18-2 18-2h2039l18 2 18 2 18 4 18 4 18 5 17 6 17 7 16 8 16 9 16 9 15 10 14 12 14 11 13 13 13 13 11 14 12 14 10 15 9 16 9 16 8 16 7 17 6 17 5 18 4 18 4 18 2 18 2 18v18l1 1392v18l-2 18-2 18-4 18-4 18-5 18-6 17-7 17-8 16-9 16-9 16-10 15-12 14-11 14-13 13-13 13-14 11-14 12-15 10-16 9-16 9-16 8-17 7-17 6-18 5-18 4-18 4-18 2-18 2h-18l-2004 1h-18l-18-2-18-2-18-4-18-4-18-5-17-6-17-7-16-8-16-9-16-9-15-10-14-12-14-11-13-13-13-13-11-14-12-14-10-15-9-16-9-16-8-16-7-17-6-17-5-18-4-18-4-18-2-18-2-18v-1411zm0-348zm2700 2089z" fill="#ff9"/><path d="M10810 4938.111v-18l2-18 2-18 4-18 4-18 5-18 6-17 7-17 8-16 9-16 9-16 10-15 12-14 11-14 13-13 13-13 14-11 14-12 15-10 16-9 16-9 16-8 17-7 17-6 18-5 18-4 18-4 18-2 18-2h2039l18 2 18 2 18 4 18 4 18 5 17 6 17 7 16 8 16 9 16 9 15 10 14 12 14 11 13 13 13 13 11 14 12 14 10 15 9 16 9 16 8 16 7 17 6 17 5 18 4 18 4 18 2 18 2 18v18l1 1392v18l-2 18-2 18-4 18-4 18-5 18-6 17-7 17-8 16-9 16-9 16-10 15-12 14-11 14-13 13-13 13-14 11-14 12-15 10-16 9-16 9-16 8-17 7-17 6-18 5-18 4-18 4-18 2-18 2h-18l-2004 1h-18l-18-2-18-2-18-4-18-4-18-5-17-6-17-7-16-8-16-9-16-9-15-10-14-12-14-11-13-13-13-13-11-14-12-14-10-15-9-16-9-16-8-16-7-17-6-17-5-18-4-18-4-18-2-18-2-18v-1411z" fill="none" stroke="#000" stroke-width="26"/><text class="TextShape" transform="translate(-1480 -2282.889)"><tspan font-weight="700" font-size="318" class="TextParagraph" font-family="Arial,sans-serif"><tspan y="7473" x="12318" class="TextPosition"><tspan>Collect, organize,</tspan></tspan></tspan><tspan font-weight="700" font-size="318" class="TextParagraph" font-family="Arial,sans-serif"><tspan y="7854" x="12594" class="TextPosition"><tspan>correlate, and</tspan></tspan></tspan><tspan font-weight="700" font-size="318" class="TextParagraph" font-family="Arial,sans-serif"><tspan y="8235" x="12293" class="TextPosition"><tspan>store architecture</tspan></tspan></tspan><tspan font-weight="700" font-size="318" class="TextParagraph" font-family="Arial,sans-serif"><tspan y="8616" x="13311" class="TextPosition"><tspan>data</tspan></tspan></tspan></text><path class="BoundingBox" fill="none" d="M11759 4007.111h748v787h-748z"/><path d="M11773 4400.111v-20l2-20 2-19 4-20 4-19 5-19 7-19 7-18 8-18 9-18 10-17 10-16 12-16 12-15 13-14 13-14 15-13 15-12 15-11 16-11 17-9 17-9 17-7 18-7 18-6 18-4 19-4 18-3 19-1 19-1 19 1 18 1 19 3 19 3 18 5 18 6 17 6 18 8 17 8 16 10 16 10 16 11 15 12 14 13 14 14 12 14 13 15 11 16 11 17 10 16 9 18 8 18 7 18 6 19 6 19 4 19 3 20 3 19 1 20 1 20v20l-2 20-2 19-4 20-4 19-6 19-6 19-7 18-8 18-9 18-10 17-11 16-11 16-12 15-13 14-14 14-14 13-15 12-15 11-16 11-17 9-17 9-17 7-18 7-18 6-18 5-19 3-18 3-19 1-19 1-19-1-19-1-18-3-19-3-18-5-18-6-18-6-17-8-17-8-17-10-16-10-15-11-15-12-15-13-13-14-13-14-12-15-12-16-11-17-9-16-9-18-9-18-7-18-6-19-6-19-4-19-3-20-3-19-1-20-1-20h1zm0-380zm720 760z" fill="red"/><path d="M11773 4400.111v-20l2-20 2-19 4-20 4-19 5-19 7-19 7-18 8-18 9-18 10-17 10-16 12-16 12-15 13-14 13-14 15-13 15-12 15-11 16-11 17-9 17-9 17-7 18-7 18-6 18-4 19-4 18-3 19-1 19-1 19 1 18 1 19 3 19 3 18 5 18 6 17 6 18 8 17 8 16 10 16 10 16 11 15 12 14 13 14 14 12 14 13 15 11 16 11 17 10 16 9 18 8 18 7 18 6 19 6 19 4 19 3 20 3 19 1 20 1 20v20l-2 20-2 19-4 20-4 19-6 19-6 19-7 18-8 18-9 18-10 17-11 16-11 16-12 15-13 14-14 14-14 13-15 12-15 11-16 11-17 9-17 9-17 7-18 7-18 6-18 5-19 3-18 3-19 1-19 1-19-1-19-1-18-3-19-3-18-5-18-6-18-6-17-8-17-8-17-10-16-10-15-11-15-12-15-13-13-14-13-14-12-15-12-16-11-17-9-16-9-18-9-18-7-18-6-19-6-19-4-19-3-20-3-19-1-20-1-20h1z" fill="none" stroke="#000" stroke-width="26"/><text class="TextShape" transform="translate(-1480 -2282.889)"><tspan font-weight="400" font-size="635" class="TextParagraph" font-family="Arial,sans-serif"><tspan y="6937" x="13437" class="TextPosition"><tspan>4</tspan></tspan></tspan></text><path class="BoundingBox" fill="none" d="M13947 4574.111h2727v2116h-2727z"/><path d="M13960 4935.111v-18l2-18 2-18 4-18 4-18 5-18 6-17 7-17 8-16 9-16 9-16 10-15 12-14 11-14 13-13 13-13 14-11 14-12 15-10 16-9 16-9 16-8 17-7 17-6 18-5 18-4 18-4 18-2 18-2h2039l18 2 18 2 18 4 18 4 18 5 17 6 17 7 16 8 16 9 16 9 15 10 14 12 14 11 13 13 13 13 11 14 12 14 10 15 9 16 9 16 8 16 7 17 6 17 5 18 4 18 4 18 2 18 2 18v18l1 1392v18l-2 18-2 18-4 18-4 18-5 18-6 17-7 17-8 16-9 16-9 16-10 15-12 14-11 14-13 13-13 13-14 11-14 12-15 10-16 9-16 9-16 8-17 7-17 6-18 5-18 4-18 4-18 2-18 2h-18l-2004 1h-18l-18-2-18-2-18-4-18-4-18-5-17-6-17-7-16-8-16-9-16-9-15-10-14-12-14-11-13-13-13-13-11-14-12-14-10-15-9-16-9-16-8-16-7-17-6-17-5-18-4-18-4-18-2-18-2-18v-1411zm0-348zm2700 2089z" fill="gray"/><path d="M13960 4935.111v-18l2-18 2-18 4-18 4-18 5-18 6-17 7-17 8-16 9-16 9-16 10-15 12-14 11-14 13-13 13-13 14-11 14-12 15-10 16-9 16-9 16-8 17-7 17-6 18-5 18-4 18-4 18-2 18-2h2039l18 2 18 2 18 4 18 4 18 5 17 6 17 7 16 8 16 9 16 9 15 10 14 12 14 11 13 13 13 13 11 14 12 14 10 15 9 16 9 16 8 16 7 17 6 17 5 18 4 18 4 18 2 18 2 18v18l1 1392v18l-2 18-2 18-4 18-4 18-5 18-6 17-7 17-8 16-9 16-9 16-10 15-12 14-11 14-13 13-13 13-14 11-14 12-15 10-16 9-16 9-16 8-17 7-17 6-18 5-18 4-18 4-18 2-18 2h-18l-2004 1h-18l-18-2-18-2-18-4-18-4-18-5-17-6-17-7-16-8-16-9-16-9-15-10-14-12-14-11-13-13-13-13-11-14-12-14-10-15-9-16-9-16-8-16-7-17-6-17-5-18-4-18-4-18-2-18-2-18v-1411z" fill="none" stroke="gray" stroke-width="26"/><text class="TextShape" transform="translate(-1480 -2282.889)"><tspan class="TextParagraph" font-size="318" font-weight="700" font-family="Arial,sans-serif"><tspan class="TextPosition" x="16144" y="7280"><tspan fill="gray">Conduct</tspan></tspan></tspan><tspan class="TextParagraph" font-size="318" font-weight="700" font-family="Arial,sans-serif"><tspan class="TextPosition" x="15928" y="7661"><tspan fill="gray">analyses in</tspan></tspan></tspan><tspan class="TextParagraph" font-size="318" font-weight="700" font-family="Arial,sans-serif"><tspan class="TextPosition" x="16002" y="8042"><tspan fill="gray">support of</tspan></tspan></tspan><tspan class="TextParagraph" font-size="318" font-weight="700" font-family="Arial,sans-serif"><tspan class="TextPosition" x="15833" y="8423"><tspan fill="gray">architecture</tspan></tspan></tspan><tspan class="TextParagraph" font-size="318" font-weight="700" font-family="Arial,sans-serif"><tspan class="TextPosition" x="16009" y="8804"><tspan fill="gray">objectives</tspan></tspan></tspan></text><path d="M13960 4935.111v-18l2-18 2-18 4-18 4-18 5-18 6-17 7-17 8-16 9-16 9-16 10-15 12-14 11-14 13-13 13-13 14-11 14-12 15-10 16-9 16-9 16-8 17-7 17-6 18-5 18-4 18-4 18-2 18-2h2039l18 2 18 2 18 4 18 4 18 5 17 6 17 7 16 8 16 9 16 9 15 10 14 12 14 11 13 13 13 13 11 14 12 14 10 15 9 16 9 16 8 16 7 17 6 17 5 18 4 18 4 18 2 18 2 18v18l1 1392v18l-2 18-2 18-4 18-4 18-5 18-6 17-7 17-8 16-9 16-9 16-10 15-12 14-11 14-13 13-13 13-14 11-14 12-15 10-16 9-16 9-16 8-17 7-17 6-18 5-18 4-18 4-18 2-18 2h-18l-2004 1h-18l-18-2-18-2-18-4-18-4-18-5-17-6-17-7-16-8-16-9-16-9-15-10-14-12-14-11-13-13-13-13-11-14-12-14-10-15-9-16-9-16-8-16-7-17-6-17-5-18-4-18-4-18-2-18-2-18v-1411zm0-348zm2700 2089z" fill="#ff9"/><path d="M13960 4935.111v-18l2-18 2-18 4-18 4-18 5-18 6-17 7-17 8-16 9-16 9-16 10-15 12-14 11-14 13-13 13-13 14-11 14-12 15-10 16-9 16-9 16-8 17-7 17-6 18-5 18-4 18-4 18-2 18-2h2039l18 2 18 2 18 4 18 4 18 5 17 6 17 7 16 8 16 9 16 9 15 10 14 12 14 11 13 13 13 13 11 14 12 14 10 15 9 16 9 16 8 16 7 17 6 17 5 18 4 18 4 18 2 18 2 18v18l1 1392v18l-2 18-2 18-4 18-4 18-5 18-6 17-7 17-8 16-9 16-9 16-10 15-12 14-11 14-13 13-13 13-14 11-14 12-15 10-16 9-16 9-16 8-17 7-17 6-18 5-18 4-18 4-18 2-18 2h-18l-2004 1h-18l-18-2-18-2-18-4-18-4-18-5-17-6-17-7-16-8-16-9-16-9-15-10-14-12-14-11-13-13-13-13-11-14-12-14-10-15-9-16-9-16-8-16-7-17-6-17-5-18-4-18-4-18-2-18-2-18v-1411z" fill="none" stroke="#000" stroke-width="26"/><text class="TextShape" transform="translate(-1480 -2282.889)"><tspan class="TextParagraph" font-size="318" font-weight="700" font-family="Arial,sans-serif"><tspan class="TextPosition" x="16144" y="7280"><tspan>Conduct</tspan></tspan></tspan><tspan class="TextParagraph" font-size="318" font-weight="700" font-family="Arial,sans-serif"><tspan class="TextPosition" x="15928" y="7661"><tspan>analyses in</tspan></tspan></tspan><tspan class="TextParagraph" font-size="318" font-weight="700" font-family="Arial,sans-serif"><tspan class="TextPosition" x="16002" y="8042"><tspan>support of</tspan></tspan></tspan><tspan class="TextParagraph" font-size="318" font-weight="700" font-family="Arial,sans-serif"><tspan class="TextPosition" x="15833" y="8423"><tspan>architecture</tspan></tspan></tspan><tspan class="TextParagraph" font-size="318" font-weight="700" font-family="Arial,sans-serif"><tspan class="TextPosition" x="16009" y="8804"><tspan>objectives</tspan></tspan></tspan></text><path class="BoundingBox" fill="none" d="M14913 3983.111h748v787h-748z"/><path d="M14927 4376.111v-20l2-20 2-19 4-20 4-19 5-19 7-19 7-18 8-18 9-18 10-17 10-16 12-16 12-15 13-14 13-14 15-13 15-12 15-11 16-11 17-9 17-9 17-7 18-7 18-6 18-4 19-4 18-3 19-1 19-1 19 1 18 1 19 3 19 3 18 5 18 6 17 6 18 8 17 8 16 10 16 10 16 11 15 12 14 13 14 14 12 14 13 15 11 16 11 17 10 16 9 18 8 18 7 18 6 19 6 19 4 19 3 20 3 19 1 20 1 20v20l-2 20-2 19-4 20-4 19-6 19-6 19-7 18-8 18-9 18-10 17-11 16-11 16-12 15-13 14-14 14-14 13-15 12-15 11-16 11-17 9-17 9-17 7-18 7-18 6-18 5-19 3-18 3-19 1-19 1-19-1-19-1-18-3-19-3-18-5-18-6-18-6-17-8-17-8-17-10-16-10-15-11-15-12-15-13-13-14-13-14-12-15-12-16-11-17-9-16-9-18-9-18-7-18-6-19-6-19-4-19-3-20-3-19-1-20-1-20h1zm0-380zm720 760z" fill="red"/><path d="M14927 4376.111v-20l2-20 2-19 4-20 4-19 5-19 7-19 7-18 8-18 9-18 10-17 10-16 12-16 12-15 13-14 13-14 15-13 15-12 15-11 16-11 17-9 17-9 17-7 18-7 18-6 18-4 19-4 18-3 19-1 19-1 19 1 18 1 19 3 19 3 18 5 18 6 17 6 18 8 17 8 16 10 16 10 16 11 15 12 14 13 14 14 12 14 13 15 11 16 11 17 10 16 9 18 8 18 7 18 6 19 6 19 4 19 3 20 3 19 1 20 1 20v20l-2 20-2 19-4 20-4 19-6 19-6 19-7 18-8 18-9 18-10 17-11 16-11 16-12 15-13 14-14 14-14 13-15 12-15 11-16 11-17 9-17 9-17 7-18 7-18 6-18 5-19 3-18 3-19 1-19 1-19-1-19-1-18-3-19-3-18-5-18-6-18-6-17-8-17-8-17-10-16-10-15-11-15-12-15-13-13-14-13-14-12-15-12-16-11-17-9-16-9-18-9-18-7-18-6-19-6-19-4-19-3-20-3-19-1-20-1-20h1z" fill="none" stroke="#000" stroke-width="26"/><text class="TextShape" transform="translate(-1480 -2282.889)"><tspan class="TextParagraph" font-size="635" font-weight="400" font-family="Arial,sans-serif"><tspan class="TextPosition" x="16591" y="6913"><tspan>5</tspan></tspan></tspan></text><path class="BoundingBox" fill="none" d="M17088 4617.111h2728v2116h-2728z"/><path d="M17102 4978.111v-18l2-18 2-18 4-18 4-18 5-18 6-17 7-17 8-16 9-16 9-16 10-15 12-14 11-14 13-13 13-13 14-11 14-12 15-10 16-9 16-9 16-8 17-7 17-6 18-5 18-4 18-4 18-2 18-2h2039l18 2 18 2 18 4 18 4 18 5 17 6 17 7 16 8 16 9 16 9 15 10 14 12 14 11 13 13 13 13 11 14 12 14 10 15 9 16 9 16 8 16 7 17 6 17 5 18 4 18 4 18 2 18 2 18v18l1 1392v18l-2 18-2 18-4 18-4 18-5 18-6 17-7 17-8 16-9 16-9 16-10 15-12 14-11 14-13 13-13 13-14 11-14 12-15 10-16 9-16 9-16 8-17 7-17 6-18 5-18 4-18 4-18 2-18 2h-18l-2004 1h-18l-18-2-18-2-18-4-18-4-18-5-17-6-17-7-16-8-16-9-16-9-15-10-14-12-14-11-13-13-13-13-11-14-12-14-10-15-9-16-9-16-8-16-7-17-6-17-5-18-4-18-4-18-2-18-2-18v-1411zm0-348zm2700 2089z" fill="gray"/><path d="M17102 4978.111v-18l2-18 2-18 4-18 4-18 5-18 6-17 7-17 8-16 9-16 9-16 10-15 12-14 11-14 13-13 13-13 14-11 14-12 15-10 16-9 16-9 16-8 17-7 17-6 18-5 18-4 18-4 18-2 18-2h2039l18 2 18 2 18 4 18 4 18 5 17 6 17 7 16 8 16 9 16 9 15 10 14 12 14 11 13 13 13 13 11 14 12 14 10 15 9 16 9 16 8 16 7 17 6 17 5 18 4 18 4 18 2 18 2 18v18l1 1392v18l-2 18-2 18-4 18-4 18-5 18-6 17-7 17-8 16-9 16-9 16-10 15-12 14-11 14-13 13-13 13-14 11-14 12-15 10-16 9-16 9-16 8-17 7-17 6-18 5-18 4-18 4-18 2-18 2h-18l-2004 1h-18l-18-2-18-2-18-4-18-4-18-5-17-6-17-7-16-8-16-9-16-9-15-10-14-12-14-11-13-13-13-13-11-14-12-14-10-15-9-16-9-16-8-16-7-17-6-17-5-18-4-18-4-18-2-18-2-18v-1411z" fill="none" stroke="gray" stroke-width="26"/><text class="TextShape" transform="translate(-1480 -2282.889)"><tspan class="TextParagraph" font-size="353" font-weight="700" font-family="Arial,sans-serif"><tspan class="TextPosition" x="19070" y="7464"><tspan fill="gray">Document</tspan></tspan></tspan><tspan class="TextParagraph" font-size="353" font-weight="700" font-family="Arial,sans-serif"><tspan class="TextPosition" x="18920" y="7887"><tspan fill="gray">Results IAW</tspan></tspan></tspan><tspan class="TextParagraph" font-size="353" font-weight="700" font-family="Arial,sans-serif"><tspan class="TextPosition" x="18634" y="8310"><tspan fill="gray">Decision-Maker</tspan></tspan></tspan><tspan class="TextParagraph" font-size="353" font-weight="700" font-family="Arial,sans-serif"><tspan class="TextPosition" x="19424" y="8733"><tspan fill="gray">needs</tspan></tspan></tspan></text><path d="M17102 4978.111v-18l2-18 2-18 4-18 4-18 5-18 6-17 7-17 8-16 9-16 9-16 10-15 12-14 11-14 13-13 13-13 14-11 14-12 15-10 16-9 16-9 16-8 17-7 17-6 18-5 18-4 18-4 18-2 18-2h2039l18 2 18 2 18 4 18 4 18 5 17 6 17 7 16 8 16 9 16 9 15 10 14 12 14 11 13 13 13 13 11 14 12 14 10 15 9 16 9 16 8 16 7 17 6 17 5 18 4 18 4 18 2 18 2 18v18l1 1392v18l-2 18-2 18-4 18-4 18-5 18-6 17-7 17-8 16-9 16-9 16-10 15-12 14-11 14-13 13-13 13-14 11-14 12-15 10-16 9-16 9-16 8-17 7-17 6-18 5-18 4-18 4-18 2-18 2h-18l-2004 1h-18l-18-2-18-2-18-4-18-4-18-5-17-6-17-7-16-8-16-9-16-9-15-10-14-12-14-11-13-13-13-13-11-14-12-14-10-15-9-16-9-16-8-16-7-17-6-17-5-18-4-18-4-18-2-18-2-18v-1411zm0-348zm2700 2089z" fill="#ff9"/><path d="M17102 4978.111v-18l2-18 2-18 4-18 4-18 5-18 6-17 7-17 8-16 9-16 9-16 10-15 12-14 11-14 13-13 13-13 14-11 14-12 15-10 16-9 16-9 16-8 17-7 17-6 18-5 18-4 18-4 18-2 18-2h2039l18 2 18 2 18 4 18 4 18 5 17 6 17 7 16 8 16 9 16 9 15 10 14 12 14 11 13 13 13 13 11 14 12 14 10 15 9 16 9 16 8 16 7 17 6 17 5 18 4 18 4 18 2 18 2 18v18l1 1392v18l-2 18-2 18-4 18-4 18-5 18-6 17-7 17-8 16-9 16-9 16-10 15-12 14-11 14-13 13-13 13-14 11-14 12-15 10-16 9-16 9-16 8-17 7-17 6-18 5-18 4-18 4-18 2-18 2h-18l-2004 1h-18l-18-2-18-2-18-4-18-4-18-5-17-6-17-7-16-8-16-9-16-9-15-10-14-12-14-11-13-13-13-13-11-14-12-14-10-15-9-16-9-16-8-16-7-17-6-17-5-18-4-18-4-18-2-18-2-18v-1411z" fill="none" stroke="#000" stroke-width="26"/><text class="TextShape" transform="translate(-1480 -2282.889)"><tspan class="TextParagraph" font-size="353" font-weight="700" font-family="Arial,sans-serif"><tspan class="TextPosition" x="19070" y="7464"><tspan>Document</tspan></tspan></tspan><tspan class="TextParagraph" font-size="353" font-weight="700" font-family="Arial,sans-serif"><tspan class="TextPosition" x="18920" y="7887"><tspan>Results IAW</tspan></tspan></tspan><tspan class="TextParagraph" font-size="353" font-weight="700" font-family="Arial,sans-serif"><tspan class="TextPosition" x="18634" y="8310"><tspan>Decision-Maker</tspan></tspan></tspan><tspan class="TextParagraph" font-size="353" font-weight="700" font-family="Arial,sans-serif"><tspan class="TextPosition" x="19424" y="8733"><tspan>needs</tspan></tspan></tspan></text><path class="BoundingBox" fill="none" d="M18063 4031.111h748v787h-748z"/><path d="M18077 4424.111v-20l2-20 2-19 4-20 4-19 5-19 7-19 7-18 8-18 9-18 10-17 10-16 12-16 12-15 13-14 13-14 15-13 15-12 15-11 16-11 17-9 17-9 17-7 18-7 18-6 18-4 19-4 18-3 19-1 19-1 19 1 18 1 19 3 19 3 18 5 18 6 17 6 18 8 17 8 16 10 16 10 16 11 15 12 14 13 14 14 12 14 13 15 11 16 11 17 10 16 9 18 8 18 7 18 6 19 6 19 4 19 3 20 3 19 1 20 1 20v20l-2 20-2 19-4 20-4 19-6 19-6 19-7 18-8 18-9 18-10 17-11 16-11 16-12 15-13 14-14 14-14 13-15 12-15 11-16 11-17 9-17 9-17 7-18 7-18 6-18 5-19 3-18 3-19 1-19 1-19-1-19-1-18-3-19-3-18-5-18-6-18-6-17-8-17-8-17-10-16-10-15-11-15-12-15-13-13-14-13-14-12-15-12-16-11-17-9-16-9-18-9-18-7-18-6-19-6-19-4-19-3-20-3-19-1-20-1-20h1zm0-380zm720 760z" fill="red"/><path d="M18077 4424.111v-20l2-20 2-19 4-20 4-19 5-19 7-19 7-18 8-18 9-18 10-17 10-16 12-16 12-15 13-14 13-14 15-13 15-12 15-11 16-11 17-9 17-9 17-7 18-7 18-6 18-4 19-4 18-3 19-1 19-1 19 1 18 1 19 3 19 3 18 5 18 6 17 6 18 8 17 8 16 10 16 10 16 11 15 12 14 13 14 14 12 14 13 15 11 16 11 17 10 16 9 18 8 18 7 18 6 19 6 19 4 19 3 20 3 19 1 20 1 20v20l-2 20-2 19-4 20-4 19-6 19-6 19-7 18-8 18-9 18-10 17-11 16-11 16-12 15-13 14-14 14-14 13-15 12-15 11-16 11-17 9-17 9-17 7-18 7-18 6-18 5-19 3-18 3-19 1-19 1-19-1-19-1-18-3-19-3-18-5-18-6-18-6-17-8-17-8-17-10-16-10-15-11-15-12-15-13-13-14-13-14-12-15-12-16-11-17-9-16-9-18-9-18-7-18-6-19-6-19-4-19-3-20-3-19-1-20-1-20h1z" fill="none" stroke="#000" stroke-width="26"/><text class="TextShape" transform="translate(-1480 -2282.889)"><tspan class="TextParagraph" font-size="635" font-weight="400" font-family="Arial,sans-serif"><tspan class="TextPosition" x="19741" y="6961"><tspan>6</tspan></tspan></tspan></text><path class="BoundingBox" fill="none" d="M5726 2074.111h4538v1945H5726z"/><path d="M10263 2087.111H5831v1735" fill="none" stroke="#000" stroke-width="26" stroke-linejoin="miter"/><path d="M5831 4018.111l-105-210h210l-105 210z"/><path class="BoundingBox" fill="none" d="M13593 2072.111h4951v1972h-4951z"/><path d="M13593 2085.111h4845v1762" fill="none" stroke="#000" stroke-width="26" stroke-linejoin="miter"/><path d="M18438 4043.111l-105-210h210l-105 210z"/><path class="BoundingBox" fill="none" d="M8978 3149.111h1209v28H8978z"/><path d="M10173 3162.111l-1182 1" fill="none" stroke="#000" stroke-width="26"/><path class="BoundingBox" fill="none" d="M8886 3149.111h212v864h-212z"/><path d="M8991 3162.111l1 654" fill="none" stroke="#000" stroke-width="26"/><path d="M8992 4012.111l-105-210h210l-105 210z"/><path class="BoundingBox" fill="none" d="M13580 3149.111h1725v28h-1725z"/><path d="M13593 3162.111l1698 1" fill="none" stroke="#000" stroke-width="26"/><path class="BoundingBox" fill="none" d="M15190 3149.111h212v813h-212z"/><path d="M15295 3162.111l1 603" fill="none" stroke="#000" stroke-width="26"/><path d="M15296 3961.111l-105-210h210l-105 210z"/><path class="BoundingBox" fill="none" d="M2319 10004.111h2344v1512H2319z"/><path d="M2332 10264.111v-13l1-13 2-13 2-12 3-13 4-12 4-13 5-11 6-12 6-12 7-11 7-10 8-10 8-10 9-10 10-9 10-8 10-8 10-7 12-7 11-6 12-6 11-5 13-4 12-4 13-3 12-2 13-2 13-1h1848l13 1 13 2 12 2 13 3 12 4 13 4 11 5 12 6 12 6 11 7 10 7 10 8 10 8 10 9 9 10 8 10 8 10 7 10 7 12 6 11 6 12 5 11 4 13 4 12 3 13 2 12 2 13 1 13v13l1 989v13l-1 13-2 13-2 12-3 13-4 12-4 13-5 11-6 12-6 11-7 12-7 10-8 10-8 10-9 10-10 9-10 8-10 8-10 7-11 7-12 6-12 6-11 5-13 4-12 4-13 3-12 2-13 2-13 1h-13l-1823 1h-13l-13-1-13-2-12-2-13-3-12-4-13-4-11-5-12-6-11-6-12-7-10-7-10-8-10-8-10-9-9-10-8-10-8-10-7-10-7-11-6-12-6-12-5-11-4-13-4-12-3-13-2-12-2-13-1-13v-1003zm0-247zm2317 1484z" fill="gray"/><path d="M2332 10264.111v-13l1-13 2-13 2-12 3-13 4-12 4-13 5-11 6-12 6-12 7-11 7-10 8-10 8-10 9-10 10-9 10-8 10-8 10-7 12-7 11-6 12-6 11-5 13-4 12-4 13-3 12-2 13-2 13-1h1848l13 1 13 2 12 2 13 3 12 4 13 4 11 5 12 6 12 6 11 7 10 7 10 8 10 8 10 9 9 10 8 10 8 10 7 10 7 12 6 11 6 12 5 11 4 13 4 12 3 13 2 12 2 13 1 13v13l1 989v13l-1 13-2 13-2 12-3 13-4 12-4 13-5 11-6 12-6 11-7 12-7 10-8 10-8 10-9 10-10 9-10 8-10 8-10 7-11 7-12 6-12 6-11 5-13 4-12 4-13 3-12 2-13 2-13 1h-13l-1823 1h-13l-13-1-13-2-12-2-13-3-12-4-13-4-11-5-12-6-11-6-12-7-10-7-10-8-10-8-10-9-9-10-8-10-8-10-7-10-7-11-6-12-6-12-5-11-4-13-4-12-3-13-2-12-2-13-1-13v-1003z" fill="none" stroke="gray" stroke-width="26"/><text class="TextShape" transform="translate(-1480 -2282.889)"><tspan class="TextParagraph" font-size="247" font-weight="700" font-family="Arial,sans-serif"><tspan class="TextPosition" x="3846" y="12993"><tspan fill="gray">Provide list of data </tspan></tspan></tspan><tspan class="TextParagraph" font-size="247" font-weight="700" font-family="Arial,sans-serif"><tspan class="TextPosition" x="4018" y="13289"><tspan fill="gray">needed and use </tspan></tspan></tspan><tspan class="TextParagraph" font-size="247" font-weight="700" font-family="Arial,sans-serif"><tspan class="TextPosition" x="4632" y="13585"><tspan fill="gray">cases</tspan></tspan></tspan></text><path d="M2332 10264.111v-13l1-13 2-13 2-12 3-13 4-12 4-13 5-11 6-12 6-12 7-11 7-10 8-10 8-10 9-10 10-9 10-8 10-8 10-7 12-7 11-6 12-6 11-5 13-4 12-4 13-3 12-2 13-2 13-1h1848l13 1 13 2 12 2 13 3 12 4 13 4 11 5 12 6 12 6 11 7 10 7 10 8 10 8 10 9 9 10 8 10 8 10 7 10 7 12 6 11 6 12 5 11 4 13 4 12 3 13 2 12 2 13 1 13v13l1 989v13l-1 13-2 13-2 12-3 13-4 12-4 13-5 11-6 12-6 11-7 12-7 10-8 10-8 10-9 10-10 9-10 8-10 8-10 7-11 7-12 6-12 6-11 5-13 4-12 4-13 3-12 2-13 2-13 1h-13l-1823 1h-13l-13-1-13-2-12-2-13-3-12-4-13-4-11-5-12-6-11-6-12-7-10-7-10-8-10-8-10-9-9-10-8-10-8-10-7-10-7-11-6-12-6-12-5-11-4-13-4-12-3-13-2-12-2-13-1-13v-1003zm0-247zm2317 1484z" fill="#ff9"/><path d="M2332 10264.111v-13l1-13 2-13 2-12 3-13 4-12 4-13 5-11 6-12 6-12 7-11 7-10 8-10 8-10 9-10 10-9 10-8 10-8 10-7 12-7 11-6 12-6 11-5 13-4 12-4 13-3 12-2 13-2 13-1h1848l13 1 13 2 12 2 13 3 12 4 13 4 11 5 12 6 12 6 11 7 10 7 10 8 10 8 10 9 9 10 8 10 8 10 7 10 7 12 6 11 6 12 5 11 4 13 4 12 3 13 2 12 2 13 1 13v13l1 989v13l-1 13-2 13-2 12-3 13-4 12-4 13-5 11-6 12-6 11-7 12-7 10-8 10-8 10-9 10-10 9-10 8-10 8-10 7-11 7-12 6-12 6-11 5-13 4-12 4-13 3-12 2-13 2-13 1h-13l-1823 1h-13l-13-1-13-2-12-2-13-3-12-4-13-4-11-5-12-6-11-6-12-7-10-7-10-8-10-8-10-9-9-10-8-10-8-10-7-10-7-11-6-12-6-12-5-11-4-13-4-12-3-13-2-12-2-13-1-13v-1003z" fill="none" stroke="#000" stroke-width="26"/><text class="TextShape" transform="translate(-1480 -2282.889)"><tspan class="TextParagraph" font-size="247" font-weight="700" font-family="Arial,sans-serif"><tspan class="TextPosition" x="3846" y="12993"><tspan>Provide list of data </tspan></tspan></tspan><tspan class="TextParagraph" font-size="247" font-weight="700" font-family="Arial,sans-serif"><tspan class="TextPosition" x="4018" y="13289"><tspan>needed and use </tspan></tspan></tspan><tspan class="TextParagraph" font-size="247" font-weight="700" font-family="Arial,sans-serif"><tspan class="TextPosition" x="4632" y="13585"><tspan>cases</tspan></tspan></tspan></text><path class="BoundingBox" fill="none" d="M2818 9605.111h1156v787H2818z"/><path d="M2831 9998.111l1-19 2-19 3-19 5-19 7-19 8-19 9-18 10-18 12-17 13-17 15-17 16-16 16-16 19-14 19-15 20-13 21-13 22-12 23-12 24-10 25-10 25-9 26-8 27-7 27-7 27-5 28-4 28-4 29-2 28-2h29l29 1 30 1 29 3 29 3 29 5 28 6 28 6 27 8 27 8 26 10 25 10 24 11 23 12 23 13 21 14 21 14 19 15 18 16 16 17 16 16 14 18 13 18 11 18 10 19 8 19 7 19 6 20 4 19 2 20 1 20h-1l-1 20-2 20-4 19-5 20-7 19-9 19-9 19-12 18-12 18-14 18-16 17-16 16-18 16-20 15-20 14-21 14-23 13-23 12-24 11-25 11-26 9-27 9-27 8-28 6-28 6-29 5-29 3-29 3-30 1-29 1-29-1-30-1-29-3-29-3-29-5-28-6-28-6-27-8-27-8-26-10-25-10-24-11-23-12-23-13-21-14-21-14-19-15-18-16-16-17-16-16-14-18-13-18-11-18-10-19-8-19-7-19-6-20-4-19-2-20-1-20zm0-380zm1129 760z" fill="red"/><path d="M2831 9998.111l1-19 2-19 3-19 5-19 7-19 8-19 9-18 10-18 12-17 13-17 15-17 16-16 16-16 19-14 19-15 20-13 21-13 22-12 23-12 24-10 25-10 25-9 26-8 27-7 27-7 27-5 28-4 28-4 29-2 28-2h29l29 1 30 1 29 3 29 3 29 5 28 6 28 6 27 8 27 8 26 10 25 10 24 11 23 12 23 13 21 14 21 14 19 15 18 16 16 17 16 16 14 18 13 18 11 18 10 19 8 19 7 19 6 20 4 19 2 20 1 20h-1l-1 20-2 20-4 19-5 20-7 19-9 19-9 19-12 18-12 18-14 18-16 17-16 16-18 16-20 15-20 14-21 14-23 13-23 12-24 11-25 11-26 9-27 9-27 8-28 6-28 6-29 5-29 3-29 3-30 1-29 1-29-1-30-1-29-3-29-3-29-5-28-6-28-6-27-8-27-8-26-10-25-10-24-11-23-12-23-13-21-14-21-14-19-15-18-16-16-17-16-16-14-18-13-18-11-18-10-19-8-19-7-19-6-20-4-19-2-20-1-20z" fill="none" stroke="#000" stroke-width="26"/><text class="TextShape" transform="translate(-1480 -2282.889)"><tspan class="TextParagraph" font-size="635" font-weight="400" font-family="Arial,sans-serif"><tspan class="TextPosition" x="4434" y="12535"><tspan>3.1</tspan></tspan></tspan></text><path class="BoundingBox" fill="none" d="M3530 12572.111h2051v1328H3530z"/><path d="M4555 13886.111H3543v-1301h2024v1301H4555z" fill="gray"/><path d="M4555 13886.111H3543v-1301h2024v1301H4555z" fill="none" stroke="gray" stroke-width="26" stroke-linejoin="miter"/><text class="TextShape" transform="translate(-1480 -2282.889)"><tspan class="TextParagraph" font-size="282" font-weight="700" font-family="Arial,sans-serif"><tspan class="TextPosition" x="5451" y="15294"><tspan fill="gray">Model to</tspan></tspan></tspan><tspan class="TextParagraph" font-size="282" font-weight="700" font-family="Arial,sans-serif"><tspan class="TextPosition" x="5131" y="15632"><tspan fill="gray">DM2 Concept</tspan></tspan></tspan><tspan class="TextParagraph" font-size="282" font-weight="700" font-family="Arial,sans-serif"><tspan class="TextPosition" x="5783" y="15970"><tspan fill="gray">List</tspan></tspan></tspan></text><path d="M4555 13886.111H3543v-1301h2024v1301H4555z" fill="#fc0"/><path d="M4555 13886.111H3543v-1301h2024v1301H4555z" fill="none" stroke="#000" stroke-width="26" stroke-linejoin="miter"/><text class="TextShape" transform="translate(-1480 -2282.889)"><tspan class="TextParagraph" font-size="282" font-weight="700" font-family="Arial,sans-serif"><tspan class="TextPosition" x="5451" y="15294"><tspan>Model to</tspan></tspan></tspan><tspan class="TextParagraph" font-size="282" font-weight="700" font-family="Arial,sans-serif"><tspan class="TextPosition" x="5131" y="15632"><tspan>DM2 Concept</tspan></tspan></tspan><tspan class="TextParagraph" font-size="282" font-weight="700" font-family="Arial,sans-serif"><tspan class="TextPosition" x="5783" y="15970"><tspan>List</tspan></tspan></tspan></text><path class="BoundingBox" fill="none" d="M3292 6706.111h5684v2914H3292z"/><path d="M8962 6706.111v1456H3397v1260" fill="none" stroke="#000" stroke-width="26" stroke-linejoin="miter"/><path d="M3397 9618.111l-105-210h210l-105 210z"/><path class="BoundingBox" fill="none" d="M5074 9759.111h2731v2001H5074z"/><path d="M5087 10101.111v-17l2-17 2-17 3-17 4-17 5-17 6-16 6-16 8-15 8-16 9-14 10-14 10-14 12-13 11-13 13-11 13-12 14-10 14-10 15-9 15-8 15-8 16-6 16-6 17-5 17-4 17-3 17-2 17-2h2079l17 2 17 2 17 3 17 4 17 5 16 6 16 6 15 8 16 8 14 9 14 10 14 10 13 12 13 11 11 13 12 13 10 14 10 14 9 15 8 15 8 15 6 16 6 16 5 17 4 17 3 17 2 17 2 17v17l1 1315v17l-2 17-2 17-3 17-4 17-5 17-6 16-6 16-8 15-8 15-9 15-10 14-10 14-12 13-11 13-13 11-13 12-14 10-14 10-14 9-16 8-15 8-16 6-16 6-17 5-17 4-17 3-17 2-17 2h-17l-2046 1h-17l-17-2-17-2-17-3-17-4-17-5-16-6-16-6-15-8-15-8-15-9-14-10-14-10-13-12-13-11-11-13-12-13-10-14-10-14-9-14-8-16-8-15-6-16-6-16-5-17-4-17-3-17-2-17-2-17v-1333zm0-329zm2704 1974z" fill="gray"/><path d="M5087 10101.111v-17l2-17 2-17 3-17 4-17 5-17 6-16 6-16 8-15 8-16 9-14 10-14 10-14 12-13 11-13 13-11 13-12 14-10 14-10 15-9 15-8 15-8 16-6 16-6 17-5 17-4 17-3 17-2 17-2h2079l17 2 17 2 17 3 17 4 17 5 16 6 16 6 15 8 16 8 14 9 14 10 14 10 13 12 13 11 11 13 12 13 10 14 10 14 9 15 8 15 8 15 6 16 6 16 5 17 4 17 3 17 2 17 2 17v17l1 1315v17l-2 17-2 17-3 17-4 17-5 17-6 16-6 16-8 15-8 15-9 15-10 14-10 14-12 13-11 13-13 11-13 12-14 10-14 10-14 9-16 8-15 8-16 6-16 6-17 5-17 4-17 3-17 2-17 2h-17l-2046 1h-17l-17-2-17-2-17-3-17-4-17-5-16-6-16-6-15-8-15-8-15-9-14-10-14-10-13-12-13-11-11-13-12-13-10-14-10-14-9-14-8-16-8-15-6-16-6-16-5-17-4-17-3-17-2-17-2-17v-1333z" fill="none" stroke="gray" stroke-width="26"/><text class="TextShape" transform="translate(-1480 -2282.889)"><tspan class="TextParagraph" font-size="282" font-weight="700" font-family="Arial,sans-serif"><tspan class="TextPosition" x="6932" y="12648"><tspan fill="gray">Review list of </tspan></tspan></tspan><tspan class="TextParagraph" font-size="282" font-weight="700" font-family="Arial,sans-serif"><tspan class="TextPosition" x="6779" y="12986"><tspan fill="gray">architecture data</tspan></tspan></tspan><tspan class="TextParagraph" font-size="282" font-weight="700" font-family="Arial,sans-serif"><tspan class="TextPosition" x="6782" y="13324"><tspan fill="gray">and determine if </tspan></tspan></tspan><tspan class="TextParagraph" font-size="282" font-weight="700" font-family="Arial,sans-serif"><tspan class="TextPosition" x="6807" y="13662"><tspan fill="gray">it meets the use </tspan></tspan></tspan><tspan class="TextParagraph" font-size="282" font-weight="700" font-family="Arial,sans-serif"><tspan class="TextPosition" x="7486" y="14000"><tspan fill="gray">cases</tspan></tspan></tspan></text><path d="M5087 10101.111v-17l2-17 2-17 3-17 4-17 5-17 6-16 6-16 8-15 8-16 9-14 10-14 10-14 12-13 11-13 13-11 13-12 14-10 14-10 15-9 15-8 15-8 16-6 16-6 17-5 17-4 17-3 17-2 17-2h2079l17 2 17 2 17 3 17 4 17 5 16 6 16 6 15 8 16 8 14 9 14 10 14 10 13 12 13 11 11 13 12 13 10 14 10 14 9 15 8 15 8 15 6 16 6 16 5 17 4 17 3 17 2 17 2 17v17l1 1315v17l-2 17-2 17-3 17-4 17-5 17-6 16-6 16-8 15-8 15-9 15-10 14-10 14-12 13-11 13-13 11-13 12-14 10-14 10-14 9-16 8-15 8-16 6-16 6-17 5-17 4-17 3-17 2-17 2h-17l-2046 1h-17l-17-2-17-2-17-3-17-4-17-5-16-6-16-6-15-8-15-8-15-9-14-10-14-10-13-12-13-11-11-13-12-13-10-14-10-14-9-14-8-16-8-15-6-16-6-16-5-17-4-17-3-17-2-17-2-17v-1333zm0-329zm2704 1974z" fill="#ff9"/><path d="M5087 10101.111v-17l2-17 2-17 3-17 4-17 5-17 6-16 6-16 8-15 8-16 9-14 10-14 10-14 12-13 11-13 13-11 13-12 14-10 14-10 15-9 15-8 15-8 16-6 16-6 17-5 17-4 17-3 17-2 17-2h2079l17 2 17 2 17 3 17 4 17 5 16 6 16 6 15 8 16 8 14 9 14 10 14 10 13 12 13 11 11 13 12 13 10 14 10 14 9 15 8 15 8 15 6 16 6 16 5 17 4 17 3 17 2 17 2 17v17l1 1315v17l-2 17-2 17-3 17-4 17-5 17-6 16-6 16-8 15-8 15-9 15-10 14-10 14-12 13-11 13-13 11-13 12-14 10-14 10-14 9-16 8-15 8-16 6-16 6-17 5-17 4-17 3-17 2-17 2h-17l-2046 1h-17l-17-2-17-2-17-3-17-4-17-5-16-6-16-6-15-8-15-8-15-9-14-10-14-10-13-12-13-11-11-13-12-13-10-14-10-14-9-14-8-16-8-15-6-16-6-16-5-17-4-17-3-17-2-17-2-17v-1333z" fill="none" stroke="#000" stroke-width="26"/><text class="TextShape" transform="translate(-1480 -2282.889)"><tspan class="TextParagraph" font-size="282" font-weight="700" font-family="Arial,sans-serif"><tspan class="TextPosition" x="6932" y="12648"><tspan>Review list of </tspan></tspan></tspan><tspan class="TextParagraph" font-size="282" font-weight="700" font-family="Arial,sans-serif"><tspan class="TextPosition" x="6779" y="12986"><tspan>architecture data</tspan></tspan></tspan><tspan class="TextParagraph" font-size="282" font-weight="700" font-family="Arial,sans-serif"><tspan class="TextPosition" x="6782" y="13324"><tspan>and determine if </tspan></tspan></tspan><tspan class="TextParagraph" font-size="282" font-weight="700" font-family="Arial,sans-serif"><tspan class="TextPosition" x="6807" y="13662"><tspan>it meets the use </tspan></tspan></tspan><tspan class="TextParagraph" font-size="282" font-weight="700" font-family="Arial,sans-serif"><tspan class="TextPosition" x="7486" y="14000"><tspan>cases</tspan></tspan></tspan></text><path class="BoundingBox" fill="none" d="M5863 9358.111h1156v788H5863z"/><path d="M5876 9752.111l1-19 2-19 3-19 5-19 7-19 8-19 9-18 10-18 12-17 13-17 15-17 16-16 16-16 19-14 19-15 20-13 21-13 22-12 23-12 24-10 25-10 25-9 26-8 27-7 27-7 27-5 28-4 28-4 29-2 28-2h29l29 1 30 1 29 3 29 3 29 5 28 6 28 6 27 8 27 8 26 10 25 10 24 11 23 12 23 13 21 14 21 14 19 15 18 16 16 17 16 16 14 18 13 18 11 18 10 19 8 19 7 19 6 20 4 19 2 20 1 20h-1l-1 20-2 20-4 19-5 20-7 19-9 19-9 19-12 18-12 18-14 18-16 17-16 16-18 16-20 15-20 14-21 14-23 13-23 12-24 11-25 11-26 9-27 9-27 8-28 6-28 6-29 5-29 3-29 3-30 1-29 1-29-1-30-1-29-3-29-3-29-5-28-6-28-6-27-8-27-8-26-10-25-10-24-11-23-12-23-13-21-14-21-14-19-15-18-16-16-17-16-16-14-18-13-18-11-18-10-19-8-19-7-19-6-20-4-19-2-20-1-20zm0-380zm1129 760z" fill="red"/><path d="M5876 9752.111l1-19 2-19 3-19 5-19 7-19 8-19 9-18 10-18 12-17 13-17 15-17 16-16 16-16 19-14 19-15 20-13 21-13 22-12 23-12 24-10 25-10 25-9 26-8 27-7 27-7 27-5 28-4 28-4 29-2 28-2h29l29 1 30 1 29 3 29 3 29 5 28 6 28 6 27 8 27 8 26 10 25 10 24 11 23 12 23 13 21 14 21 14 19 15 18 16 16 17 16 16 14 18 13 18 11 18 10 19 8 19 7 19 6 20 4 19 2 20 1 20h-1l-1 20-2 20-4 19-5 20-7 19-9 19-9 19-12 18-12 18-14 18-16 17-16 16-18 16-20 15-20 14-21 14-23 13-23 12-24 11-25 11-26 9-27 9-27 8-28 6-28 6-29 5-29 3-29 3-30 1-29 1-29-1-30-1-29-3-29-3-29-5-28-6-28-6-27-8-27-8-26-10-25-10-24-11-23-12-23-13-21-14-21-14-19-15-18-16-16-17-16-16-14-18-13-18-11-18-10-19-8-19-7-19-6-20-4-19-2-20-1-20z" fill="none" stroke="#000" stroke-width="26"/><text class="TextShape" transform="translate(-1480 -2282.889)"><tspan class="TextParagraph" font-size="635" font-weight="400" font-family="Arial,sans-serif"><tspan class="TextPosition" x="7479" y="12289"><tspan>3.2</tspan></tspan></tspan></text><path class="BoundingBox" fill="none" d="M6002 12512.111h2655v1442H6002z"/><path d="M7329 13940.111H6015v-1415h2628v1415H7329z" fill="gray"/><path d="M7329 13940.111H6015v-1415h2628v1415H7329z" fill="none" stroke="gray" stroke-width="26" stroke-linejoin="miter"/><text class="TextShape" transform="translate(-1480 -2282.889)"><tspan class="TextParagraph" font-size="282" font-weight="700" font-family="Arial,sans-serif"><tspan class="TextPosition" x="7701" y="15291"><tspan fill="gray">DM2 Conceptual</tspan></tspan></tspan><tspan class="TextParagraph" font-size="282" font-weight="700" font-family="Arial,sans-serif"><tspan class="TextPosition" x="7872" y="15629"><tspan fill="gray">Data Model &amp; </tspan></tspan></tspan><tspan class="TextParagraph" font-size="282" font-weight="700" font-family="Arial,sans-serif"><tspan class="TextPosition" x="7476" y="15967"><tspan fill="gray">Logical Data Model</tspan></tspan></tspan></text><path d="M7329 13940.111H6015v-1415h2628v1415H7329z" fill="#fc0"/><path d="M7329 13940.111H6015v-1415h2628v1415H7329z" fill="none" stroke="#000" stroke-width="26" stroke-linejoin="miter"/><text class="TextShape" transform="translate(-1480 -2282.889)"><tspan class="TextParagraph" font-size="282" font-weight="700" font-family="Arial,sans-serif"><tspan class="TextPosition" x="7701" y="15291"><tspan>DM2 Conceptual</tspan></tspan></tspan><tspan class="TextParagraph" font-size="282" font-weight="700" font-family="Arial,sans-serif"><tspan class="TextPosition" x="7872" y="15629"><tspan>Data Model &amp; </tspan></tspan></tspan><tspan class="TextParagraph" font-size="282" font-weight="700" font-family="Arial,sans-serif"><tspan class="TextPosition" x="7476" y="15967"><tspan>Logical Data Model</tspan></tspan></tspan></text><path class="BoundingBox" fill="none" d="M4637 10658.111h466v212h-466z"/><path d="M4650 10761.111l243 2" fill="none" stroke="#000" stroke-width="26"/><path d="M5089 10765.111l-211 103 2-210 209 107z"/><path class="BoundingBox" fill="none" d="M4542 11733.111h1914v866H4542z"/><path d="M4555 12585.111l1707-759" fill="none" stroke="#000" stroke-width="26"/><path d="M6441 11746.111l-149 181-86-192 235 11z"/><path class="BoundingBox" fill="none" d="M6428 11733.111h917v806h-917z"/><path d="M7330 12525.111l-742-650" fill="none" stroke="#000" stroke-width="26"/><path d="M6441 11746.111l227 59-138 158-89-217z"/><path class="BoundingBox" fill="none" d="M8923 9890.111h2263v1741H8923z"/><path d="M8936 10188.111v-15l2-15 2-15 2-14 4-15 4-14 5-14 6-14 6-13 7-14 8-12 8-13 10-11 9-12 10-11 11-10 12-9 11-10 13-8 13-8 13-7 13-6 14-6 14-5 14-4 15-4 14-2 15-2 15-2h1694l15 2 15 2 14 2 15 4 14 4 14 5 14 6 13 6 14 7 12 8 13 8 11 10 12 9 11 10 10 11 9 12 10 11 8 13 8 13 7 13 6 13 6 14 5 14 4 14 4 15 2 14 2 15 2 15v15l1 1142h-1v15l-2 15-1 14-3 15-4 15-4 14-5 14-6 14-6 13-7 13-8 13-8 12-9 12-10 11-10 11-11 10-11 10-12 9-12 9-13 7-13 8-13 6-14 6-14 5-14 4-15 4-15 2-14 2-15 2h-15l-1665 1v-1h-15l-15-2-14-1-15-3-15-4-14-4-14-5-14-6-13-6-13-7-13-8-12-8-12-9-11-10-11-10-10-11-10-11-9-12-9-12-7-13-8-13-6-13-6-14-5-14-4-14-4-15-2-15-2-14-2-15v-1158zm0-285zm2235 1713z" fill="gray"/><path d="M8936 10188.111v-15l2-15 2-15 2-14 4-15 4-14 5-14 6-14 6-13 7-14 8-12 8-13 10-11 9-12 10-11 11-10 12-9 11-10 13-8 13-8 13-7 13-6 14-6 14-5 14-4 15-4 14-2 15-2 15-2h1694l15 2 15 2 14 2 15 4 14 4 14 5 14 6 13 6 14 7 12 8 13 8 11 10 12 9 11 10 10 11 9 12 10 11 8 13 8 13 7 13 6 13 6 14 5 14 4 14 4 15 2 14 2 15 2 15v15l1 1142h-1v15l-2 15-1 14-3 15-4 15-4 14-5 14-6 14-6 13-7 13-8 13-8 12-9 12-10 11-10 11-11 10-11 10-12 9-12 9-13 7-13 8-13 6-14 6-14 5-14 4-15 4-15 2-14 2-15 2h-15l-1665 1v-1h-15l-15-2-14-1-15-3-15-4-14-4-14-5-14-6-13-6-13-7-13-8-12-8-12-9-11-10-11-10-10-11-10-11-9-12-9-12-7-13-8-13-6-13-6-14-5-14-4-14-4-15-2-15-2-14-2-15v-1158z" fill="none" stroke="gray" stroke-width="26"/><text class="TextShape" transform="translate(-1480 -2282.889)"><tspan class="TextParagraph" font-size="282" font-weight="700" font-family="Arial,sans-serif"><tspan class="TextPosition" x="10493" y="12817"><tspan fill="gray">Assist with the </tspan></tspan></tspan><tspan class="TextParagraph" font-size="282" font-weight="700" font-family="Arial,sans-serif"><tspan class="TextPosition" x="10807" y="13155"><tspan fill="gray">Architects</tspan></tspan></tspan><tspan class="TextParagraph" font-size="282" font-weight="700" font-family="Arial,sans-serif"><tspan class="TextPosition" x="10540" y="13493"><tspan fill="gray">data collection</tspan></tspan></tspan><tspan class="TextParagraph" font-size="282" font-weight="700" font-family="Arial,sans-serif"><tspan class="TextPosition" x="10794" y="13831"><tspan fill="gray">processes</tspan></tspan></tspan></text><path d="M8936 10188.111v-15l2-15 2-15 2-14 4-15 4-14 5-14 6-14 6-13 7-14 8-12 8-13 10-11 9-12 10-11 11-10 12-9 11-10 13-8 13-8 13-7 13-6 14-6 14-5 14-4 15-4 14-2 15-2 15-2h1694l15 2 15 2 14 2 15 4 14 4 14 5 14 6 13 6 14 7 12 8 13 8 11 10 12 9 11 10 10 11 9 12 10 11 8 13 8 13 7 13 6 13 6 14 5 14 4 14 4 15 2 14 2 15 2 15v15l1 1142h-1v15l-2 15-1 14-3 15-4 15-4 14-5 14-6 14-6 13-7 13-8 13-8 12-9 12-10 11-10 11-11 10-11 10-12 9-12 9-13 7-13 8-13 6-14 6-14 5-14 4-15 4-15 2-14 2-15 2h-15l-1665 1v-1h-15l-15-2-14-1-15-3-15-4-14-4-14-5-14-6-13-6-13-7-13-8-12-8-12-9-11-10-11-10-10-11-10-11-9-12-9-12-7-13-8-13-6-13-6-14-5-14-4-14-4-15-2-15-2-14-2-15v-1158zm0-285zm2235 1713z" fill="#ff9"/><path d="M8936 10188.111v-15l2-15 2-15 2-14 4-15 4-14 5-14 6-14 6-13 7-14 8-12 8-13 10-11 9-12 10-11 11-10 12-9 11-10 13-8 13-8 13-7 13-6 14-6 14-5 14-4 15-4 14-2 15-2 15-2h1694l15 2 15 2 14 2 15 4 14 4 14 5 14 6 13 6 14 7 12 8 13 8 11 10 12 9 11 10 10 11 9 12 10 11 8 13 8 13 7 13 6 13 6 14 5 14 4 14 4 15 2 14 2 15 2 15v15l1 1142h-1v15l-2 15-1 14-3 15-4 15-4 14-5 14-6 14-6 13-7 13-8 13-8 12-9 12-10 11-10 11-11 10-11 10-12 9-12 9-13 7-13 8-13 6-14 6-14 5-14 4-15 4-15 2-14 2-15 2h-15l-1665 1v-1h-15l-15-2-14-1-15-3-15-4-14-4-14-5-14-6-13-6-13-7-13-8-12-8-12-9-11-10-11-10-10-11-10-11-9-12-9-12-7-13-8-13-6-13-6-14-5-14-4-14-4-15-2-15-2-14-2-15v-1158z" fill="none" stroke="#000" stroke-width="26"/><text class="TextShape" transform="translate(-1480 -2282.889)"><tspan class="TextParagraph" font-size="282" font-weight="700" font-family="Arial,sans-serif"><tspan class="TextPosition" x="10493" y="12817"><tspan>Assist with the </tspan></tspan></tspan><tspan class="TextParagraph" font-size="282" font-weight="700" font-family="Arial,sans-serif"><tspan class="TextPosition" x="10807" y="13155"><tspan>Architects</tspan></tspan></tspan><tspan class="TextParagraph" font-size="282" font-weight="700" font-family="Arial,sans-serif"><tspan class="TextPosition" x="10540" y="13493"><tspan>data collection</tspan></tspan></tspan><tspan class="TextParagraph" font-size="282" font-weight="700" font-family="Arial,sans-serif"><tspan class="TextPosition" x="10794" y="13831"><tspan>processes</tspan></tspan></tspan></text><path class="BoundingBox" fill="none" d="M9451 9494.111h1156v787H9451z"/><path d="M9464 9887.111l1-19 2-19 3-19 5-19 7-19 8-19 9-18 10-18 12-17 13-17 15-17 16-16 16-16 19-14 19-15 20-13 21-13 22-12 23-12 24-10 25-10 25-9 26-8 27-7 27-7 27-5 28-4 28-4 29-2 28-2h29l29 1 30 1 29 3 29 3 29 5 28 6 28 6 27 8 27 8 26 10 25 10 24 11 23 12 23 13 21 14 21 14 19 15 18 16 16 17 16 16 14 18 13 18 11 18 10 19 8 19 7 19 6 20 4 19 2 20 1 20h-1l-1 20-2 20-4 19-5 20-7 19-9 19-9 19-12 18-12 18-14 18-16 17-16 16-18 16-20 15-20 14-21 14-23 13-23 12-24 11-25 11-26 9-27 9-27 8-28 6-28 6-29 5-29 3-29 3-30 1-29 1-29-1-30-1-29-3-29-3-29-5-28-6-28-6-27-8-27-8-26-10-25-10-24-11-23-12-23-13-21-14-21-14-19-15-18-16-16-17-16-16-14-18-13-18-11-18-10-19-8-19-7-19-6-20-4-19-2-20-1-20zm0-380zm1129 760z" fill="red"/><path d="M9464 9887.111l1-19 2-19 3-19 5-19 7-19 8-19 9-18 10-18 12-17 13-17 15-17 16-16 16-16 19-14 19-15 20-13 21-13 22-12 23-12 24-10 25-10 25-9 26-8 27-7 27-7 27-5 28-4 28-4 29-2 28-2h29l29 1 30 1 29 3 29 3 29 5 28 6 28 6 27 8 27 8 26 10 25 10 24 11 23 12 23 13 21 14 21 14 19 15 18 16 16 17 16 16 14 18 13 18 11 18 10 19 8 19 7 19 6 20 4 19 2 20 1 20h-1l-1 20-2 20-4 19-5 20-7 19-9 19-9 19-12 18-12 18-14 18-16 17-16 16-18 16-20 15-20 14-21 14-23 13-23 12-24 11-25 11-26 9-27 9-27 8-28 6-28 6-29 5-29 3-29 3-30 1-29 1-29-1-30-1-29-3-29-3-29-5-28-6-28-6-27-8-27-8-26-10-25-10-24-11-23-12-23-13-21-14-21-14-19-15-18-16-16-17-16-16-14-18-13-18-11-18-10-19-8-19-7-19-6-20-4-19-2-20-1-20z" fill="none" stroke="#000" stroke-width="26"/><text class="TextShape" transform="translate(-1480 -2282.889)"><tspan class="TextParagraph" font-size="635" font-weight="400" font-family="Arial,sans-serif"><tspan class="TextPosition" x="11067" y="12424"><tspan>4.1</tspan></tspan></tspan></text><path class="BoundingBox" fill="none" d="M7778 10659.111h1171v212H7778z"/><path d="M7791 10761.111l948 3" fill="none" stroke="#000" stroke-width="26"/><path d="M8935 10765.111l-210 104v-210l210 106z"/><path class="BoundingBox" fill="none" d="M9755 7632.111h1811v1415H9755z"/><path d="M10660 9033.111h-892v-1388h1784v1388h-892z" fill="gray"/><path d="M10660 9033.111h-892v-1388h1784v1388h-892z" fill="none" stroke="gray" stroke-width="26" stroke-linejoin="miter"/><text class="TextShape" transform="translate(-1480 -2282.889)"><tspan class="TextParagraph" font-size="282" font-weight="700" font-family="Arial,sans-serif"><tspan class="TextPosition" x="11675" y="10398"><tspan fill="gray">List of </tspan></tspan></tspan><tspan class="TextParagraph" font-size="282" font-weight="700" font-family="Arial,sans-serif"><tspan class="TextPosition" x="11291" y="10736"><tspan fill="gray">architecture </tspan></tspan></tspan><tspan class="TextParagraph" font-size="282" font-weight="700" font-family="Arial,sans-serif"><tspan class="TextPosition" x="11810" y="11074"><tspan fill="gray">data</tspan></tspan></tspan></text><path d="M10660 9033.111h-892v-1388h1784v1388h-892z" fill="#fc0"/><path d="M10660 9033.111h-892v-1388h1784v1388h-892z" fill="none" stroke="#000" stroke-width="26" stroke-linejoin="miter"/><text class="TextShape" transform="translate(-1480 -2282.889)"><tspan class="TextParagraph" font-size="282" font-weight="700" font-family="Arial,sans-serif"><tspan class="TextPosition" x="11675" y="10398"><tspan>List of </tspan></tspan></tspan><tspan class="TextParagraph" font-size="282" font-weight="700" font-family="Arial,sans-serif"><tspan class="TextPosition" x="11291" y="10736"><tspan>architecture </tspan></tspan></tspan><tspan class="TextParagraph" font-size="282" font-weight="700" font-family="Arial,sans-serif"><tspan class="TextPosition" x="11810" y="11074"><tspan>data</tspan></tspan></tspan></text><path class="BoundingBox" fill="none" d="M10647 6665.111h1527v992h-1527z"/><path d="M10660 7643.111l1335-859" fill="none" stroke="#000" stroke-width="26"/><path d="M12160 6678.111l-120 202-113-177 233-25z"/><path class="BoundingBox" fill="none" d="M9155 12628.111h1807v1209H9155z"/><path d="M10058 13823.111h-890v-1182h1780v1182h-890z" fill="gray"/><path d="M10058 13823.111h-890v-1182h1780v1182h-890z" fill="none" stroke="gray" stroke-width="26" stroke-linejoin="miter"/><text class="TextShape" transform="translate(-1480 -2282.889)"><tspan class="TextParagraph" font-size="282" font-weight="700" font-family="Arial,sans-serif"><tspan class="TextPosition" x="10939" y="15291"><tspan fill="gray">Potential</tspan></tspan></tspan><tspan class="TextParagraph" font-size="282" font-weight="700" font-family="Arial,sans-serif"><tspan class="TextPosition" x="10852" y="15629"><tspan fill="gray">Collection</tspan></tspan></tspan><tspan class="TextParagraph" font-size="282" font-weight="700" font-family="Arial,sans-serif"><tspan class="TextPosition" x="10956" y="15967"><tspan fill="gray">Methods</tspan></tspan></tspan></text><path d="M10058 13823.111h-890v-1182h1780v1182h-890z" fill="#fc0"/><path d="M10058 13823.111h-890v-1182h1780v1182h-890z" fill="none" stroke="#000" stroke-width="26" stroke-linejoin="miter"/><text class="TextShape" transform="translate(-1480 -2282.889)"><tspan class="TextParagraph" font-size="282" font-weight="700" font-family="Arial,sans-serif"><tspan class="TextPosition" x="10939" y="15291"><tspan>Potential</tspan></tspan></tspan><tspan class="TextParagraph" font-size="282" font-weight="700" font-family="Arial,sans-serif"><tspan class="TextPosition" x="10852" y="15629"><tspan>Collection</tspan></tspan></tspan><tspan class="TextParagraph" font-size="282" font-weight="700" font-family="Arial,sans-serif"><tspan class="TextPosition" x="10956" y="15967"><tspan>Methods</tspan></tspan></tspan></text><path class="BoundingBox" fill="none" d="M11866 7817.111h1751v1039h-1751z"/><path d="M12741 8842.111h-862v-1012h1724v1012h-862z" fill="gray"/><path d="M12741 8842.111h-862v-1012h1724v1012h-862z" fill="none" stroke="gray" stroke-width="26" stroke-linejoin="miter"/><text class="TextShape" transform="translate(-1480 -2282.889)"><tspan class="TextParagraph" font-size="282" font-weight="700" font-family="Arial,sans-serif"><tspan class="TextPosition" x="13639" y="10395"><tspan fill="gray">Selected</tspan></tspan></tspan><tspan class="TextParagraph" font-size="282" font-weight="700" font-family="Arial,sans-serif"><tspan class="TextPosition" x="13535" y="10733"><tspan fill="gray">Collection</tspan></tspan></tspan><tspan class="TextParagraph" font-size="282" font-weight="700" font-family="Arial,sans-serif"><tspan class="TextPosition" x="13639" y="11071"><tspan fill="gray">Methods</tspan></tspan></tspan></text><path d="M12741 8842.111h-862v-1012h1724v1012h-862z" fill="#fc0"/><path d="M12741 8842.111h-862v-1012h1724v1012h-862z" fill="none" stroke="#000" stroke-width="26" stroke-linejoin="miter"/><text class="TextShape" transform="translate(-1480 -2282.889)"><tspan class="TextParagraph" font-size="282" font-weight="700" font-family="Arial,sans-serif"><tspan class="TextPosition" x="13639" y="10395"><tspan>Selected</tspan></tspan></tspan><tspan class="TextParagraph" font-size="282" font-weight="700" font-family="Arial,sans-serif"><tspan class="TextPosition" x="13535" y="10733"><tspan>Collection</tspan></tspan></tspan><tspan class="TextParagraph" font-size="282" font-weight="700" font-family="Arial,sans-serif"><tspan class="TextPosition" x="13639" y="11071"><tspan>Methods</tspan></tspan></tspan></text><path class="BoundingBox" fill="none" d="M9948 11602.111h212v1052h-212z"/><path d="M10059 12640.111l-6-829" fill="none" stroke="#000" stroke-width="26"/><path d="M10052 11615.111l106 209-210 2 104-211z"/><path class="BoundingBox" fill="none" d="M13192 8819.111h212v1078h-212z"/><path d="M13304 9883.111l-7-868" fill="none" stroke="#000" stroke-width="26"/><path d="M13296 8819.111l107 209-210 2 103-211z"/><path class="BoundingBox" fill="none" d="M12147 6665.111h608v1178h-608z"/><path d="M12741 7829.111l-493-976" fill="none" stroke="#000" stroke-width="26"/><path d="M12160 6678.111l188 140-187 95-1-235z"/><path class="BoundingBox" fill="none" d="M12939 9906.111h2206v1708h-2206z"/><path d="M12952 10199.111v-15l2-14 1-15 3-14 4-14 4-15 5-13 5-14 7-13 7-13 7-12 8-13 9-11 10-11 10-11 11-10 11-10 11-9 13-8 12-7 13-7 13-7 14-5 13-5 15-4 14-4 14-3 15-1 14-2h1648l14 2 15 1 14 3 14 4 15 4 13 5 14 5 13 7 13 7 12 7 13 8 11 9 11 10 11 10 10 11 10 11 9 11 8 13 7 12 7 13 7 13 5 14 5 13 4 15 4 14 3 14 1 15 2 14v15l1 1120v15l-2 14-1 15-3 14-4 14-4 15-5 13-5 14-7 13-7 13-7 12-8 13-9 11-10 11-10 11-11 10-11 10-11 9-13 8-12 7-13 7-13 7-14 5-13 5-15 4-14 4-14 3-15 1-14 2h-15l-1619 1h-15l-14-2-15-1-14-3-14-4-15-4-13-5-14-5-13-7-13-7-12-7-13-8-11-9-11-10-11-10-10-11-10-11-9-11-8-13-7-12-7-13-7-13-5-14-5-13-4-15-4-14-3-14-1-15-2-14v-1136zm0-280zm2179 1681z" fill="gray"/><path d="M12952 10199.111v-15l2-14 1-15 3-14 4-14 4-15 5-13 5-14 7-13 7-13 7-12 8-13 9-11 10-11 10-11 11-10 11-10 11-9 13-8 12-7 13-7 13-7 14-5 13-5 15-4 14-4 14-3 15-1 14-2h1648l14 2 15 1 14 3 14 4 15 4 13 5 14 5 13 7 13 7 12 7 13 8 11 9 11 10 11 10 10 11 10 11 9 11 8 13 7 12 7 13 7 13 5 14 5 13 4 15 4 14 3 14 1 15 2 14v15l1 1120v15l-2 14-1 15-3 14-4 14-4 15-5 13-5 14-7 13-7 13-7 12-8 13-9 11-10 11-10 11-11 10-11 10-11 9-13 8-12 7-13 7-13 7-14 5-13 5-15 4-14 4-14 3-15 1-14 2h-15l-1619 1h-15l-14-2-15-1-14-3-14-4-15-4-13-5-14-5-13-7-13-7-12-7-13-8-11-9-11-10-11-10-10-11-10-11-9-11-8-13-7-12-7-13-7-13-5-14-5-13-4-15-4-14-3-14-1-15-2-14v-1136z" fill="none" stroke="gray" stroke-width="26"/><text class="TextShape" transform="translate(-1480 -2282.889)"><tspan class="TextParagraph" font-size="282" font-weight="700" font-family="Arial,sans-serif"><tspan class="TextPosition" x="14553" y="12817"><tspan fill="gray">Verify the data</tspan></tspan></tspan><tspan class="TextParagraph" font-size="282" font-weight="700" font-family="Arial,sans-serif"><tspan class="TextPosition" x="14458" y="13155"><tspan fill="gray">collected meets</tspan></tspan></tspan><tspan class="TextParagraph" font-size="282" font-weight="700" font-family="Arial,sans-serif"><tspan class="TextPosition" x="14553" y="13493"><tspan fill="gray">the use cases</tspan></tspan></tspan></text><path d="M12952 10199.111v-15l2-14 1-15 3-14 4-14 4-15 5-13 5-14 7-13 7-13 7-12 8-13 9-11 10-11 10-11 11-10 11-10 11-9 13-8 12-7 13-7 13-7 14-5 13-5 15-4 14-4 14-3 15-1 14-2h1648l14 2 15 1 14 3 14 4 15 4 13 5 14 5 13 7 13 7 12 7 13 8 11 9 11 10 11 10 10 11 10 11 9 11 8 13 7 12 7 13 7 13 5 14 5 13 4 15 4 14 3 14 1 15 2 14v15l1 1120v15l-2 14-1 15-3 14-4 14-4 15-5 13-5 14-7 13-7 13-7 12-8 13-9 11-10 11-10 11-11 10-11 10-11 9-13 8-12 7-13 7-13 7-14 5-13 5-15 4-14 4-14 3-15 1-14 2h-15l-1619 1h-15l-14-2-15-1-14-3-14-4-15-4-13-5-14-5-13-7-13-7-12-7-13-8-11-9-11-10-11-10-10-11-10-11-9-11-8-13-7-12-7-13-7-13-5-14-5-13-4-15-4-14-3-14-1-15-2-14v-1136zm0-280zm2179 1681z" fill="#ff9"/><path d="M12952 10199.111v-15l2-14 1-15 3-14 4-14 4-15 5-13 5-14 7-13 7-13 7-12 8-13 9-11 10-11 10-11 11-10 11-10 11-9 13-8 12-7 13-7 13-7 14-5 13-5 15-4 14-4 14-3 15-1 14-2h1648l14 2 15 1 14 3 14 4 15 4 13 5 14 5 13 7 13 7 12 7 13 8 11 9 11 10 11 10 10 11 10 11 9 11 8 13 7 12 7 13 7 13 5 14 5 13 4 15 4 14 3 14 1 15 2 14v15l1 1120v15l-2 14-1 15-3 14-4 14-4 15-5 13-5 14-7 13-7 13-7 12-8 13-9 11-10 11-10 11-11 10-11 10-11 9-13 8-12 7-13 7-13 7-14 5-13 5-15 4-14 4-14 3-15 1-14 2h-15l-1619 1h-15l-14-2-15-1-14-3-14-4-15-4-13-5-14-5-13-7-13-7-12-7-13-8-11-9-11-10-11-10-10-11-10-11-9-11-8-13-7-12-7-13-7-13-5-14-5-13-4-15-4-14-3-14-1-15-2-14v-1136z" fill="none" stroke="#000" stroke-width="26"/><text class="TextShape" transform="translate(-1480 -2282.889)"><tspan class="TextParagraph" font-size="282" font-weight="700" font-family="Arial,sans-serif"><tspan class="TextPosition" x="14553" y="12817"><tspan>Verify the data</tspan></tspan></tspan><tspan class="TextParagraph" font-size="282" font-weight="700" font-family="Arial,sans-serif"><tspan class="TextPosition" x="14458" y="13155"><tspan>collected meets</tspan></tspan></tspan><tspan class="TextParagraph" font-size="282" font-weight="700" font-family="Arial,sans-serif"><tspan class="TextPosition" x="14553" y="13493"><tspan>the use cases</tspan></tspan></tspan></text><path class="BoundingBox" fill="none" d="M13494 9442.111h1156v788h-1156z"/><path d="M13507 9835.111l1-19 2-19 3-19 5-19 7-19 8-19 9-18 10-18 12-17 13-17 15-17 16-16 16-16 19-14 19-15 20-13 21-13 22-12 23-12 24-10 25-10 25-9 26-8 27-7 27-7 27-5 28-4 28-4 29-2 28-2h29l29 1 30 1 29 3 29 3 29 5 28 6 28 6 27 8 27 8 26 10 25 10 24 11 23 12 23 13 21 14 21 14 19 15 18 16 16 17 16 16 14 18 13 18 11 18 10 19 8 19 7 19 6 20 4 19 2 20 1 20h-1l-1 20-2 20-4 19-5 20-7 19-9 19-9 19-12 18-12 18-14 18-16 17-16 16-18 16-20 15-20 14-21 14-23 13-23 12-24 11-25 11-26 9-27 9-27 8-28 6-28 6-29 5-29 3-29 3-30 1-29 1-29-1-30-1-29-3-29-3-29-5-28-6-28-6-27-8-27-8-26-10-25-10-24-11-23-12-23-13-21-14-21-14-19-15-18-16-16-17-16-16-14-18-13-18-11-18-10-19-8-19-7-19-6-20-4-19-2-20-1-20zm0-380zm1129 760z" fill="red"/><path d="M13507 9835.111l1-19 2-19 3-19 5-19 7-19 8-19 9-18 10-18 12-17 13-17 15-17 16-16 16-16 19-14 19-15 20-13 21-13 22-12 23-12 24-10 25-10 25-9 26-8 27-7 27-7 27-5 28-4 28-4 29-2 28-2h29l29 1 30 1 29 3 29 3 29 5 28 6 28 6 27 8 27 8 26 10 25 10 24 11 23 12 23 13 21 14 21 14 19 15 18 16 16 17 16 16 14 18 13 18 11 18 10 19 8 19 7 19 6 20 4 19 2 20 1 20h-1l-1 20-2 20-4 19-5 20-7 19-9 19-9 19-12 18-12 18-14 18-16 17-16 16-18 16-20 15-20 14-21 14-23 13-23 12-24 11-25 11-26 9-27 9-27 8-28 6-28 6-29 5-29 3-29 3-30 1-29 1-29-1-30-1-29-3-29-3-29-5-28-6-28-6-27-8-27-8-26-10-25-10-24-11-23-12-23-13-21-14-21-14-19-15-18-16-16-17-16-16-14-18-13-18-11-18-10-19-8-19-7-19-6-20-4-19-2-20-1-20z" fill="none" stroke="#000" stroke-width="26"/><text class="TextShape" transform="translate(-1480 -2282.889)"><tspan class="TextParagraph" font-size="635" font-weight="400" font-family="Arial,sans-serif"><tspan class="TextPosition" x="15110" y="12372"><tspan>5.1</tspan></tspan></tspan></text><path class="BoundingBox" fill="none" d="M11158 10659.111h1809v212h-1809z"/><path d="M11171 10761.111l1585 4" fill="none" stroke="#000" stroke-width="26"/><path d="M12952 10765.111l-210 105v-210l210 105z"/><path class="BoundingBox" fill="none" d="M12871 12628.111h1807v1209h-1807z"/><path d="M13774 13823.111h-890v-1182h1780v1182h-890z" fill="gray"/><path d="M13774 13823.111h-890v-1182h1780v1182h-890z" fill="none" stroke="gray" stroke-width="26" stroke-linejoin="miter"/><text class="TextShape" transform="translate(-1480 -2282.889)"><tspan class="TextParagraph" font-size="282" font-weight="700" font-family="Arial,sans-serif"><tspan class="TextPosition" x="14671" y="15460"><tspan fill="gray">Example</tspan></tspan></tspan><tspan class="TextParagraph" font-size="282" font-weight="700" font-family="Arial,sans-serif"><tspan class="TextPosition" x="14918" y="15798"><tspan fill="gray">Uses</tspan></tspan></tspan></text><path d="M13774 13823.111h-890v-1182h1780v1182h-890z" fill="#fc0"/><path d="M13774 13823.111h-890v-1182h1780v1182h-890z" fill="none" stroke="#000" stroke-width="26" stroke-linejoin="miter"/><text class="TextShape" transform="translate(-1480 -2282.889)"><tspan class="TextParagraph" font-size="282" font-weight="700" font-family="Arial,sans-serif"><tspan class="TextPosition" x="14671" y="15460"><tspan>Example</tspan></tspan></tspan><tspan class="TextParagraph" font-size="282" font-weight="700" font-family="Arial,sans-serif"><tspan class="TextPosition" x="14918" y="15798"><tspan>Uses</tspan></tspan></tspan></text><path class="BoundingBox" fill="none" d="M13842 7797.111h2007v1082h-2007z"/><path d="M14845 8865.111h-960v-1055h1919v1055h-959z" fill="gray"/><path d="M14845 8865.111h-960v-1055h1919v1055h-959z" fill="none" stroke="gray" stroke-width="26" stroke-linejoin="miter"/><text class="TextShape" transform="translate(-1480 -2282.889)"><tspan class="TextParagraph" font-size="282" font-weight="700" font-family="Arial,sans-serif"><tspan class="TextPosition" x="15302" y="10565"><tspan fill="gray">Fit-for-Purpose</tspan></tspan></tspan><tspan class="TextParagraph" font-size="282" font-weight="700" font-family="Arial,sans-serif"><tspan class="TextPosition" x="16067" y="10903"><tspan fill="gray">Use</tspan></tspan></tspan></text><path d="M14845 8865.111h-960v-1055h1919v1055h-959z" fill="#fc0"/><path d="M14845 8865.111h-960v-1055h1919v1055h-959z" fill="none" stroke="#000" stroke-width="26" stroke-linejoin="miter"/><text class="TextShape" transform="translate(-1480 -2282.889)"><tspan class="TextParagraph" font-size="282" font-weight="700" font-family="Arial,sans-serif"><tspan class="TextPosition" x="15302" y="10565"><tspan>Fit-for-Purpose</tspan></tspan></tspan><tspan class="TextParagraph" font-size="282" font-weight="700" font-family="Arial,sans-serif"><tspan class="TextPosition" x="16067" y="10903"><tspan>Use</tspan></tspan></tspan></text><path class="BoundingBox" fill="none" d="M14751 8874.111h212v1023h-212z"/><path d="M14856 9883.111l1-813" fill="none" stroke="#000" stroke-width="26"/><path d="M14857 8874.111l105 210h-210l105-210z"/><path class="BoundingBox" fill="none" d="M14832 6661.111h497v1162h-497z"/><path d="M14845 7809.111l391-954" fill="none" stroke="#000" stroke-width="26"/><path d="M15310 6674.111l18 234-195-79 177-155z"/><path class="BoundingBox" fill="none" d="M16789 9906.111h2252v1708h-2252z"/><path d="M16848 10199.111v-15l2-14 1-15 3-14 4-14 4-15 5-13 5-14 7-13 7-13 7-12 8-13 9-11 10-11 10-11 11-10 11-10 11-9 13-8 12-7 13-7 13-7 14-5 13-5 15-4 14-4 14-3 15-1 14-2h1648l14 2 15 1 14 3 14 4 15 4 13 5 14 5 13 7 13 7 12 7 13 8 11 9 11 10 11 10 10 11 10 11 9 11 8 13 7 12 7 13 7 13 5 14 5 13 4 15 4 14 3 14 1 15 2 14v15l1 1120v15l-2 14-1 15-3 14-4 14-4 15-5 13-5 14-7 13-7 13-7 12-8 13-9 11-10 11-10 11-11 10-11 10-11 9-13 8-12 7-13 7-13 7-14 5-13 5-15 4-14 4-14 3-15 1-14 2h-15l-1619 1h-15l-14-2-15-1-14-3-14-4-15-4-13-5-14-5-13-7-13-7-12-7-13-8-11-9-11-10-11-10-10-11-10-11-9-11-8-13-7-12-7-13-7-13-5-14-5-13-4-15-4-14-3-14-1-15-2-14v-1136zm0-280zm2179 1681z" fill="gray"/><path d="M16848 10199.111v-15l2-14 1-15 3-14 4-14 4-15 5-13 5-14 7-13 7-13 7-12 8-13 9-11 10-11 10-11 11-10 11-10 11-9 13-8 12-7 13-7 13-7 14-5 13-5 15-4 14-4 14-3 15-1 14-2h1648l14 2 15 1 14 3 14 4 15 4 13 5 14 5 13 7 13 7 12 7 13 8 11 9 11 10 11 10 10 11 10 11 9 11 8 13 7 12 7 13 7 13 5 14 5 13 4 15 4 14 3 14 1 15 2 14v15l1 1120v15l-2 14-1 15-3 14-4 14-4 15-5 13-5 14-7 13-7 13-7 12-8 13-9 11-10 11-10 11-11 10-11 10-11 9-13 8-12 7-13 7-13 7-14 5-13 5-15 4-14 4-14 3-15 1-14 2h-15l-1619 1h-15l-14-2-15-1-14-3-14-4-15-4-13-5-14-5-13-7-13-7-12-7-13-8-11-9-11-10-11-10-10-11-10-11-9-11-8-13-7-12-7-13-7-13-5-14-5-13-4-15-4-14-3-14-1-15-2-14v-1136z" fill="none" stroke="gray" stroke-width="26"/><text class="TextShape" transform="translate(-1480 -2282.889)"><tspan class="TextParagraph" font-size="282" font-weight="700" font-family="Arial,sans-serif"><tspan class="TextPosition" x="18401" y="12817"><tspan fill="gray">Determine how</tspan></tspan></tspan><tspan class="TextParagraph" font-size="282" font-weight="700" font-family="Arial,sans-serif"><tspan class="TextPosition" x="18259" y="13155"><tspan fill="gray">data needs to be </tspan></tspan></tspan><tspan class="TextParagraph" font-size="282" font-weight="700" font-family="Arial,sans-serif"><tspan class="TextPosition" x="18702" y="13493"><tspan fill="gray">presented</tspan></tspan></tspan></text><path d="M16848 10199.111v-15l2-14 1-15 3-14 4-14 4-15 5-13 5-14 7-13 7-13 7-12 8-13 9-11 10-11 10-11 11-10 11-10 11-9 13-8 12-7 13-7 13-7 14-5 13-5 15-4 14-4 14-3 15-1 14-2h1648l14 2 15 1 14 3 14 4 15 4 13 5 14 5 13 7 13 7 12 7 13 8 11 9 11 10 11 10 10 11 10 11 9 11 8 13 7 12 7 13 7 13 5 14 5 13 4 15 4 14 3 14 1 15 2 14v15l1 1120v15l-2 14-1 15-3 14-4 14-4 15-5 13-5 14-7 13-7 13-7 12-8 13-9 11-10 11-10 11-11 10-11 10-11 9-13 8-12 7-13 7-13 7-14 5-13 5-15 4-14 4-14 3-15 1-14 2h-15l-1619 1h-15l-14-2-15-1-14-3-14-4-15-4-13-5-14-5-13-7-13-7-12-7-13-8-11-9-11-10-11-10-10-11-10-11-9-11-8-13-7-12-7-13-7-13-5-14-5-13-4-15-4-14-3-14-1-15-2-14v-1136zm0-280zm2179 1681z" fill="#ff9"/><path d="M16848 10199.111v-15l2-14 1-15 3-14 4-14 4-15 5-13 5-14 7-13 7-13 7-12 8-13 9-11 10-11 10-11 11-10 11-10 11-9 13-8 12-7 13-7 13-7 14-5 13-5 15-4 14-4 14-3 15-1 14-2h1648l14 2 15 1 14 3 14 4 15 4 13 5 14 5 13 7 13 7 12 7 13 8 11 9 11 10 11 10 10 11 10 11 9 11 8 13 7 12 7 13 7 13 5 14 5 13 4 15 4 14 3 14 1 15 2 14v15l1 1120v15l-2 14-1 15-3 14-4 14-4 15-5 13-5 14-7 13-7 13-7 12-8 13-9 11-10 11-10 11-11 10-11 10-11 9-13 8-12 7-13 7-13 7-14 5-13 5-15 4-14 4-14 3-15 1-14 2h-15l-1619 1h-15l-14-2-15-1-14-3-14-4-15-4-13-5-14-5-13-7-13-7-12-7-13-8-11-9-11-10-11-10-10-11-10-11-9-11-8-13-7-12-7-13-7-13-5-14-5-13-4-15-4-14-3-14-1-15-2-14v-1136z" fill="none" stroke="#000" stroke-width="26"/><text class="TextShape" transform="translate(-1480 -2282.889)"><tspan class="TextParagraph" font-size="282" font-weight="700" font-family="Arial,sans-serif"><tspan class="TextPosition" x="18401" y="12817"><tspan>Determine how</tspan></tspan></tspan><tspan class="TextParagraph" font-size="282" font-weight="700" font-family="Arial,sans-serif"><tspan class="TextPosition" x="18259" y="13155"><tspan>data needs to be </tspan></tspan></tspan><tspan class="TextParagraph" font-size="282" font-weight="700" font-family="Arial,sans-serif"><tspan class="TextPosition" x="18702" y="13493"><tspan>presented</tspan></tspan></tspan></text><path class="BoundingBox" fill="none" d="M17307 9462.111h1157v787h-1157z"/><path d="M17320 9855.111l1-19 2-19 3-19 5-19 7-19 8-19 9-18 10-18 12-17 13-17 15-17 16-16 16-16 19-14 19-15 20-13 21-13 22-12 23-12 24-10 25-10 25-9 26-8 27-7 27-7 27-5 28-4 28-4 29-2 28-2h29l29 1 30 1 29 3 29 3 29 5 28 6 28 6 27 8 27 8 26 10 25 10 24 11 23 12 23 13 21 14 21 14 19 15 18 16 16 17 16 16 14 18 13 18 11 18 10 19 8 19 7 19 6 20 4 19 2 20 1 20h-1l-1 20-2 20-4 19-5 20-7 19-9 19-9 19-12 18-12 18-14 18-16 17-16 16-18 16-20 15-20 14-21 14-23 13-23 12-24 11-25 11-26 9-27 9-27 8-28 6-28 6-29 5-29 3-29 3-30 1-29 1-29-1-30-1-29-3-29-3-29-5-28-6-28-6-27-8-27-8-26-10-25-10-24-11-23-12-23-13-21-14-21-14-19-15-18-16-16-17-16-16-14-18-13-18-11-18-10-19-8-19-7-19-6-20-4-19-2-20-1-20zm0-380zm1129 760z" fill="red"/><path d="M17320 9855.111l1-19 2-19 3-19 5-19 7-19 8-19 9-18 10-18 12-17 13-17 15-17 16-16 16-16 19-14 19-15 20-13 21-13 22-12 23-12 24-10 25-10 25-9 26-8 27-7 27-7 27-5 28-4 28-4 29-2 28-2h29l29 1 30 1 29 3 29 3 29 5 28 6 28 6 27 8 27 8 26 10 25 10 24 11 23 12 23 13 21 14 21 14 19 15 18 16 16 17 16 16 14 18 13 18 11 18 10 19 8 19 7 19 6 20 4 19 2 20 1 20h-1l-1 20-2 20-4 19-5 20-7 19-9 19-9 19-12 18-12 18-14 18-16 17-16 16-18 16-20 15-20 14-21 14-23 13-23 12-24 11-25 11-26 9-27 9-27 8-28 6-28 6-29 5-29 3-29 3-30 1-29 1-29-1-30-1-29-3-29-3-29-5-28-6-28-6-27-8-27-8-26-10-25-10-24-11-23-12-23-13-21-14-21-14-19-15-18-16-16-17-16-16-14-18-13-18-11-18-10-19-8-19-7-19-6-20-4-19-2-20-1-20z" fill="none" stroke="#000" stroke-width="26"/><text class="TextShape" transform="translate(-1480 -2282.889)"><tspan class="TextParagraph" font-size="635" font-weight="400" font-family="Arial,sans-serif"><tspan class="TextPosition" x="18923" y="12392"><tspan>6.1</tspan></tspan></tspan></text><path class="BoundingBox" fill="none" d="M15117 10659.111h1744v212h-1744z"/><path d="M15130 10761.111l1521 4" fill="none" stroke="#000" stroke-width="26"/><path d="M16847 10765.111l-210 105v-210l210 105z"/><path class="BoundingBox" fill="none" d="M13762 11586.111h331v1068h-331z"/><path d="M13776 12639.111l217-850" fill="none" stroke="#000" stroke-width="26"/><path d="M14042 11599.111l50 229-204-52 154-177z"/><path class="BoundingBox" fill="none" d="M14934 12628.111h1807v1209h-1807z"/><path d="M15837 13823.111h-890v-1182h1780v1182h-890z" fill="gray"/><path d="M15837 13823.111h-890v-1182h1780v1182h-890z" fill="none" stroke="gray" stroke-width="26" stroke-linejoin="miter"/><text class="TextShape" transform="translate(-1480 -2282.889)"><tspan class="TextParagraph" font-size="282" font-weight="700" font-family="Arial,sans-serif"><tspan class="TextPosition" x="16831" y="15460"><tspan fill="gray">Legacy</tspan></tspan></tspan><tspan class="TextParagraph" font-size="282" font-weight="700" font-family="Arial,sans-serif"><tspan class="TextPosition" x="16704" y="15798"><tspan fill="gray">Products</tspan></tspan></tspan></text><path d="M15837 13823.111h-890v-1182h1780v1182h-890z" fill="#fc0"/><path d="M15837 13823.111h-890v-1182h1780v1182h-890z" fill="none" stroke="#000" stroke-width="26" stroke-linejoin="miter"/><text class="TextShape" transform="translate(-1480 -2282.889)"><tspan class="TextParagraph" font-size="282" font-weight="700" font-family="Arial,sans-serif"><tspan class="TextPosition" x="16831" y="15460"><tspan>Legacy</tspan></tspan></tspan><tspan class="TextParagraph" font-size="282" font-weight="700" font-family="Arial,sans-serif"><tspan class="TextPosition" x="16704" y="15798"><tspan>Products</tspan></tspan></tspan></text><path class="BoundingBox" fill="none" d="M17024 12628.111h1849v1209h-1849z"/><path d="M17948 13823.111h-890v-1182h1780v1182h-890z" fill="gray"/><path d="M17948 13823.111h-890v-1182h1780v1182h-890z" fill="none" stroke="gray" stroke-width="26" stroke-linejoin="miter"/><text class="TextShape" transform="translate(-1480 -2282.889)"><tspan class="TextParagraph" font-size="282" font-weight="700" font-family="Arial,sans-serif"><tspan class="TextPosition" x="19115" y="15460"><tspan fill="gray">User</tspan></tspan></tspan><tspan class="TextParagraph" font-size="282" font-weight="700" font-family="Arial,sans-serif"><tspan class="TextPosition" x="18484" y="15798"><tspan fill="gray">Requirements</tspan></tspan></tspan></text><path d="M17948 13823.111h-890v-1182h1780v1182h-890z" fill="#fc0"/><path d="M17948 13823.111h-890v-1182h1780v1182h-890z" fill="none" stroke="#000" stroke-width="26" stroke-linejoin="miter"/><text class="TextShape" transform="translate(-1480 -2282.889)"><tspan class="TextParagraph" font-size="282" font-weight="700" font-family="Arial,sans-serif"><tspan class="TextPosition" x="19115" y="15460"><tspan>User</tspan></tspan></tspan><tspan class="TextParagraph" font-size="282" font-weight="700" font-family="Arial,sans-serif"><tspan class="TextPosition" x="18484" y="15798"><tspan>Requirements</tspan></tspan></tspan></text><path class="BoundingBox" fill="none" d="M19169 12628.111h1834v1209h-1834z"/><path d="M20085 13823.111h-890v-1182h1780v1182h-890z" fill="gray"/><path d="M20085 13823.111h-890v-1182h1780v1182h-890z" fill="none" stroke="gray" stroke-width="26" stroke-linejoin="miter"/><text class="TextShape" transform="translate(-1480 -2282.889)"><tspan class="TextParagraph" font-size="282" font-weight="700" font-family="Arial,sans-serif"><tspan class="TextPosition" x="20982" y="15460"><tspan fill="gray">Example</tspan></tspan></tspan><tspan class="TextParagraph" font-size="282" font-weight="700" font-family="Arial,sans-serif"><tspan class="TextPosition" x="20630" y="15798"><tspan fill="gray">Presentations</tspan></tspan></tspan></text><path d="M20085 13823.111h-890v-1182h1780v1182h-890z" fill="#fc0"/><path d="M20085 13823.111h-890v-1182h1780v1182h-890z" fill="none" stroke="#000" stroke-width="26" stroke-linejoin="miter"/><text class="TextShape" transform="translate(-1480 -2282.889)"><tspan class="TextParagraph" font-size="282" font-weight="700" font-family="Arial,sans-serif"><tspan class="TextPosition" x="20982" y="15460"><tspan>Example</tspan></tspan></tspan><tspan class="TextParagraph" font-size="282" font-weight="700" font-family="Arial,sans-serif"><tspan class="TextPosition" x="20630" y="15798"><tspan>Presentations</tspan></tspan></tspan></text><path class="BoundingBox" fill="none" d="M15825 11586.111h2127v1068h-2127z"/><path d="M15838 12639.111l1924-953" fill="none" stroke="#000" stroke-width="26"/><path d="M17938 11599.111l-142 187-93-188 235 1z"/><path class="BoundingBox" fill="none" d="M17836 11586.111h212v1068h-212z"/><path d="M17949 12639.111l-8-844" fill="none" stroke="#000" stroke-width="26"/><path d="M17939 11599.111l107 209-210 2 103-211z"/><path class="BoundingBox" fill="none" d="M17925 11586.111h2176v1068h-2176z"/><path d="M20087 12639.111l-1973-955" fill="none" stroke="#000" stroke-width="26"/><path d="M17938 11599.111l235-3-92 189-143-186z"/><path class="BoundingBox" fill="none" d="M17434 7734.111h2007v1209h-2007z"/><path d="M18437 8929.111h-960v-1182h1919v1182h-959z" fill="gray"/><path d="M18437 8929.111h-960v-1182h1919v1182h-959z" fill="none" stroke="gray" stroke-width="26" stroke-linejoin="miter"/><text class="TextShape" transform="translate(-1480 -2282.889)"><tspan class="TextParagraph" font-size="282" font-weight="700" font-family="Arial,sans-serif"><tspan class="TextPosition" x="18894" y="10566"><tspan fill="gray">Fit-for-Purpose</tspan></tspan></tspan><tspan class="TextParagraph" font-size="282" font-weight="700" font-family="Arial,sans-serif"><tspan class="TextPosition" x="18981" y="10904"><tspan fill="gray">Presentations</tspan></tspan></tspan></text><path d="M18437 8929.111h-960v-1182h1919v1182h-959z" fill="#fc0"/><path d="M18437 8929.111h-960v-1182h1919v1182h-959z" fill="none" stroke="#000" stroke-width="26" stroke-linejoin="miter"/><text class="TextShape" transform="translate(-1480 -2282.889)"><tspan class="TextParagraph" font-size="282" font-weight="700" font-family="Arial,sans-serif"><tspan class="TextPosition" x="18894" y="10566"><tspan>Fit-for-Purpose</tspan></tspan></tspan><tspan class="TextParagraph" font-size="282" font-weight="700" font-family="Arial,sans-serif"><tspan class="TextPosition" x="18981" y="10904"><tspan>Presentations</tspan></tspan></tspan></text><path class="BoundingBox" fill="none" d="M18561 9017.111h212v936h-212z"/><path d="M18666 9939.111l1-726" fill="none" stroke="#000" stroke-width="26"/><path d="M18667 9017.111l105 210h-210l105-210z"/><path class="BoundingBox" fill="none" d="M18344 6705.111h212v1056h-212z"/><path d="M18438 7747.111l12-833" fill="none" stroke="#000" stroke-width="26"/><path d="M18453 6718.111l102 212-210-4 108-208z"/><path class="BoundingBox" fill="none" d="M7778 8327.111h2004v2448H7778z"/><path d="M7791 10761.111l1852-2269" fill="none" stroke="#000" stroke-width="26"/><path d="M9767 8340.111l-51 229-163-133 214-96z"/><path class="BoundingBox" fill="none" d="M200 7443.111h2413v2787H200z"/><text class="TextShape" transform="translate(-1480 -2282.889)"><tspan font-weight="700" font-size="423" class="TextParagraph" font-family="Arial,sans-serif"><tspan y="10274" x="1930" class="TextPosition"><tspan fill="#19203f">Detailed </tspan></tspan></tspan><tspan font-weight="700" font-size="423" class="TextParagraph" font-family="Arial,sans-serif"><tspan y="10781" x="1930" class="TextPosition"><tspan fill="#19203f">Steps for</tspan></tspan></tspan><tspan font-weight="700" font-size="423" class="TextParagraph" font-family="Arial,sans-serif"><tspan y="11288" x="1930" class="TextPosition"><tspan fill="#19203f">Decision-</tspan></tspan></tspan><tspan font-weight="700" font-size="423" class="TextParagraph" font-family="Arial,sans-serif"><tspan y="11795" x="1930" class="TextPosition"><tspan fill="#19203f">Maker</tspan></tspan></tspan></text></svg>