<svg xmlns="http://www.w3.org/2000/svg" version="1.2" width="893.594" height="464.454" viewBox="0 0 23643.001 12288.667" preserveAspectRatio="xMidYMid" fill-rule="evenodd" stroke-width="28.222" stroke-linejoin="round"><path class="BoundingBox" fill="none" d="M236 622.667h23204v11465H236z"/><path class="BoundingBox" fill="none" d="M200 622.667h23179v11466H200z"/><path fill="#fff" d="M200 622.667h3559v424H200z"/><path fill="#a6a6a6" d="M3738 200h3796v846.667H3738z"/><path fill="#fff" d="M7511 622.667h172v424h-172z"/><path fill="#a6a6a6" d="M7661 200h3796v846.667H7661z"/><path fill="#fff" d="M11436 622.667h171v424h-171z"/><path fill="#a6a6a6" d="M11586 200h3795v846.667h-3795z"/><path fill="#fff" d="M15359 622.667h194v424h-194z"/><path fill="#a6a6a6" d="M15531 200h3795v846.667h-3795z"/><path fill="#fff" d="M19304 622.667h151v424h-151z"/><path fill="#a6a6a6" d="M19433 200h3796v846.667h-3796z"/><path fill="#fff" d="M23206 622.667h237v424h-237z"/><path fill="#fff" d="M200 1026.667h23243v182H200z"/><path fill="#fff" d="M200 1187.667h172v2059H200z"/><path fill="#00b050" d="M350 1187.667h3259v2059H350z"/><path fill="#fff" d="M3588 1187.667h19855v2059H3588z"/><path fill="#fff" d="M200 3226.667h23243v182H200z"/><path fill="#fff" d="M200 3387.667h172v2059H200z"/><path fill="#7030a0" d="M350 3387.667h3259v2059H350z"/><path fill="#fff" d="M3588 3387.667h19855v2059H3588z"/><path fill="#fff" d="M200 5426.667h23243v182H200z"/><path fill="#fff" d="M200 5587.667h172v2019H200z"/><path fill="#00b0f0" d="M350 5587.667h3259v2019H350z"/><path fill="#fff" d="M3588 5587.667h19855v2019H3588z"/><path fill="#fff" d="M200 7586.667h23243v182H200z"/><path fill="#fff" d="M200 7747.667h172v2020H200z"/><path fill="red" d="M350 7747.667h3259v2020H350z"/><path fill="#fff" d="M3588 7747.667h19855v2020H3588z"/><path fill="#fff" d="M200 9745.667h23243v183H200z"/><path fill="#fff" d="M200 9907.667h172v2020H200z"/><path fill="#ff0" d="M350 9907.667h3259v2020H350z"/><path fill="#fff" d="M3588 9907.667h19855v2020H3588z"/><path fill="#fff" d="M200 11906.667h23243v182H200z"/><text y="-623.755" class="TextShape" transform="translate(-858 -4256.578)"><tspan font-weight="700" font-size="303" class="TextParagraph" font-family="Arial,sans-serif"><tspan y="4920.245" x="5668" class="TextPosition"><tspan fill="#fff">Contextual</tspan></tspan></tspan></text><text y="-623.755" class="TextShape" transform="translate(-858 -4256.578)"><tspan font-weight="700" font-size="303" class="TextParagraph" font-family="Arial,sans-serif"><tspan y="4920.245" x="9549" class="TextPosition"><tspan fill="#fff">Conceptual</tspan></tspan></tspan></text><text y="-623.755" class="TextShape" transform="translate(-858 -4256.578)"><tspan font-weight="700" font-size="303" class="TextParagraph" font-family="Arial,sans-serif"><tspan y="4920.245" x="13794" class="TextPosition"><tspan fill="#fff">Logical</tspan></tspan></tspan></text><text y="-623.755" class="TextShape" transform="translate(-858 -4256.578)"><tspan font-weight="700" font-size="303" class="TextParagraph" font-family="Arial,sans-serif"><tspan y="4920.245" x="17675" class="TextPosition"><tspan fill="#fff">Physical</tspan></tspan></tspan></text><text y="-623.755" class="TextShape" transform="translate(-858 -4256.578)"><tspan font-weight="700" font-size="303" class="TextParagraph" font-family="Arial,sans-serif"><tspan y="4920.245" x="21299" class="TextPosition"><tspan fill="#fff">Transitional</tspan></tspan></tspan></text><text y="-341.533" class="TextShape" transform="translate(-858 -4256.578)"><tspan font-weight="700" font-size="303" class="TextParagraph" font-family="Arial,sans-serif"><tspan y="5767.466" x="7555" class="TextPosition"><tspan fill="#00b050">Cap1</tspan></tspan></tspan></text><text y="-341.533" class="TextShape" transform="translate(-858 -4256.578)"><tspan font-weight="700" font-size="303" class="TextParagraph" font-family="Arial,sans-serif"><tspan y="5767.466" x="11479" class="TextPosition"><tspan fill="#00b050">Cap2</tspan></tspan></tspan></text><text y="-341.533" class="TextShape" transform="translate(-858 -4256.578)"><tspan font-weight="700" font-size="303" class="TextParagraph" font-family="Arial,sans-serif"><tspan y="5767.466" x="15402" class="TextPosition"><tspan fill="#00b050">Cap3</tspan></tspan></tspan></text><text y="-341.533" class="TextShape" transform="translate(-858 -4256.578)"><tspan font-weight="700" font-size="303" class="TextParagraph" font-family="Arial,sans-serif"><tspan y="5767.466" x="19348" class="TextPosition"><tspan fill="#00b050">Cap4</tspan></tspan></tspan></text><text y="-341.533" class="TextShape" transform="translate(-858 -4256.578)"><tspan font-weight="700" font-size="303" class="TextParagraph" font-family="Arial,sans-serif"><tspan y="5767.466" x="23250" class="TextPosition"><tspan fill="#00b050">Cap5</tspan></tspan></tspan></text><text y="-623.755" class="TextShape" transform="translate(-858 -4256.578)"><tspan font-weight="700" font-size="303" class="TextParagraph" font-family="Arial,sans-serif"><tspan y="5888.245" x="5754" class="TextPosition"><tspan>Capability</tspan></tspan></tspan></text><text y="-623.755" class="TextShape" transform="translate(-858 -4256.578)"><tspan font-weight="700" font-size="303" class="TextParagraph" font-family="Arial,sans-serif"><tspan y="6292.245" x="6032" class="TextPosition"><tspan>Vision</tspan></tspan></tspan></text><text y="-623.755" class="TextShape" transform="translate(-858 -4256.578)"><tspan font-weight="700" font-size="303" class="TextParagraph" font-family="Arial,sans-serif"><tspan y="5888.245" x="9678" class="TextPosition"><tspan>Capability</tspan></tspan></tspan></text><text y="-623.755" class="TextShape" transform="translate(-858 -4256.578)"><tspan font-weight="700" font-size="303" class="TextParagraph" font-family="Arial,sans-serif"><tspan y="6292.245" x="9634" class="TextPosition"><tspan>Taxonomy</tspan></tspan></tspan></text><text y="-623.755" class="TextShape" transform="translate(-858 -4256.578)"><tspan font-weight="700" font-size="303" class="TextParagraph" font-family="Arial,sans-serif"><tspan y="5888.245" x="13601" class="TextPosition"><tspan>Capability</tspan></tspan></tspan></text><text y="-623.755" class="TextShape" transform="translate(-858 -4256.578)"><tspan font-weight="700" font-size="303" class="TextParagraph" font-family="Arial,sans-serif"><tspan y="6292.245" x="13237" class="TextPosition"><tspan>Dependencies</tspan></tspan></tspan></text><text y="-623.755" class="TextShape" transform="translate(-858 -4256.578)"><tspan font-weight="700" font-size="303" class="TextParagraph" font-family="Arial,sans-serif"><tspan y="5888.245" x="17547" class="TextPosition"><tspan>Capability</tspan></tspan></tspan></text><text y="-623.755" class="TextShape" transform="translate(-858 -4256.578)"><tspan font-weight="700" font-size="303" class="TextParagraph" font-family="Arial,sans-serif"><tspan y="6292.245" x="17375" class="TextPosition"><tspan>Deployment</tspan></tspan></tspan></text><text y="-623.755" class="TextShape" transform="translate(-858 -4256.578)"><tspan font-weight="700" font-size="303" class="TextParagraph" font-family="Arial,sans-serif"><tspan y="5888.245" x="21449" class="TextPosition"><tspan>Capability</tspan></tspan></tspan></text><text y="-623.755" class="TextShape" transform="translate(-858 -4256.578)"><tspan font-weight="700" font-size="303" class="TextParagraph" font-family="Arial,sans-serif"><tspan y="6292.245" x="21492" class="TextPosition"><tspan>Roadmap</tspan></tspan></tspan></text><text y="-623.755" class="TextShape" transform="translate(-858 -4256.578)"><tspan font-weight="700" font-style="italic" font-size="222" class="TextParagraph" font-family="Arial,sans-serif"><tspan y="6756.245" x="6118" class="TextPosition"><tspan fill="#00b050">NCV-1</tspan></tspan></tspan></text><text y="-623.755" class="TextShape" transform="translate(-858 -4256.578)"><tspan font-weight="700" font-style="italic" font-size="222" class="TextParagraph" font-family="Arial,sans-serif"><tspan y="6756.245" x="10042" class="TextPosition"><tspan fill="#00b050">NCV-2</tspan></tspan></tspan></text><text y="-623.755" class="TextShape" transform="translate(-858 -4256.578)"><tspan font-weight="700" font-style="italic" font-size="222" class="TextParagraph" font-family="Arial,sans-serif"><tspan y="6756.245" x="13966" class="TextPosition"><tspan fill="#00b050">NCV-4</tspan></tspan></tspan></text><text y="-623.755" class="TextShape" transform="translate(-858 -4256.578)"><tspan font-weight="700" font-style="italic" font-size="222" class="TextParagraph" font-family="Arial,sans-serif"><tspan y="6756.245" x="17632" class="TextPosition"><tspan fill="#00b050">NCV-5,-6,-7</tspan></tspan></tspan></text><text y="-623.755" class="TextShape" transform="translate(-858 -4256.578)"><tspan font-weight="700" font-style="italic" font-size="222" class="TextParagraph" font-family="Arial,sans-serif"><tspan y="6756.245" x="21813" class="TextPosition"><tspan fill="#00b050">NCV-3</tspan></tspan></tspan></text><text y="-623.755" class="TextShape" transform="translate(-858 -4256.578)"><tspan font-weight="700" font-style="italic" font-size="222" class="TextParagraph" font-family="Arial,sans-serif"><tspan y="7160.245" x="6182" class="TextPosition"><tspan fill="#00b050">StV-1</tspan></tspan></tspan></text><text y="-623.755" class="TextShape" transform="translate(-858 -4256.578)"><tspan font-weight="700" font-style="italic" font-size="222" class="TextParagraph" font-family="Arial,sans-serif"><tspan y="7160.245" x="10106" class="TextPosition"><tspan fill="#00b050">StV-2</tspan></tspan></tspan></text><text y="-623.755" class="TextShape" transform="translate(-858 -4256.578)"><tspan font-weight="700" font-style="italic" font-size="222" class="TextParagraph" font-family="Arial,sans-serif"><tspan y="7160.245" x="14030" class="TextPosition"><tspan fill="#00b050">StV-4</tspan></tspan></tspan></text><text y="-623.755" class="TextShape" transform="translate(-858 -4256.578)"><tspan font-weight="700" font-style="italic" font-size="222" class="TextParagraph" font-family="Arial,sans-serif"><tspan y="7160.245" x="17718" class="TextPosition"><tspan fill="#00b050">StV-5-6,-7</tspan></tspan></tspan></text><text y="-623.755" class="TextShape" transform="translate(-858 -4256.578)"><tspan font-weight="700" font-style="italic" font-size="222" class="TextParagraph" font-family="Arial,sans-serif"><tspan y="7160.245" x="21877" class="TextPosition"><tspan fill="#00b050">StV-3</tspan></tspan></tspan></text><text y="-341.533" class="TextShape" transform="translate(-858 -4256.578)"><tspan font-weight="700" font-size="303" class="TextParagraph" font-family="Arial,sans-serif"><tspan y="7967.466" x="7576" class="TextPosition"><tspan fill="#7030a0">Svc1</tspan></tspan></tspan></text><text y="-341.533" class="TextShape" transform="translate(-858 -4256.578)"><tspan font-weight="700" font-size="303" class="TextParagraph" font-family="Arial,sans-serif"><tspan y="7967.466" x="11500" class="TextPosition"><tspan fill="#7030a0">Svc2</tspan></tspan></tspan></text><text y="-341.533" class="TextShape" transform="translate(-858 -4256.578)"><tspan font-weight="700" font-size="303" class="TextParagraph" font-family="Arial,sans-serif"><tspan y="7967.466" x="15424" class="TextPosition"><tspan fill="#7030a0">Svc3</tspan></tspan></tspan></text><text y="-341.533" class="TextShape" transform="translate(-858 -4256.578)"><tspan font-weight="700" font-size="303" class="TextParagraph" font-family="Arial,sans-serif"><tspan y="7967.466" x="19369" class="TextPosition"><tspan fill="#7030a0">Svc4</tspan></tspan></tspan></text><text y="-341.533" class="TextShape" transform="translate(-858 -4256.578)"><tspan font-weight="700" font-size="303" class="TextParagraph" font-family="Arial,sans-serif"><tspan y="7967.466" x="23271" class="TextPosition"><tspan fill="#7030a0">Svc5</tspan></tspan></tspan></text><text y="-623.755" class="TextShape" transform="translate(-858 -4256.578)"><tspan font-weight="700" font-size="303" class="TextParagraph" font-family="Arial,sans-serif"><tspan y="8089.245" x="5904" class="TextPosition"><tspan>Service</tspan></tspan></tspan></text><text y="-623.755" class="TextShape" transform="translate(-858 -4256.578)"><tspan font-weight="700" font-size="303" class="TextParagraph" font-family="Arial,sans-serif"><tspan y="8492.245" x="5754" class="TextPosition"><tspan>Definition</tspan></tspan></tspan></text><text y="-623.755" class="TextShape" transform="translate(-858 -4256.578)"><tspan font-weight="700" font-size="303" class="TextParagraph" font-family="Arial,sans-serif"><tspan y="8089.245" x="9828" class="TextPosition"><tspan>Service</tspan></tspan></tspan></text><text y="-623.755" class="TextShape" transform="translate(-858 -4256.578)"><tspan font-weight="700" font-size="303" class="TextParagraph" font-family="Arial,sans-serif"><tspan y="8492.245" x="9634" class="TextPosition"><tspan>Taxonomy</tspan></tspan></tspan></text><text y="-623.755" class="TextShape" transform="translate(-858 -4256.578)"><tspan font-weight="700" font-size="303" class="TextParagraph" font-family="Arial,sans-serif"><tspan y="8089.245" x="13751" class="TextPosition"><tspan>Service</tspan></tspan></tspan></text><text y="-623.755" class="TextShape" transform="translate(-858 -4256.578)"><tspan font-weight="700" font-size="303" class="TextParagraph" font-family="Arial,sans-serif"><tspan y="8492.245" x="13387" class="TextPosition"><tspan>Composition</tspan></tspan></tspan></text><text y="-623.755" class="TextShape" transform="translate(-858 -4256.578)"><tspan font-weight="700" font-size="303" class="TextParagraph" font-family="Arial,sans-serif"><tspan y="8089.245" x="17697" class="TextPosition"><tspan>Service</tspan></tspan></tspan></text><text y="-623.755" class="TextShape" transform="translate(-858 -4256.578)"><tspan font-weight="700" font-size="303" class="TextParagraph" font-family="Arial,sans-serif"><tspan y="8492.245" x="17375" class="TextPosition"><tspan>Deployment</tspan></tspan></tspan></text><text y="-623.755" class="TextShape" transform="translate(-858 -4256.578)"><tspan font-weight="700" font-size="303" class="TextParagraph" font-family="Arial,sans-serif"><tspan y="8089.245" x="21599" class="TextPosition"><tspan>Service</tspan></tspan></tspan></text><text y="-623.755" class="TextShape" transform="translate(-858 -4256.578)"><tspan font-weight="700" font-size="303" class="TextParagraph" font-family="Arial,sans-serif"><tspan y="8492.245" x="21470" class="TextPosition"><tspan>Roadmap</tspan></tspan></tspan></text><text y="-623.755" class="TextShape" transform="translate(-858 -4256.578)"><tspan font-weight="700" font-style="italic" font-size="222" class="TextParagraph" font-family="Arial,sans-serif"><tspan y="8957.245" x="6032" class="TextPosition"><tspan fill="#7030a0">NSOV-2</tspan></tspan></tspan></text><text y="-623.755" class="TextShape" transform="translate(-858 -4256.578)"><tspan font-weight="700" font-style="italic" font-size="222" class="TextParagraph" font-family="Arial,sans-serif"><tspan y="8957.245" x="9956" class="TextPosition"><tspan fill="#7030a0">NSOV-2</tspan></tspan></tspan></text><text y="-623.755" class="TextShape" transform="translate(-858 -4256.578)"><tspan font-weight="700" font-style="italic" font-size="222" class="TextParagraph" font-family="Arial,sans-serif"><tspan y="8957.245" x="13708" class="TextPosition"><tspan fill="#7030a0">NSOV-4, -5</tspan></tspan></tspan></text><text y="-623.755" class="TextShape" transform="translate(-858 -4256.578)"><tspan font-weight="700" font-style="italic" font-size="222" class="TextParagraph" font-family="Arial,sans-serif"><tspan y="8957.245" x="17825" class="TextPosition"><tspan fill="#7030a0">NSOV-3</tspan></tspan></tspan></text><text y="-623.755" class="TextShape" transform="translate(-858 -4256.578)"><tspan font-weight="700" font-style="italic" font-size="222" class="TextParagraph" font-family="Arial,sans-serif"><tspan y="8957.245" x="21813" class="TextPosition"><tspan fill="#7030a0">NAV-1</tspan></tspan></tspan></text><text y="-623.755" class="TextShape" transform="translate(-858 -4256.578)"><tspan font-weight="700" font-style="italic" font-size="222" class="TextParagraph" font-family="Arial,sans-serif"><tspan y="9360.245" x="6118" class="TextPosition"><tspan fill="#7030a0">SOV-2</tspan></tspan></tspan></text><text y="-623.755" class="TextShape" transform="translate(-858 -4256.578)"><tspan font-weight="700" font-style="italic" font-size="222" class="TextParagraph" font-family="Arial,sans-serif"><tspan y="9360.245" x="10042" class="TextPosition"><tspan fill="#7030a0">SOV-2</tspan></tspan></tspan></text><text y="-623.755" class="TextShape" transform="translate(-858 -4256.578)"><tspan font-weight="700" font-style="italic" font-size="222" class="TextParagraph" font-family="Arial,sans-serif"><tspan y="9360.245" x="13794" class="TextPosition"><tspan fill="#7030a0">SOV-4, -5</tspan></tspan></tspan></text><text y="-623.755" class="TextShape" transform="translate(-858 -4256.578)"><tspan font-weight="700" font-style="italic" font-size="222" class="TextParagraph" font-family="Arial,sans-serif"><tspan y="9360.245" x="17911" class="TextPosition"><tspan fill="#7030a0">SOV-3</tspan></tspan></tspan></text><text y="-623.755" class="TextShape" transform="translate(-858 -4256.578)"><tspan font-weight="700" font-style="italic" font-size="222" class="TextParagraph" font-family="Arial,sans-serif"><tspan y="9360.245" x="21899" class="TextPosition"><tspan fill="#7030a0">AV-1</tspan></tspan></tspan></text><text y="-341.533" class="TextShape" transform="translate(-858 -4256.578)"><tspan font-weight="700" font-size="303" class="TextParagraph" font-family="Arial,sans-serif"><tspan y="10167.467" x="7533" class="TextPosition"><tspan fill="#00b0f0">Ops1</tspan></tspan></tspan></text><text y="-341.533" class="TextShape" transform="translate(-858 -4256.578)"><tspan font-weight="700" font-size="303" class="TextParagraph" font-family="Arial,sans-serif"><tspan y="10167.467" x="11457" class="TextPosition"><tspan fill="#00b0f0">Ops2</tspan></tspan></tspan></text><text y="-341.533" class="TextShape" transform="translate(-858 -4256.578)"><tspan font-weight="700" font-size="303" class="TextParagraph" font-family="Arial,sans-serif"><tspan y="10167.467" x="15381" class="TextPosition"><tspan fill="#00b0f0">Ops3</tspan></tspan></tspan></text><text y="-341.533" class="TextShape" transform="translate(-858 -4256.578)"><tspan font-weight="700" font-size="303" class="TextParagraph" font-family="Arial,sans-serif"><tspan y="10167.467" x="19326" class="TextPosition"><tspan fill="#00b0f0">Ops4</tspan></tspan></tspan></text><text y="-341.533" class="TextShape" transform="translate(-858 -4256.578)"><tspan font-weight="700" font-size="303" class="TextParagraph" font-family="Arial,sans-serif"><tspan y="10167.467" x="23228" class="TextPosition"><tspan fill="#00b0f0">Ops5</tspan></tspan></tspan></text><text y="-623.755" class="TextShape" transform="translate(-858 -4256.578)"><tspan font-weight="700" font-size="303" class="TextParagraph" font-family="Arial,sans-serif"><tspan y="10289.245" x="5604" class="TextPosition"><tspan>Operational</tspan></tspan></tspan></text><text y="-623.755" class="TextShape" transform="translate(-858 -4256.578)"><tspan font-weight="700" font-size="303" class="TextParagraph" font-family="Arial,sans-serif"><tspan y="10693.245" x="5904" class="TextPosition"><tspan>Context</tspan></tspan></tspan></text><text y="-623.755" class="TextShape" transform="translate(-858 -4256.578)"><tspan font-weight="700" font-size="303" class="TextParagraph" font-family="Arial,sans-serif"><tspan y="10289.245" x="9570" class="TextPosition"><tspan>Concept of</tspan></tspan></tspan></text><text y="-623.755" class="TextShape" transform="translate(-858 -4256.578)"><tspan font-weight="700" font-size="303" class="TextParagraph" font-family="Arial,sans-serif"><tspan y="10693.245" x="9656" class="TextPosition"><tspan>Operation</tspan></tspan></tspan></text><text y="-623.755" class="TextShape" transform="translate(-858 -4256.578)"><tspan font-weight="700" font-size="303" class="TextParagraph" font-family="Arial,sans-serif"><tspan y="10289.245" x="13451" class="TextPosition"><tspan>Operational</tspan></tspan></tspan></text><text y="-623.755" class="TextShape" transform="translate(-858 -4256.578)"><tspan font-weight="700" font-size="303" class="TextParagraph" font-family="Arial,sans-serif"><tspan y="10693.245" x="13365" class="TextPosition"><tspan>Organization</tspan></tspan></tspan></text><text y="-623.755" class="TextShape" transform="translate(-858 -4256.578)"><tspan font-weight="700" font-size="303" class="TextParagraph" font-family="Arial,sans-serif"><tspan y="10289.245" x="17397" class="TextPosition"><tspan>Operational</tspan></tspan></tspan></text><text y="-623.755" class="TextShape" transform="translate(-858 -4256.578)"><tspan font-weight="700" font-size="303" class="TextParagraph" font-family="Arial,sans-serif"><tspan y="10693.245" x="17375" class="TextPosition"><tspan>Deployment</tspan></tspan></tspan></text><text y="-623.755" class="TextShape" transform="translate(-858 -4256.578)"><tspan font-weight="700" font-size="303" class="TextParagraph" font-family="Arial,sans-serif"><tspan y="10289.245" x="21663" class="TextPosition"><tspan>Line of</tspan></tspan></tspan></text><text y="-623.755" class="TextShape" transform="translate(-858 -4256.578)"><tspan font-weight="700" font-size="303" class="TextParagraph" font-family="Arial,sans-serif"><tspan y="10693.245" x="21170" class="TextPosition"><tspan>Development</tspan></tspan></tspan></text><text y="-623.755" class="TextShape" transform="translate(-858 -4256.578)"><tspan font-weight="700" font-style="italic" font-size="222" class="TextParagraph" font-family="Arial,sans-serif"><tspan y="11157.245" x="6118" class="TextPosition"><tspan fill="#00b0f0">NOV-1</tspan></tspan></tspan></text><text y="-623.755" class="TextShape" transform="translate(-858 -4256.578)"><tspan font-weight="700" font-style="italic" font-size="222" class="TextParagraph" font-family="Arial,sans-serif"><tspan y="11157.245" x="9377" class="TextPosition"><tspan fill="#00b0f0">NOV-3, -5, -6b, -6c</tspan></tspan></tspan></text><text y="-623.755" class="TextShape" transform="translate(-858 -4256.578)"><tspan font-weight="700" font-style="italic" font-size="222" class="TextParagraph" font-family="Arial,sans-serif"><tspan y="11157.245" x="13708" class="TextPosition"><tspan fill="#00b0f0">NOV-4, -6a</tspan></tspan></tspan></text><text y="-623.755" class="TextShape" transform="translate(-858 -4256.578)"><tspan font-weight="700" font-style="italic" font-size="222" class="TextParagraph" font-family="Arial,sans-serif"><tspan y="11157.245" x="17911" class="TextPosition"><tspan fill="#00b0f0">NOV-2</tspan></tspan></tspan></text><text y="-623.755" class="TextShape" transform="translate(-858 -4256.578)"><tspan font-weight="700" font-style="italic" font-size="222" class="TextParagraph" font-family="Arial,sans-serif"><tspan y="11157.245" x="21642" class="TextPosition"><tspan fill="#00b0f0">NPV-1, -2</tspan></tspan></tspan></text><text y="-623.755" class="TextShape" transform="translate(-858 -4256.578)"><tspan font-weight="700" font-style="italic" font-size="222" class="TextParagraph" font-family="Arial,sans-serif"><tspan y="11540.245" x="6204" class="TextPosition"><tspan fill="#00b0f0">OV-1</tspan></tspan></tspan></text><text y="-623.755" class="TextShape" transform="translate(-858 -4256.578)"><tspan font-weight="700" font-style="italic" font-size="222" class="TextParagraph" font-family="Arial,sans-serif"><tspan y="11540.245" x="9463" class="TextPosition"><tspan fill="#00b0f0">OV-3, -5, -6b, -6c</tspan></tspan></tspan></text><text y="-623.755" class="TextShape" transform="translate(-858 -4256.578)"><tspan font-weight="700" font-style="italic" font-size="222" class="TextParagraph" font-family="Arial,sans-serif"><tspan y="11540.245" x="13794" class="TextPosition"><tspan fill="#00b0f0">OV-4, -6a</tspan></tspan></tspan></text><text y="-623.755" class="TextShape" transform="translate(-858 -4256.578)"><tspan font-weight="700" font-style="italic" font-size="222" class="TextParagraph" font-family="Arial,sans-serif"><tspan y="11540.245" x="17997" class="TextPosition"><tspan fill="#00b0f0">OV-2</tspan></tspan></tspan></text><text y="-623.755" class="TextShape" transform="translate(-858 -4256.578)"><tspan font-weight="700" font-style="italic" font-size="222" class="TextParagraph" font-family="Arial,sans-serif"><tspan y="11540.245" x="21663" class="TextPosition"><tspan fill="#00b0f0">AcV-1, -2</tspan></tspan></tspan></text><text y="-341.533" class="TextShape" transform="translate(-858 -4256.578)"><tspan font-weight="700" font-size="303" class="TextParagraph" font-family="Arial,sans-serif"><tspan y="12327.467" x="7619" class="TextPosition"><tspan fill="red">Sys1</tspan></tspan></tspan></text><text y="-341.533" class="TextShape" transform="translate(-858 -4256.578)"><tspan font-weight="700" font-size="303" class="TextParagraph" font-family="Arial,sans-serif"><tspan y="12327.467" x="11543" class="TextPosition"><tspan fill="red">Sys2</tspan></tspan></tspan></text><text y="-341.533" class="TextShape" transform="translate(-858 -4256.578)"><tspan font-weight="700" font-size="303" class="TextParagraph" font-family="Arial,sans-serif"><tspan y="12327.467" x="15467" class="TextPosition"><tspan fill="red">Sys3</tspan></tspan></tspan></text><text y="-341.533" class="TextShape" transform="translate(-858 -4256.578)"><tspan font-weight="700" font-size="303" class="TextParagraph" font-family="Arial,sans-serif"><tspan y="12327.467" x="19412" class="TextPosition"><tspan fill="red">Sys4</tspan></tspan></tspan></text><text y="-341.533" class="TextShape" transform="translate(-858 -4256.578)"><tspan font-weight="700" font-size="303" class="TextParagraph" font-family="Arial,sans-serif"><tspan y="12327.467" x="23314" class="TextPosition"><tspan fill="red">Sys5</tspan></tspan></tspan></text><text y="-623.755" class="TextShape" transform="translate(-858 -4256.578)"><tspan font-weight="700" font-size="303" class="TextParagraph" font-family="Arial,sans-serif"><tspan y="12448.245" x="5947" class="TextPosition"><tspan>System</tspan></tspan></tspan></text><text y="-623.755" class="TextShape" transform="translate(-858 -4256.578)"><tspan font-weight="700" font-size="303" class="TextParagraph" font-family="Arial,sans-serif"><tspan y="12852.245" x="5925" class="TextPosition"><tspan>context</tspan></tspan></tspan></text><text y="-623.755" class="TextShape" transform="translate(-858 -4256.578)"><tspan font-weight="700" font-size="303" class="TextParagraph" font-family="Arial,sans-serif"><tspan y="12448.245" x="9613" class="TextPosition"><tspan>Functional</tspan></tspan></tspan></text><text y="-623.755" class="TextShape" transform="translate(-858 -4256.578)"><tspan font-weight="700" font-size="303" class="TextParagraph" font-family="Arial,sans-serif"><tspan y="12852.245" x="9613" class="TextPosition"><tspan>Decription</tspan></tspan></tspan></text><text y="-623.755" class="TextShape" transform="translate(-858 -4256.578)"><tspan font-weight="700" font-size="303" class="TextParagraph" font-family="Arial,sans-serif"><tspan y="12448.245" x="13794" class="TextPosition"><tspan>System</tspan></tspan></tspan></text><text y="-623.755" class="TextShape" transform="translate(-858 -4256.578)"><tspan font-weight="700" font-size="303" class="TextParagraph" font-family="Arial,sans-serif"><tspan y="12852.245" x="13301" class="TextPosition"><tspan>Configuration</tspan></tspan></tspan></text><text y="-623.755" class="TextShape" transform="translate(-858 -4256.578)"><tspan font-weight="700" font-size="303" class="TextParagraph" font-family="Arial,sans-serif"><tspan y="12448.245" x="17739" class="TextPosition"><tspan>System</tspan></tspan></tspan></text><text y="-623.755" class="TextShape" transform="translate(-858 -4256.578)"><tspan font-weight="700" font-size="303" class="TextParagraph" font-family="Arial,sans-serif"><tspan y="12852.245" x="17118" class="TextPosition"><tspan>Implementation</tspan></tspan></tspan></text><text y="-623.755" class="TextShape" transform="translate(-858 -4256.578)"><tspan font-weight="700" font-size="303" class="TextParagraph" font-family="Arial,sans-serif"><tspan y="12448.245" x="21642" class="TextPosition"><tspan>System</tspan></tspan></tspan></text><text y="-623.755" class="TextShape" transform="translate(-858 -4256.578)"><tspan font-weight="700" font-size="303" class="TextParagraph" font-family="Arial,sans-serif"><tspan y="12852.245" x="21170" class="TextPosition"><tspan>Development</tspan></tspan></tspan></text><text y="-623.755" class="TextShape" transform="translate(-858 -4256.578)"><tspan font-weight="700" font-style="italic" font-size="222" class="TextParagraph" font-family="Arial,sans-serif"><tspan y="13317.245" x="6140" class="TextPosition"><tspan fill="red">NSV-3</tspan></tspan></tspan></text><text y="-623.755" class="TextShape" transform="translate(-858 -4256.578)"><tspan font-weight="700" font-style="italic" font-size="222" class="TextParagraph" font-family="Arial,sans-serif"><tspan y="13317.245" x="9077" class="TextPosition"><tspan fill="red">NSV-4, -5, -6, -10b, -10c</tspan></tspan></tspan></text><text y="-623.755" class="TextShape" transform="translate(-858 -4256.578)"><tspan font-weight="700" font-style="italic" font-size="222" class="TextParagraph" font-family="Arial,sans-serif"><tspan y="13317.245" x="13194" class="TextPosition"><tspan fill="red">NSV-1, NSV-10a, -12</tspan></tspan></tspan></text><text y="-623.755" class="TextShape" transform="translate(-858 -4256.578)"><tspan font-weight="700" font-style="italic" font-size="222" class="TextParagraph" font-family="Arial,sans-serif"><tspan y="13317.245" x="16710" class="TextPosition"><tspan fill="red">NSV-2a, -2b, -2c, -2d, NTV-1</tspan></tspan></tspan></text><text y="-623.755" class="TextShape" transform="translate(-858 -4256.578)"><tspan font-weight="700" font-style="italic" font-size="222" class="TextParagraph" font-family="Arial,sans-serif"><tspan y="13317.245" x="21084" class="TextPosition"><tspan fill="red">NSV-7, -8, -9, NTV-2</tspan></tspan></tspan></text><text y="-341.533" class="TextShape" transform="translate(-858 -4256.578)"><tspan font-weight="700" font-size="303" class="TextParagraph" font-family="Arial,sans-serif"><tspan y="14486.467" x="7769" class="TextPosition"><tspan>Inf1</tspan></tspan></tspan></text><text y="-341.533" class="TextShape" transform="translate(-858 -4256.578)"><tspan font-weight="700" font-size="303" class="TextParagraph" font-family="Arial,sans-serif"><tspan y="14486.467" x="11693" class="TextPosition"><tspan>Inf2</tspan></tspan></tspan></text><text y="-341.533" class="TextShape" transform="translate(-858 -4256.578)"><tspan font-weight="700" font-size="303" class="TextParagraph" font-family="Arial,sans-serif"><tspan y="14486.467" x="15617" class="TextPosition"><tspan>Inf3</tspan></tspan></tspan></text><text y="-341.533" class="TextShape" transform="translate(-858 -4256.578)"><tspan font-weight="700" font-size="303" class="TextParagraph" font-family="Arial,sans-serif"><tspan y="14486.467" x="19562" class="TextPosition"><tspan>Inf4</tspan></tspan></tspan></text><text y="-341.533" class="TextShape" transform="translate(-858 -4256.578)"><tspan font-weight="700" font-size="303" class="TextParagraph" font-family="Arial,sans-serif"><tspan y="14486.467" x="23464" class="TextPosition"><tspan>Inf5</tspan></tspan></tspan></text><text y="-623.755" class="TextShape" transform="translate(-858 -4256.578)"><tspan font-weight="700" font-size="303" class="TextParagraph" font-family="Arial,sans-serif"><tspan y="14608.245" x="6118" class="TextPosition"><tspan>Meta</tspan></tspan></tspan></text><text y="-623.755" class="TextShape" transform="translate(-858 -4256.578)"><tspan font-weight="700" font-size="303" class="TextParagraph" font-family="Arial,sans-serif"><tspan y="15012.245" x="5690" class="TextPosition"><tspan>Datamodel</tspan></tspan></tspan></text><text y="-623.755" class="TextShape" transform="translate(-858 -4256.578)"><tspan font-weight="700" font-size="303" class="TextParagraph" font-family="Arial,sans-serif"><tspan y="14608.245" x="9549" class="TextPosition"><tspan>Conceptual</tspan></tspan></tspan></text><text y="-623.755" class="TextShape" transform="translate(-858 -4256.578)"><tspan font-weight="700" font-size="303" class="TextParagraph" font-family="Arial,sans-serif"><tspan y="15012.245" x="9570" class="TextPosition"><tspan>Data model</tspan></tspan></tspan></text><text y="-623.755" class="TextShape" transform="translate(-858 -4256.578)"><tspan font-weight="700" font-size="303" class="TextParagraph" font-family="Arial,sans-serif"><tspan y="14608.245" x="13794" class="TextPosition"><tspan>Logical</tspan></tspan></tspan></text><text y="-623.755" class="TextShape" transform="translate(-858 -4256.578)"><tspan font-weight="700" font-size="303" class="TextParagraph" font-family="Arial,sans-serif"><tspan y="15012.245" x="13472" class="TextPosition"><tspan>Data Model</tspan></tspan></tspan></text><text y="-623.755" class="TextShape" transform="translate(-858 -4256.578)"><tspan font-weight="700" font-size="303" class="TextParagraph" font-family="Arial,sans-serif"><tspan y="14608.245" x="17654" class="TextPosition"><tspan>Physical</tspan></tspan></tspan></text><text y="-623.755" class="TextShape" transform="translate(-858 -4256.578)"><tspan font-weight="700" font-size="303" class="TextParagraph" font-family="Arial,sans-serif"><tspan y="15012.245" x="17418" class="TextPosition"><tspan>Data Model</tspan></tspan></tspan></text><text y="-623.755" class="TextShape" transform="translate(-858 -4256.578)"><tspan font-weight="700" font-size="303" class="TextParagraph" font-family="Arial,sans-serif"><tspan y="14608.245" x="20891" class="TextPosition"><tspan>Transformational</tspan></tspan></tspan></text><text y="-623.755" class="TextShape" transform="translate(-858 -4256.578)"><tspan font-weight="700" font-size="303" class="TextParagraph" font-family="Arial,sans-serif"><tspan y="15012.245" x="21320" class="TextPosition"><tspan>Data Model</tspan></tspan></tspan></text><text y="-623.755" class="TextShape" transform="translate(-858 -4256.578)"><tspan font-weight="700" font-style="italic" font-size="222" class="TextParagraph" font-family="Arial,sans-serif"><tspan y="15476.245" x="5947" class="TextPosition"><tspan>NAV-2, -3</tspan></tspan></tspan></text><text y="-623.755" class="TextShape" transform="translate(-858 -4256.578)"><tspan font-weight="700" font-style="italic" font-size="222" class="TextParagraph" font-family="Arial,sans-serif"><tspan y="15476.245" x="10042" class="TextPosition"><tspan>NOV-7</tspan></tspan></tspan></text><text y="-623.755" class="TextShape" transform="translate(-858 -4256.578)"><tspan font-weight="700" font-style="italic" font-size="222" class="TextParagraph" font-family="Arial,sans-serif"><tspan y="15476.245" x="13837" class="TextPosition"><tspan>NSV-11a</tspan></tspan></tspan></text><text y="-623.755" class="TextShape" transform="translate(-858 -4256.578)"><tspan font-weight="700" font-style="italic" font-size="222" class="TextParagraph" font-family="Arial,sans-serif"><tspan y="15476.245" x="17782" class="TextPosition"><tspan>NSV-11b</tspan></tspan></tspan></text><text y="-623.755" class="TextShape" transform="translate(-858 -4256.578)"><tspan font-weight="700" font-style="italic" font-size="222" class="TextParagraph" font-family="Arial,sans-serif"><tspan y="15476.245" x="21813" class="TextPosition"><tspan>NAV-1</tspan></tspan></tspan></text><text y="-623.755" class="TextShape" transform="translate(-858 -4256.578)"><tspan font-weight="700" font-style="italic" font-size="222" class="TextParagraph" font-family="Arial,sans-serif"><tspan y="15860.245" x="6032" class="TextPosition"><tspan>AV-2, -3</tspan></tspan></tspan></text><text y="-623.755" class="TextShape" transform="translate(-858 -4256.578)"><tspan font-weight="700" font-style="italic" font-size="222" class="TextParagraph" font-family="Arial,sans-serif"><tspan y="15860.245" x="10128" class="TextPosition"><tspan>OV-7</tspan></tspan></tspan></text><text y="-623.755" class="TextShape" transform="translate(-858 -4256.578)"><tspan font-weight="700" font-style="italic" font-size="222" class="TextParagraph" font-family="Arial,sans-serif"><tspan y="15860.245" x="13923" class="TextPosition"><tspan>SV-11a</tspan></tspan></tspan></text><text y="-623.755" class="TextShape" transform="translate(-858 -4256.578)"><tspan font-weight="700" font-style="italic" font-size="222" class="TextParagraph" font-family="Arial,sans-serif"><tspan y="15860.245" x="17868" class="TextPosition"><tspan>SV-11b</tspan></tspan></tspan></text><text y="-623.755" class="TextShape" transform="translate(-858 -4256.578)"><tspan font-weight="700" font-style="italic" font-size="222" class="TextParagraph" font-family="Arial,sans-serif"><tspan y="15860.245" x="21899" class="TextPosition"><tspan>AV-1</tspan></tspan></tspan></text><text y="-623.755" class="TextShape" transform="translate(-858 -4256.578)"><tspan font-weight="700" font-size="303" class="TextParagraph" font-family="Arial,sans-serif"><tspan y="6090.245" x="2087" class="TextPosition"><tspan fill="#fff">Capability</tspan></tspan></tspan></text><text y="-623.755" class="TextShape" transform="translate(-858 -4256.578)"><tspan font-weight="700" font-size="303" class="TextParagraph" font-family="Arial,sans-serif"><tspan y="6494.245" x="2109" class="TextPosition"><tspan fill="#fff">Concepts</tspan></tspan></tspan></text><text y="-623.755" class="TextShape" transform="translate(-858 -4256.578)"><tspan font-weight="700" font-size="303" class="TextParagraph" font-family="Arial,sans-serif"><tspan y="8290.245" x="2259" class="TextPosition"><tspan fill="#fff">Service</tspan></tspan></tspan></text><text y="-623.755" class="TextShape" transform="translate(-858 -4256.578)"><tspan font-weight="700" font-size="303" class="TextParagraph" font-family="Arial,sans-serif"><tspan y="8694.245" x="2109" class="TextPosition"><tspan fill="#fff">Concepts</tspan></tspan></tspan></text><text y="-623.755" class="TextShape" transform="translate(-858 -4256.578)"><tspan font-weight="700" font-size="303" class="TextParagraph" font-family="Arial,sans-serif"><tspan y="10470.245" x="1937" class="TextPosition"><tspan fill="#fff">Operational</tspan></tspan></tspan></text><text y="-623.755" class="TextShape" transform="translate(-858 -4256.578)"><tspan font-weight="700" font-size="303" class="TextParagraph" font-family="Arial,sans-serif"><tspan y="10874.245" x="2109" class="TextPosition"><tspan fill="#fff">Concepts</tspan></tspan></tspan></text><text y="-623.755" class="TextShape" transform="translate(-858 -4256.578)"><tspan font-weight="700" font-size="303" class="TextParagraph" font-family="Arial,sans-serif"><tspan y="12630.245" x="2302" class="TextPosition"><tspan fill="#fff">System</tspan></tspan></tspan></text><text y="-623.755" class="TextShape" transform="translate(-858 -4256.578)"><tspan font-weight="700" font-size="303" class="TextParagraph" font-family="Arial,sans-serif"><tspan y="13034.245" x="2109" class="TextPosition"><tspan fill="#fff">Concepts</tspan></tspan></tspan></text><text y="-623.755" class="TextShape" transform="translate(-858 -4256.578)"><tspan font-weight="700" font-size="303" class="TextParagraph" font-family="Arial,sans-serif"><tspan y="14790.245" x="1852" class="TextPosition"><tspan>Informational</tspan></tspan></tspan></text><text y="-623.755" class="TextShape" transform="translate(-858 -4256.578)"><tspan font-weight="700" font-size="303" class="TextParagraph" font-family="Arial,sans-serif"><tspan y="15193.245" x="2109" class="TextPosition"><tspan>Concepts</tspan></tspan></tspan></text><path fill="#00b050" d="M3759 1167.667h3774v41H3759zM7683 1167.667h3774v41H7683zM11607 1167.667h3774v41h-3774zM15552 1167.667h3774v41h-3774zM19454 1167.667h3774v41h-3774z"/><path fill="#00b050" d="M3716 1167.667h44v2080h-44z"/><path fill="#00b050" d="M3759 3206.667h3774v41H3759z"/><path fill="#00b050" d="M7490 1207.667h44v2039h-44zM7640 1167.667h44v2080h-44z"/><path fill="#00b050" d="M7683 3206.667h3774v41H7683z"/><path fill="#00b050" d="M11414 1207.667h43v2039h-43zM11564 1167.667h43v2080h-43zM11607 3206.667h3774v41h-3774z"/><path fill="#00b050" d="M15338 1207.667h43v2039h-43zM15509 1167.667h44v2080h-44z"/><path fill="#00b050" d="M15552 3206.667h3774v41h-3774z"/><path fill="#00b050" d="M19283 1207.667h43v2039h-43zM19412 1167.667h43v2080h-43z"/><path fill="#00b050" d="M19454 3206.667h3774v41h-3774z"/><path fill="#00b050" d="M23185 1207.667h44v2039h-44z"/><path fill="#7030a0" d="M3759 3367.667h3774v41H3759zM7683 3367.667h3774v41H7683zM11607 3367.667h3774v41h-3774zM15552 3367.667h3774v41h-3774zM19454 3367.667h3774v41h-3774z"/><path fill="#7030a0" d="M3716 3367.667h44v2080h-44z"/><path fill="#7030a0" d="M3759 5406.667h3774v41H3759z"/><path fill="#7030a0" d="M7490 3408.667h44v2039h-44zM7640 3367.667h44v2080h-44z"/><path fill="#7030a0" d="M7683 5406.667h3774v41H7683z"/><path fill="#7030a0" d="M11414 3408.667h43v2039h-43zM11564 3367.667h43v2080h-43zM11607 5406.667h3774v41h-3774z"/><path fill="#7030a0" d="M15338 3408.667h43v2039h-43zM15509 3367.667h44v2080h-44z"/><path fill="#7030a0" d="M15552 5406.667h3774v41h-3774z"/><path fill="#7030a0" d="M19283 3408.667h43v2039h-43zM19412 3367.667h43v2080h-43z"/><path fill="#7030a0" d="M19454 5406.667h3774v41h-3774z"/><path fill="#7030a0" d="M23185 3408.667h44v2039h-44z"/><path fill="#00b0f0" d="M3759 5567.667h3774v41H3759zM7683 5567.667h3774v41H7683zM11607 5567.667h3774v41h-3774zM15552 5567.667h3774v41h-3774zM19454 5567.667h3774v41h-3774z"/><path fill="#00b0f0" d="M3716 5567.667h44v2039h-44z"/><path fill="#00b0f0" d="M3759 7566.667h3774v41H3759z"/><path fill="#00b0f0" d="M7490 5608.667h44v1998h-44zM7640 5567.667h44v2039h-44z"/><path fill="#00b0f0" d="M7683 7566.667h3774v41H7683z"/><path fill="#00b0f0" d="M11414 5608.667h43v1998h-43zM11564 5567.667h43v2039h-43zM11607 7566.667h3774v41h-3774z"/><path fill="#00b0f0" d="M15338 5608.667h43v1998h-43zM15509 5567.667h44v2039h-44z"/><path fill="#00b0f0" d="M15552 7566.667h3774v41h-3774z"/><path fill="#00b0f0" d="M19283 5608.667h43v1998h-43zM19412 5567.667h43v2039h-43z"/><path fill="#00b0f0" d="M19454 7566.667h3774v41h-3774z"/><path fill="#00b0f0" d="M23185 5608.667h44v1998h-44z"/><path fill="red" d="M3759 7727.667h3774v41H3759zM7683 7727.667h3774v41H7683zM11607 7727.667h3774v41h-3774zM15552 7727.667h3774v41h-3774zM19454 7727.667h3774v41h-3774z"/><path fill="red" d="M3716 7727.667h44v2040h-44z"/><path fill="red" d="M3759 9725.667h3774v42H3759z"/><path fill="red" d="M7490 7767.667h44v1999h-44zM7640 7727.667h44v2040h-44z"/><path fill="red" d="M7683 9725.667h3774v42H7683z"/><path fill="red" d="M11414 7767.667h43v1999h-43zM11564 7727.667h43v2040h-43zM11607 9725.667h3774v42h-3774z"/><path fill="red" d="M15338 7767.667h43v1999h-43zM15509 7727.667h44v2040h-44z"/><path fill="red" d="M15552 9725.667h3774v42h-3774z"/><path fill="red" d="M19283 7767.667h43v1999h-43zM19412 7727.667h43v2040h-43z"/><path fill="red" d="M19454 9725.667h3774v42h-3774z"/><path fill="red" d="M23185 7767.667h44v1999h-44z"/><path d="M3759 9887.667h3774v41H3759zM7683 9887.667h3774v41H7683zM11607 9887.667h3774v41h-3774zM15552 9887.667h3774v41h-3774zM19454 9887.667h3774v41h-3774z"/><path d="M3716 9887.667h44v2039h-44z"/><path d="M3759 11885.667h3774v42H3759z"/><path d="M7490 9927.667h44v1999h-44zM7640 9887.667h44v2039h-44z"/><path d="M7683 11885.667h3774v42H7683z"/><path d="M11414 9927.667h43v1999h-43zM11564 9887.667h43v2039h-43zM11607 11885.667h3774v42h-3774z"/><path d="M15338 9927.667h43v1999h-43zM15509 9887.667h44v2039h-44z"/><path d="M15552 11885.667h3774v42h-3774z"/><path d="M19283 9927.667h43v1999h-43zM19412 9887.667h43v2039h-43z"/><path d="M19454 11885.667h3774v42h-3774z"/><path d="M23185 9927.667h44v1999h-44z"/></svg>