<svg xmlns="http://www.w3.org/2000/svg" version="1.2" width="922.054" height="393.512" viewBox="0 0 24396.001 10411.667" preserveAspectRatio="xMidYMid" fill-rule="evenodd" stroke-width="28.222" stroke-linejoin="round"><path class="BoundingBox" fill="none" d="M9 396.667h24253v9843H9z"/><path class="BoundingBox" fill="none" d="M0 396.667h24237v9844H0z"/><path fill="#a6a6a6" d="M3589 0h4021v846.667H3589zM7745 0h4021v846.667H7745zM11903 0h4021v846.667h-4021zM16082 0h4021v846.667h-4021zM20216 0h4021v846.667h-4021z"/><path fill="#fff" d="M0 824.667h24396v193H0z"/><path fill="#00b050" d="M0 995.667h3453v1755H0z"/><path fill="#fff" d="M3430 995.667h20966v1755H3430z"/><path fill="#fff" d="M0 2728.667h24396v194H0z"/><path fill="#7030a0" d="M0 2900.667h3453v1755H0z"/><path fill="#fff" d="M3430 2900.667h20966v1755H3430z"/><path fill="#fff" d="M0 4633.667h24396v193H0z"/><path fill="#00b0f0" d="M0 4804.667h3453v1712H0z"/><path fill="#fff" d="M3430 4804.667h20966v1712H3430z"/><path fill="#fff" d="M0 6495.667h24396v193H0z"/><path fill="red" d="M0 6666.667h3453v1712H0z"/><path fill="#fff" d="M3430 6666.667h20966v1712H3430z"/><path fill="#fff" d="M0 8356.666h24396v194H0z"/><path fill="#ff0" d="M0 8527.666h3453v1713H0z"/><path fill="#fff" d="M3430 8527.666h20966v1713H3430z"/><path fill="#fff" d="M0 10218.666h24396v193H0z"/><text class="TextShape" transform="translate(-564 -5636.333)"><tspan font-weight="700" font-size="321" class="TextParagraph" font-family="Arial,sans-serif"><tspan y="6076" x="5516" class="TextPosition"><tspan fill="#fff">Security</tspan></tspan></tspan></text><text class="TextShape" transform="translate(-564 -5636.333)"><tspan font-weight="700" font-size="321" class="TextParagraph" font-family="Arial,sans-serif"><tspan y="6076" x="9831" class="TextPosition"><tspan fill="#fff">Safety</tspan></tspan></tspan></text><text class="TextShape" transform="translate(-564 -5636.333)"><tspan font-weight="700" font-size="321" class="TextParagraph" font-family="Arial,sans-serif"><tspan y="6076" x="13284" class="TextPosition"><tspan fill="#fff">Huamn Factors</tspan></tspan></tspan></text><text class="TextShape" transform="translate(-564 -5636.333)"><tspan font-weight="700" font-size="321" class="TextParagraph" font-family="Arial,sans-serif"><tspan y="6076" x="17622" class="TextPosition"><tspan fill="#fff">Performance</tspan></tspan></tspan></text><text class="TextShape" transform="translate(-564 -5636.333)"><tspan font-weight="700" font-size="321" class="TextParagraph" font-family="Arial,sans-serif"><tspan y="6076" x="22415" class="TextPosition"><tspan fill="#fff">Cost</tspan></tspan></tspan></text><text class="TextShape" transform="translate(-564 -5636.333)"><tspan font-weight="700" font-size="321" class="TextParagraph" font-family="Arial,sans-serif"><tspan y="7317" x="1064" class="TextPosition"><tspan fill="#fff">User viewpoint</tspan></tspan></tspan></text><text class="TextShape" transform="translate(-564 -5636.333)"><tspan font-weight="700" font-size="321" class="TextParagraph" font-family="Arial,sans-serif"><tspan y="9222" x="836" class="TextPosition"><tspan fill="#fff">Acquier viewpoint</tspan></tspan></tspan></text><text class="TextShape" transform="translate(-564 -5636.333)"><tspan font-weight="700" font-size="321" class="TextParagraph" font-family="Arial,sans-serif"><tspan y="11104" x="746" class="TextPosition"><tspan fill="#fff">Provider viewpoint</tspan></tspan></tspan></text><text class="TextShape" transform="translate(-564 -5636.333)"><tspan font-weight="700" font-size="321" class="TextParagraph" font-family="Arial,sans-serif"><tspan y="12752" x="1723" class="TextPosition"><tspan fill="#fff">System</tspan></tspan></tspan></text><text class="TextShape" transform="translate(-564 -5636.333)"><tspan font-weight="700" font-size="321" class="TextParagraph" font-family="Arial,sans-serif"><tspan y="13180" x="1518" class="TextPosition"><tspan fill="#fff">Concepts</tspan></tspan></tspan></text><text class="TextShape" transform="translate(-564 -5636.333)"><tspan font-weight="700" font-size="321" class="TextParagraph" font-family="Arial,sans-serif"><tspan y="14614" x="1246" class="TextPosition"><tspan>Informational</tspan></tspan></tspan></text><text class="TextShape" transform="translate(-564 -5636.333)"><tspan font-weight="700" font-size="321" class="TextParagraph" font-family="Arial,sans-serif"><tspan y="15042" x="1518" class="TextPosition"><tspan>Concepts</tspan></tspan></tspan></text><path fill="#00b050" d="M3611 974.667h3998v43H3611zM7769 974.667h3997v43H7769zM11925 974.667h3998v43h-3998zM16104 974.667h3998v43h-3998zM20238 974.667h3998v43h-3998z"/><path fill="#00b050" d="M3566 974.667h46v1777h-46z"/><path fill="#00b050" d="M3611 2707.667h3998v44H3611z"/><path fill="#00b050" d="M7564 1016.667h46v1734h-46zM7723 974.667h46v1777h-46zM7769 2707.667h3997v44H7769z"/><path fill="#00b050" d="M11720 1016.667h46v1734h-46zM11879 974.667h46v1777h-46zM11925 2707.667h3998v44h-3998z"/><path fill="#00b050" d="M15878 1016.667h46v1734h-46zM16059 974.667h46v1777h-46z"/><path fill="#00b050" d="M16104 2707.667h3998v44h-3998z"/><path fill="#00b050" d="M20057 1016.667h46v1734h-46zM20193 974.667h46v1777h-46z"/><path fill="#00b050" d="M20238 2707.667h3998v44h-3998z"/><path fill="#00b050" d="M24191 1016.667h46v1734h-46z"/><path fill="#7030a0" d="M3611 2878.667h3998v44H3611zM7769 2878.667h3997v44H7769zM11925 2878.667h3998v44h-3998zM16104 2878.667h3998v44h-3998zM20238 2878.667h3998v44h-3998z"/><path fill="#7030a0" d="M3566 2878.667h46v1777h-46z"/><path fill="#7030a0" d="M3611 4611.667h3998v44H3611z"/><path fill="#7030a0" d="M7564 2921.667h46v1734h-46zM7723 2878.667h46v1777h-46zM7769 4611.667h3997v44H7769z"/><path fill="#7030a0" d="M11720 2921.667h46v1734h-46zM11879 2878.667h46v1777h-46zM11925 4611.667h3998v44h-3998z"/><path fill="#7030a0" d="M15878 2921.667h46v1734h-46zM16059 2878.667h46v1777h-46z"/><path fill="#7030a0" d="M16104 4611.667h3998v44h-3998z"/><path fill="#7030a0" d="M20057 2921.667h46v1734h-46zM20193 2878.667h46v1777h-46z"/><path fill="#7030a0" d="M20238 4611.667h3998v44h-3998z"/><path fill="#7030a0" d="M24191 2921.667h46v1734h-46z"/><path fill="#00b0f0" d="M3611 4783.667h3998v43H3611zM7769 4783.667h3997v43H7769zM11925 4783.667h3998v43h-3998zM16104 4783.667h3998v43h-3998zM20238 4783.667h3998v43h-3998z"/><path fill="#00b0f0" d="M3566 4783.667h46v1733h-46z"/><path fill="#00b0f0" d="M3611 6473.667h3998v43H3611z"/><path fill="#00b0f0" d="M7564 4825.667h46v1691h-46zM7723 4783.667h46v1733h-46zM7769 6473.667h3997v43H7769z"/><path fill="#00b0f0" d="M11720 4825.667h46v1691h-46zM11879 4783.667h46v1733h-46zM11925 6473.667h3998v43h-3998z"/><path fill="#00b0f0" d="M15878 4825.667h46v1691h-46zM16059 4783.667h46v1733h-46z"/><path fill="#00b0f0" d="M16104 6473.667h3998v43h-3998z"/><path fill="#00b0f0" d="M20057 4825.667h46v1691h-46zM20193 4783.667h46v1733h-46z"/><path fill="#00b0f0" d="M20238 6473.667h3998v43h-3998z"/><path fill="#00b0f0" d="M24191 4825.667h46v1691h-46z"/><path fill="red" d="M3611 6645.667h3998v43H3611zM7769 6645.667h3997v43H7769zM11925 6645.667h3998v43h-3998zM16104 6645.667h3998v43h-3998zM20238 6645.667h3998v43h-3998z"/><path fill="red" d="M3566 6645.667h46v1733h-46z"/><path fill="red" d="M3611 8335.667h3998v43H3611z"/><path fill="red" d="M7564 6687.667h46v1691h-46zM7723 6645.667h46v1733h-46zM7769 8335.667h3997v43H7769z"/><path fill="red" d="M11720 6687.667h46v1691h-46zM11879 6645.667h46v1733h-46zM11925 8335.667h3998v43h-3998z"/><path fill="red" d="M15878 6687.667h46v1691h-46zM16059 6645.667h46v1733h-46z"/><path fill="red" d="M16104 8335.667h3998v43h-3998z"/><path fill="red" d="M20057 6687.667h46v1691h-46zM20193 6645.667h46v1733h-46z"/><path fill="red" d="M20238 8335.667h3998v43h-3998z"/><path fill="red" d="M24191 6687.667h46v1691h-46z"/><path d="M3611 8506.667h3998v44H3611zM7769 8506.667h3997v44H7769zM11925 8506.667h3998v44h-3998zM16104 8506.667h3998v44h-3998zM20238 8506.667h3998v44h-3998z"/><path d="M3566 8506.667h46v1734h-46z"/><path d="M3611 10196.667h3998v44H3611z"/><path d="M7564 8549.667h46v1691h-46zM7723 8506.667h46v1734h-46zM7769 10196.667h3997v44H7769z"/><path d="M11720 8549.667h46v1691h-46zM11879 8506.667h46v1734h-46zM11925 10196.667h3998v44h-3998z"/><path d="M15878 8549.667h46v1691h-46zM16059 8506.667h46v1734h-46z"/><path d="M16104 10196.667h3998v44h-3998z"/><path d="M20057 8549.667h46v1691h-46zM20193 8506.667h46v1734h-46z"/><path d="M20238 10196.667h3998v44h-3998z"/><path d="M24191 8549.667h46v1691h-46z"/></svg>