<?xml version="1.0" encoding="UTF-8" standalone="no"?>
<svg
   xmlns:dc="http://purl.org/dc/elements/1.1/"
   xmlns:cc="http://creativecommons.org/ns#"
   xmlns:rdf="http://www.w3.org/1999/02/22-rdf-syntax-ns#"
   xmlns:svg="http://www.w3.org/2000/svg"
   xmlns="http://www.w3.org/2000/svg"
   xmlns:sodipodi="http://sodipodi.sourceforge.net/DTD/sodipodi-0.dtd"
   xmlns:inkscape="http://www.inkscape.org/namespaces/inkscape"
   version="1.2"
   width="127.81998mm"
   height="86.419998mm"
   viewBox="0 0 12781.998 8641.9998"
   preserveAspectRatio="xMidYMid"
   xml:space="preserve"
   id="svg2"
   inkscape:version="0.91 r13725"
   sodipodi:docname="process-areas.svg"
   style="fill-rule:evenodd;stroke-width:28.22200012;stroke-linejoin:round"><title
     id="title5337">Architecture Processes for both Enterprises and Projects</title><metadata
     id="metadata564"><rdf:RDF><cc:Work
         rdf:about=""><dc:format>image/svg+xml</dc:format><dc:type
           rdf:resource="http://purl.org/dc/dcmitype/StillImage" /><dc:title>Architecture Processes for both Enterprises and Projects</dc:title><dc:date>2016-08-18</dc:date><dc:creator><cc:Agent><dc:title>STO/IST130</dc:title></cc:Agent></dc:creator></cc:Work></rdf:RDF></metadata><sodipodi:namedview
     pagecolor="#ffffff"
     bordercolor="#666666"
     borderopacity="1"
     objecttolerance="10"
     gridtolerance="10"
     guidetolerance="10"
     inkscape:pageopacity="0"
     inkscape:pageshadow="2"
     inkscape:window-width="1535"
     inkscape:window-height="930"
     id="namedview562"
     showgrid="false"
     showguides="false"
     inkscape:zoom="1.18"
     inkscape:cx="420.76133"
     inkscape:cy="193.32285"
     inkscape:window-x="65"
     inkscape:window-y="34"
     inkscape:window-maximized="0"
     inkscape:current-layer="svg2"
     fit-margin-top="2"
     fit-margin-left="2"
     fit-margin-right="2"
     fit-margin-bottom="2" /><defs
     class="ClipPathGroup"
     id="defs4" /><defs
     id="defs9" /><defs
     id="defs46" /><defs
     id="defs99" /><defs
     id="defs176" /><defs
     id="defs231" /><defs
     class="TextShapeIndex"
     id="defs242" /><defs
     class="EmbeddedBulletChars"
     id="defs246" /><defs
     class="TextEmbeddedBitmaps"
     id="defs275" /><g
     id="g4292"
     transform="translate(-8.2898816e-4,-45.000419)"><rect
       style="fill:none;stroke:none"
       id="rect400"
       height="8242"
       width="12382"
       y="245"
       x="200"
       class="BoundingBox" /><path
       style="fill:#00b0f0;stroke:none"
       inkscape:connector-curvature="0"
       id="path402"
       d="m 248,293 1736,0 0,8145 -1736,0 0,-8145 z" /><text
       transform="matrix(0,-1,1,0,0,0)"
       y="-8315.4492"
       x="-7852.2344"
       id="text404"
       class="TextShape"><tspan
         style="font-weight:700;font-size:635px;font-family:Arial, sans-serif"
         id="tspan406"
         font-weight="700"
         font-size="635px"
         class="TextParagraph"><tspan
           style="fill:#ffffff;stroke:none"
           id="tspan408"
           y="1339.5522"
           x="-6185.2344"
           class="TextPosition">Enablement</tspan></tspan></text>
<path
       style="fill:#3333ff;stroke:none"
       inkscape:connector-curvature="0"
       id="path424"
       d="m 1984,293 10549,0 0,2377 -10549,0 0,-2377 z" /><text
       y="-6294"
       x="-1133"
       id="text426"
       class="TextShape"><tspan
         style="font-weight:700;font-size:635px;font-family:Arial, sans-serif"
         id="tspan428"
         font-weight="700"
         font-size="635px"
         class="TextParagraph"><tspan
           id="tspan430"
           y="1702"
           x="5426"
           class="TextPosition"><tspan
             style="fill:#ffffff;stroke:none"
             id="tspan432">Governance</tspan></tspan></tspan></text>
<path
       style="fill:#3333ff;fill-opacity:0.569;stroke:#ffffff;stroke-opacity:0.569"
       inkscape:connector-curvature="0"
       id="path434"
       d="m 1984,2670 10549,0 0,2377 -10549,0 0,-2377 z" /><text
       y="-6294"
       x="-1133"
       id="text436"
       class="TextShape"><tspan
         style="font-weight:700;font-size:635px;font-family:Arial, sans-serif"
         id="tspan438"
         font-weight="700"
         font-size="635px"
         class="TextParagraph"><tspan
           id="tspan440"
           y="4079"
           x="5320"
           class="TextPosition"><tspan
             style="fill:#000000;stroke:none"
             id="tspan442">Management</tspan></tspan></tspan></text>
<path
       style="fill:#3333ff;fill-opacity:0.14900004;stroke:#ffffff;stroke-opacity:0.14900004"
       inkscape:connector-curvature="0"
       id="path444"
       d="m 1984,5047 5876,0 0,3391 -5876,0 0,-3391 z" /><text
       y="-6294"
       x="-1133"
       id="text446"
       class="TextShape"><tspan
         style="font-weight:400;font-size:635px;font-family:Arial, sans-serif"
         id="tspan448"
         font-weight="400"
         font-size="635px"
         class="TextParagraph"><tspan
           id="tspan450"
           y="6963"
           x="3339"
           class="TextPosition"><tspan
             style="fill:#000000;stroke:none"
             id="tspan452">Description</tspan></tspan></tspan></text>
<path
       style="fill:#3333ff;fill-opacity:0.14900004;stroke:#ffffff;stroke-opacity:0.14900004"
       inkscape:connector-curvature="0"
       id="path454"
       d="m 7860,5047 4673,0 0,3391 -4673,0 0,-3391 z" /><text
       y="-6294"
       x="-1133"
       id="text456"
       class="TextShape"><tspan
         style="font-weight:400;font-size:635px;font-family:Arial, sans-serif"
         id="tspan458"
         font-weight="400"
         font-size="635px"
         class="TextParagraph"><tspan
           id="tspan460"
           y="6963"
           x="8719"
           class="TextPosition"><tspan
             style="fill:#000000;stroke:none"
             id="tspan462">Evaluation</tspan></tspan></tspan></text>
<path
       style="fill:#000000;stroke:none"
       inkscape:connector-curvature="0"
       id="path464"
       d="m 295,340 -47,-47 -47,-47 0,8239 47,-47 47,-47 0,-8051 z" /><path
       style="fill:#000000;stroke:none"
       inkscape:connector-curvature="0"
       id="path466"
       d="m 295,8391 -47,47 -47,47 1830,0 -47,-47 -47,-47 -1642,0 z" /><path
       style="fill:#000000;stroke:none"
       inkscape:connector-curvature="0"
       id="path468"
       d="m 2031,340 -47,-47 -47,47 0,8051 47,47 47,-47 0,-8051 z" /><path
       style="fill:#000000;stroke:none"
       inkscape:connector-curvature="0"
       id="path470"
       d="m 201,246 47,47 47,47 1642,0 47,-47 47,-47 -1830,0 z" /><path
       style="fill:#000000;stroke:none"
       inkscape:connector-curvature="0"
       id="path472"
       d="m 2031,340 -47,-47 -47,47 0,2377 47,-47 47,-47 0,-2283 z" /><path
       style="fill:#000000;stroke:none"
       inkscape:connector-curvature="0"
       id="path474"
       d="m 12580,246 -47,47 -47,47 0,2283 47,47 47,47 0,-2471 z" /><path
       style="fill:#000000;stroke:none"
       inkscape:connector-curvature="0"
       id="path476"
       d="m 1937,246 47,47 47,47 10455,0 47,-47 47,-47 -10643,0 z" /><path
       style="fill:#000000;stroke:none"
       inkscape:connector-curvature="0"
       id="path478"
       d="m 2031,2717 -47,-47 -47,-47 0,2471 47,-47 47,-47 0,-2283 z" /><path
       style="fill:#000000;stroke:none"
       inkscape:connector-curvature="0"
       id="path480"
       d="m 12580,2623 -47,47 -47,47 0,2283 47,47 47,47 0,-2471 z" /><path
       style="fill:#000000;stroke:none"
       inkscape:connector-curvature="0"
       id="path482"
       d="m 2031,2623 -47,47 47,47 10455,0 47,-47 -47,-47 -10455,0 z" /><path
       style="fill:#000000;stroke:none"
       inkscape:connector-curvature="0"
       id="path484"
       d="m 2031,5094 -47,-47 -47,-47 0,3391 47,47 47,-47 0,-3297 z" /><path
       style="fill:#000000;stroke:none"
       inkscape:connector-curvature="0"
       id="path486"
       d="m 2031,8391 -47,47 -47,47 5970,0 -47,-47 -47,-47 -5782,0 z" /><path
       style="fill:#000000;stroke:none"
       inkscape:connector-curvature="0"
       id="path488"
       d="m 7907,5000 -47,47 -47,47 0,3297 47,47 47,47 0,-3485 z" /><path
       style="fill:#000000;stroke:none"
       inkscape:connector-curvature="0"
       id="path490"
       d="m 2031,5000 -47,47 47,47 5782,0 47,-47 47,-47 -5876,0 z" /><path
       style="fill:#000000;stroke:none"
       inkscape:connector-curvature="0"
       id="path492"
       d="m 7907,5094 -47,-47 -47,47 0,3297 47,47 47,-47 0,-3297 z" /><path
       style="fill:#000000;stroke:none"
       inkscape:connector-curvature="0"
       id="path494"
       d="m 7907,8391 -47,47 -47,47 4767,0 -47,-47 -47,-47 -4579,0 z" /><path
       style="fill:#000000;stroke:none"
       inkscape:connector-curvature="0"
       id="path496"
       d="m 12580,5000 -47,47 -47,47 0,3297 47,47 47,47 0,-3485 z" /><path
       style="fill:#000000;stroke:none"
       inkscape:connector-curvature="0"
       id="path498"
       d="m 7813,5000 47,47 47,47 4579,0 47,-47 -47,-47 -4673,0 z" /></g></svg>